<svg width="54" height="40" viewBox="0 0 54 40" fill="none" xmlns="http://www.w3.org/2000/svg">
<path d="M44.3852 20C44.3852 32.1503 34.4492 42 22.1926 42C9.93596 42 0 32.1503 0 20C0 7.84974 9.93596 -2 22.1926 -2C34.4492 -2 44.3852 7.84974 44.3852 20Z" fill="#7BFF00"/>
<path d="M32.3336 21.3332L32.4054 21.5741C35.3754 21.8366 37.2518 23.7715 37.6375 26.8862C38.2365 31.7223 34.6789 35.525 29.263 36.1842L13.801 38.0662L13.8053 10.3176L26.1666 8.81304C30.5902 8.2746 33.3935 9.22303 35.0979 11.8029C35.6745 12.7311 36.0596 13.8075 36.1662 14.6681C36.5672 17.9058 35.1876 20.3202 32.3336 21.3332ZM24.7877 15.6371L23.382 15.8082L23.3732 19.803L24.2414 19.6973C26.3912 19.4356 27.2659 18.7051 27.0781 17.1888C26.9258 15.9593 26.1106 15.4761 24.7877 15.6371ZM25.0761 25.4199L23.3811 25.6262L23.3861 30.4097L24.0475 30.3292C26.9828 29.972 28.1731 29.0783 27.9142 26.9881C27.7517 25.6766 26.8952 25.1985 25.0761 25.4199Z" fill="#373737"/>
<path d="M27.2278 17.9586L27.2996 18.1995C30.2697 18.462 32.146 20.3969 32.5318 23.5116C33.1308 28.3476 29.5731 32.1504 24.1573 32.8096L8.69533 34.6916L8.69957 6.94303L21.0609 5.43842C25.4845 4.89998 28.2878 5.84841 29.9922 8.42824C30.5688 9.35649 30.9539 10.4329 31.0605 11.2935C31.4615 14.5312 30.0819 16.9456 27.2278 17.9586ZM19.6819 12.2625L18.2763 12.4336L18.2675 16.4284L19.1357 16.3227C21.2855 16.061 22.1602 15.3305 21.9724 13.8141C21.8201 12.5846 21.0049 12.1014 19.6819 12.2625ZM19.9704 22.0453L18.2754 22.2516L18.2803 27.0351L18.9418 26.9546C21.8771 26.5973 23.0673 25.7036 22.8085 23.6135C22.646 22.302 21.7895 21.8239 19.9704 22.0453Z" fill="white"/>
<path d="M43.2325 16.0165L41.4239 16.2367L42.6935 8.19975L44.185 8.0182L46.0992 12.5005L48.0605 7.54648L49.599 7.35921L50.8427 15.0902L49.0341 15.3104L48.4132 10.6825L46.4856 15.6206L45.8045 15.7035L43.8565 11.2371L43.2325 16.0165Z" fill="#373737"/>
<path d="M52.1914 7.04367L54 6.82353L53.9988 14.7061L52.1902 14.9262L52.1914 7.04367Z" fill="#373737"/>
<path d="M42.2465 15.0391L40.4379 15.2592L41.7075 7.22228L43.199 7.04074L45.1131 11.523L47.0745 6.56901L48.613 6.38175L49.8566 14.1128L48.0481 14.3329L47.4272 9.70504L45.4996 14.6431L44.8184 14.726L42.8705 10.2597L42.2465 15.0391Z" fill="white"/>
<path d="M51.2054 6.0662L53.014 5.84606L53.0128 13.7286L51.2042 13.9487L51.2054 6.0662Z" fill="white"/>
</svg>
