<svg width="302" height="72" viewBox="0 0 302 72" fill="none" xmlns="http://www.w3.org/2000/svg">
<path d="M247.009 34.3643C247.009 56.6569 228.965 74.7286 206.707 74.7286C184.449 74.7286 166.405 56.6569 166.405 34.3643C166.405 12.0717 184.449 -6 206.707 -6C228.965 -6 247.009 12.0717 247.009 34.3643Z" fill="#7BFF00"/>
<path d="M225.065 36.342L225.195 36.784C230.589 37.2656 233.996 40.8156 234.697 46.5303C235.785 55.4032 229.324 62.3803 219.489 63.5898L191.41 67.0428L191.417 16.1313L213.866 13.3707C221.899 12.3828 226.99 14.123 230.085 18.8563C231.132 20.5594 231.831 22.5342 232.025 24.1133C232.753 30.0536 230.248 34.4834 225.065 36.342ZM211.361 25.8911L208.809 26.205L208.793 33.5344L210.369 33.3406C214.273 32.8605 215.862 31.5202 215.521 28.738C215.244 26.4822 213.764 25.5957 211.361 25.8911ZM211.885 43.84L208.807 44.2186L208.816 52.9951L210.017 52.8474C215.348 52.1919 217.509 50.5522 217.039 46.7173C216.744 44.3111 215.189 43.4338 211.885 43.84Z" fill="#373737"/>
<path d="M215.792 30.1506L215.922 30.5925C221.316 31.0741 224.723 34.6241 225.424 40.3389C226.512 49.2118 220.051 56.1888 210.216 57.3983L182.137 60.8513L182.144 9.93983L204.593 7.17926C212.626 6.19137 217.717 7.93149 220.812 12.6648C221.859 14.3679 222.558 16.3428 222.752 17.9218C223.48 23.8621 220.975 28.2919 215.792 30.1506ZM202.088 19.6996L199.536 20.0135L199.52 27.343L201.096 27.1491C205 26.669 206.589 25.3287 206.248 22.5465C205.971 20.2907 204.491 19.4042 202.088 19.6996ZM202.612 37.6485L199.534 38.0271L199.543 46.8036L200.744 46.6559C206.075 46.0004 208.236 44.3607 207.766 40.5258C207.471 38.1196 205.916 37.2423 202.612 37.6485Z" fill="white"/>
<path d="M19.7019 48.0457L17.251 52.7594C15.4427 51.4847 13.8451 51.2872 12.6826 51.4302C11.9463 51.5207 10.9143 51.7658 10.3222 52.3902C9.83198 52.8838 9.57363 53.6641 9.65927 54.3627C9.75443 55.1389 10.1698 55.6394 10.7646 55.9996C11.3643 56.3986 12.0998 56.6233 13.45 57.0482L15.0469 57.561C16.3583 57.9906 17.6017 58.5075 18.7615 59.6255C19.8342 60.6754 20.3692 61.8309 20.5738 63.4998C20.9069 66.2165 20.1168 68.7562 18.7911 70.4557C16.9508 72.77 14.3341 73.5645 11.699 73.8886C9.80024 74.1221 8.26042 74.0751 6.40245 73.3581C5.03803 72.8167 3.66954 71.9213 2.61582 71.0266L5.425 66.3476C6.05791 67.0183 7.01034 67.7285 7.84721 68.1377C8.72283 68.5422 9.85067 68.758 10.9744 68.6199C11.8657 68.5102 13.0724 68.0861 13.7421 67.4522C14.373 66.8231 14.651 65.8828 14.5321 64.9125C14.4179 63.981 13.925 63.4901 13.577 63.2177C13.3594 63.0475 12.8033 62.6826 11.3804 62.306L9.79303 61.8709C9.34775 61.768 7.26679 61.1572 5.86975 60.029C4.47272 58.9007 3.8269 57.4831 3.62707 55.853C3.29877 53.1751 4.14589 51.1011 5.23365 49.7067C7.07402 47.3924 9.70023 46.6755 11.909 46.4039C14.1178 46.1322 16.7277 46.2446 19.7019 48.0457Z" fill="#373737"/>
<path d="M36.7397 52.6477L42.3198 51.9615L42.3815 61.4483C42.4012 63.5339 42.3474 65.983 40.6383 68.0842C38.8271 70.3161 36.1044 70.8873 34.1281 71.1304C32.3843 71.3448 29.3087 71.6048 27.1428 69.9802C25.8471 69.0365 24.9355 67.3758 24.7118 65.5516C24.6262 64.8531 24.5949 63.6356 24.6058 63.0827L24.572 54.144L30.1521 53.4578L30.2009 62.1977C30.2179 63.2987 30.1879 63.6963 30.2403 64.1233C30.3545 65.0547 30.7794 65.6328 31.2097 65.9345C31.7705 66.3382 32.7726 66.4908 33.5864 66.3907C34.4776 66.2811 35.4858 65.8419 36.025 65.1059C36.2289 64.8445 36.7878 63.9484 36.7681 61.8629L36.7397 52.6477Z" fill="#373737"/>
<path d="M52.4462 66.12L52.4025 77.3138L46.8224 78L46.827 51.4072L52.4071 50.721L52.3445 52.7773C52.9374 51.8377 53.6798 51.1555 54.2957 50.7252C55.3481 50.0048 56.4433 49.6337 57.7609 49.4717C60.4347 49.1429 62.1859 49.9518 63.2253 50.7301C64.7916 51.9558 65.9779 54.2524 66.3062 56.9304C66.7106 60.2293 65.8472 63.1326 64.3515 65.0499C62.8558 66.9672 61.0332 67.8217 58.7856 68.0981C57.5456 68.2506 56.2138 68.2962 54.9364 67.823C54.1526 67.5254 53.2627 67.0045 52.4462 66.12ZM56.1808 54.5511C54.8245 54.7179 53.8354 55.3123 53.0875 56.271C52.2037 57.4039 51.9589 58.6159 52.1207 59.9355C52.2206 60.7505 52.5524 61.8522 53.5143 62.64C54.2587 63.2576 55.3668 63.6335 56.5681 63.4857C57.6919 63.3475 58.8021 62.7777 59.5207 61.9014C60.346 60.9332 60.7709 59.2657 60.6139 57.9849C60.4807 56.8982 59.8295 55.757 59.0558 55.2218C58.2774 54.6478 57.1496 54.432 56.1808 54.5511Z" fill="#373737"/>
<path d="M74.831 54.385L81.8449 53.5225C81.6674 52.717 81.127 51.8379 80.4451 51.4096C79.7633 50.9813 78.7707 50.9064 78.0732 50.9922C76.7169 51.159 75.9745 51.8412 75.5666 52.3641C75.1975 52.8823 74.8908 53.5897 74.831 54.385ZM87.6112 56.2802L74.7072 57.867C74.7731 58.7256 75.1776 59.779 75.7235 60.3816C76.5834 61.3001 77.6535 61.3655 78.5448 61.2559C79.2035 61.1749 80.0513 61.0312 80.6917 60.4797C81.1526 60.0685 81.5368 59.3515 81.7027 58.7796L87.3786 58.5543C86.8952 60.3866 85.8938 62.1644 84.7679 63.2483C82.9724 64.9662 80.6277 65.4121 79.0389 65.6075C76.9076 65.8696 74.3168 65.9124 72.0108 64.108C70.1399 62.644 69.384 60.649 69.0985 58.3204C68.6322 54.5169 69.873 51.8036 71.1403 50.2689C72.9901 48.0323 75.5341 47.2861 77.7041 47.0192C80.6492 46.657 82.9722 47.3169 84.4467 48.4356C87.0525 50.4395 87.5915 54.1946 87.6112 56.2802Z" fill="#373737"/>
<path d="M90.9024 63.5576L90.9117 45.9859L96.4918 45.2997L96.302 47.9232C96.7113 46.7698 97.4347 45.9323 98.1914 45.3665C99.205 44.6509 100.392 44.3868 101.012 44.3105C101.942 44.1961 102.731 44.2173 103.332 44.301L102.884 49.6351C102.308 49.4301 101.457 49.2197 100.371 49.3531C98.9765 49.5247 98.1131 50.1824 97.6324 50.7537C96.7778 51.8043 96.5127 53.4915 96.5085 55.383L96.4825 62.8714L90.9024 63.5576Z" fill="#373737"/>
<path d="M120.698 33.6166L120.696 38.7382L112.326 39.7675L112.32 44.8503L120.07 43.8973L120.068 49.0189L112.318 49.972L112.285 60.9281L106.317 61.662L106.36 35.3797L120.698 33.6166Z" fill="#373737"/>
<path d="M124.507 59.4252L124.516 41.8535L130.096 41.1673L129.906 43.7907C130.315 42.6373 131.039 41.7998 131.795 41.234C132.809 40.5185 133.996 40.2543 134.616 40.1781C135.546 40.0637 136.335 40.0848 136.936 40.1686L136.488 45.5026C135.912 45.2977 135.061 45.0873 133.976 45.2207C132.581 45.3922 131.717 46.05 131.237 46.6212C130.382 47.6718 130.117 49.359 130.113 51.2505L130.087 58.7389L124.507 59.4252Z" fill="#373737"/>
<path d="M143.931 45.8874L150.945 45.0249C150.768 44.2194 150.227 43.3403 149.545 42.912C148.864 42.4837 147.871 42.4088 147.174 42.4946C145.817 42.6614 145.075 43.3436 144.667 43.8665C144.298 44.3847 143.991 45.0921 143.931 45.8874ZM156.711 47.7826L143.807 49.3694C143.873 50.228 144.278 51.2814 144.824 51.884C145.684 52.8025 146.754 52.8679 147.645 52.7583C148.304 52.6773 149.152 52.5337 149.792 51.9821C150.253 51.5709 150.637 50.8539 150.803 50.282L156.479 50.0567C155.996 51.889 154.994 53.6668 153.868 54.7507C152.073 56.4686 149.728 56.9145 148.139 57.1099C146.008 57.372 143.417 57.4148 141.111 55.6104C139.24 54.1465 138.484 52.1514 138.199 49.8228C137.733 46.0193 138.973 43.306 140.241 41.7713C142.09 39.5347 144.634 38.7885 146.804 38.5216C149.75 38.1594 152.072 38.8193 153.547 39.938C156.153 41.9419 156.692 45.697 156.711 47.7826Z" fill="#373737"/>
<path d="M164.934 43.3046L171.948 42.4421C171.77 41.6366 171.23 40.7575 170.548 40.3292C169.866 39.901 168.874 39.826 168.176 39.9118C166.82 40.0786 166.077 40.7608 165.669 41.2837C165.3 41.8019 164.994 42.5093 164.934 43.3046ZM177.714 45.1998L164.81 46.7867C164.876 47.6453 165.28 48.6986 165.826 49.3012C166.686 50.2197 167.756 50.2851 168.648 50.1755C169.306 50.0945 170.154 49.9509 170.795 49.3994C171.256 48.9881 171.64 48.2711 171.806 47.6992L177.481 47.474C176.998 49.3062 175.997 51.084 174.871 52.1679C173.075 53.8858 170.731 54.3317 169.142 54.5271C167.011 54.7892 164.42 54.832 162.114 53.0276C160.243 51.5637 159.487 49.5687 159.201 47.24C158.735 43.4366 159.976 40.7232 161.243 39.1886C163.093 36.9519 165.637 36.2057 167.807 35.9388C170.752 35.5767 173.075 36.2365 174.55 37.3552C177.155 39.3591 177.694 43.1142 177.714 45.1998Z" fill="#373737"/>
<path d="M17.0861 44.5762L14.6352 49.2899C12.8269 48.0152 11.2293 47.8177 10.0667 47.9607C9.33048 48.0512 8.29849 48.2963 7.70634 48.9207C7.21616 49.4143 6.95781 50.1946 7.04345 50.8932C7.13861 51.6694 7.55398 52.1699 8.14883 52.5301C8.74843 52.9291 9.48401 53.1538 10.8342 53.5787L12.4311 54.0915C13.7425 54.5211 14.9859 55.0379 16.1456 56.156C17.2184 57.2059 17.7534 58.3614 17.958 60.0303C18.2911 62.747 17.501 65.2867 16.1753 66.9862C14.335 69.3005 11.7183 70.095 9.08321 70.4191C7.18442 70.6526 5.6446 70.6056 3.78663 69.8885C2.42221 69.3472 1.05372 68.4518 0 67.5571L2.80918 62.8781C3.44209 63.5488 4.39452 64.259 5.23139 64.6682C6.10701 65.0727 7.23485 65.2885 8.35862 65.1503C9.24988 65.0407 10.4566 64.6166 11.1263 63.9827C11.7572 63.3536 12.0352 62.4133 11.9163 61.443C11.8021 60.5115 11.3092 60.0206 10.9611 59.7482C10.7436 59.578 10.1875 59.2131 8.76462 58.8365L7.17722 58.4014C6.73193 58.2985 4.65097 57.6877 3.25393 56.5595C1.8569 55.4312 1.21108 54.0136 1.01125 52.3835C0.682948 49.7056 1.53007 47.6316 2.61783 46.2372C4.4582 43.9229 7.08441 43.206 9.2932 42.9344C11.502 42.6627 14.1119 42.7751 17.0861 44.5762Z" fill="white"/>
<path d="M34.1239 49.1782L39.704 48.492L39.7657 57.9788C39.7854 60.0644 39.7316 62.5135 38.0224 64.6147C36.2113 66.8466 33.4886 67.4178 31.5123 67.6609C29.7685 67.8753 26.6929 68.1353 24.527 66.5107C23.2313 65.5669 22.3196 63.9062 22.096 62.0821C22.0104 61.3836 21.9791 60.1661 21.99 59.6132L21.9562 50.6745L27.5363 49.9883L27.5851 58.7282C27.602 59.8292 27.5721 60.2268 27.6245 60.6538C27.7387 61.5852 28.1635 62.1633 28.5939 62.4649C29.1547 62.8687 30.1568 63.0213 30.9706 62.9212C31.8618 62.8116 32.87 62.3724 33.4091 61.6364C33.6131 61.375 34.1719 60.4789 34.1523 58.3934L34.1239 49.1782Z" fill="white"/>
<path d="M49.8304 62.6505L49.7866 73.8443L44.2065 74.5305L44.2112 47.9377L49.7913 47.2515L49.7287 49.3078C50.3216 48.3682 51.064 47.686 51.6799 47.2557C52.7323 46.5353 53.8275 46.1642 55.145 46.0022C57.8188 45.6734 59.5701 46.4823 60.6095 47.2606C62.1758 48.4863 63.3621 50.7829 63.6904 53.4609C64.0948 56.7598 63.2314 59.6631 61.7357 61.5804C60.24 63.4977 58.4174 64.3522 56.1698 64.6286C54.9298 64.7811 53.598 64.8267 52.3206 64.3534C51.5368 64.0559 50.6469 63.535 49.8304 62.6505ZM53.565 51.0816C52.2087 51.2484 51.2195 51.8428 50.4717 52.8015C49.5879 53.9344 49.3431 55.1464 49.5049 56.466C49.6048 57.281 49.9365 58.3827 50.8985 59.1705C51.6429 59.7881 52.751 60.164 53.9523 60.0162C55.0761 59.878 56.1862 59.3082 56.9049 58.4319C57.7302 57.4637 58.1551 55.7962 57.9981 54.5154C57.8649 53.4287 57.2136 52.2875 56.44 51.7523C55.6616 51.1783 54.5338 50.9625 53.565 51.0816Z" fill="white"/>
<path d="M72.2152 50.9155L79.229 50.053C79.0516 49.2475 78.5112 48.3684 77.8293 47.9401C77.1474 47.5118 76.1549 47.4369 75.4574 47.5227C74.1011 47.6895 73.3587 48.3717 72.9508 48.8946C72.5816 49.4128 72.275 50.1202 72.2152 50.9155ZM84.9953 52.8107L72.0914 54.3975C72.1573 55.2561 72.5618 56.3095 73.1077 56.9121C73.9676 57.8306 75.0377 57.896 75.929 57.7864C76.5877 57.7054 77.4355 57.5617 78.0759 57.0102C78.5368 56.599 78.9209 55.882 79.0868 55.3101L84.7628 55.0848C84.2794 56.9171 83.2779 58.6949 82.1521 59.7788C80.3566 61.4967 78.0119 61.9426 76.4231 62.138C74.2918 62.4001 71.701 62.4429 69.395 60.6385C67.5241 59.1745 66.7682 57.1795 66.4827 54.8509C66.0164 51.0474 67.2572 48.3341 68.5244 46.7994C70.3743 44.5628 72.9183 43.8166 75.0883 43.5497C78.0334 43.1875 80.3563 43.8474 81.8309 44.9661C84.4366 46.97 84.9757 50.7251 84.9953 52.8107Z" fill="white"/>
<path d="M88.2866 60.0881L88.2959 42.5164L93.8759 41.8302L93.6862 44.4537C94.0955 43.3003 94.8189 42.4628 95.5755 41.897C96.5892 41.1814 97.7762 40.9172 98.3962 40.841C99.3262 40.7266 100.115 40.7478 100.716 40.8315L100.268 46.1656C99.6925 45.9606 98.8407 45.7502 97.7557 45.8836C96.3607 46.0552 95.4972 46.7129 95.0166 47.2842C94.162 48.3348 93.8968 50.022 93.8927 51.9135L93.8667 59.4019L88.2866 60.0881Z" fill="white"/>
<path d="M118.082 30.1471L118.08 35.2687L109.71 36.298L109.704 41.3808L117.454 40.4278L117.453 45.5494L109.702 46.5025L109.669 57.4586L103.701 58.1925L103.744 31.9102L118.082 30.1471Z" fill="white"/>
<path d="M121.891 55.9557L121.9 38.384L127.48 37.6978L127.29 40.3212C127.7 39.1678 128.423 38.3303 129.18 37.7645C130.193 37.049 131.38 36.7848 132 36.7085C132.93 36.5942 133.72 36.6153 134.32 36.6991L133.872 42.0331C133.297 41.8282 132.445 41.6178 131.36 41.7512C129.965 41.9227 129.101 42.5805 128.621 43.1517C127.766 44.2023 127.501 45.8895 127.497 47.781L127.471 55.2694L121.891 55.9557Z" fill="white"/>
<path d="M141.315 42.4179L148.329 41.5554C148.152 40.7499 147.611 39.8708 146.93 39.4425C146.248 39.0142 145.255 38.9393 144.558 39.0251C143.201 39.1919 142.459 39.8741 142.051 40.397C141.682 40.9152 141.375 41.6226 141.315 42.4179ZM154.096 44.3131L141.192 45.8999C141.258 46.7585 141.662 47.8119 142.208 48.4145C143.068 49.333 144.138 49.3984 145.029 49.2888C145.688 49.2078 146.536 49.0641 147.176 48.5126C147.637 48.1014 148.021 47.3844 148.187 46.8125L153.863 46.5872C153.38 48.4195 152.378 50.1973 151.252 51.2812C149.457 52.9991 147.112 53.445 145.523 53.6404C143.392 53.9025 140.801 53.9453 138.495 52.1409C136.624 50.677 135.869 48.6819 135.583 46.3533C135.117 42.5498 136.358 39.8365 137.625 38.3018C139.475 36.0652 142.019 35.319 144.189 35.0521C147.134 34.6899 149.457 35.3498 150.931 36.4685C153.537 38.4724 154.076 42.2275 154.096 44.3131Z" fill="white"/>
<path d="M162.318 39.8351L169.332 38.9726C169.155 38.1671 168.614 37.288 167.932 36.8597C167.25 36.4315 166.258 36.3565 165.56 36.4423C164.204 36.6091 163.462 37.2913 163.054 37.8142C162.685 38.3324 162.378 39.0398 162.318 39.8351ZM175.098 41.7303L162.194 43.3172C162.26 44.1758 162.665 45.2291 163.211 45.8317C164.071 46.7502 165.141 46.8156 166.032 46.706C166.691 46.625 167.538 46.4814 168.179 45.9299C168.64 45.5186 169.024 44.8016 169.19 44.2297L174.866 44.0045C174.382 45.8367 173.381 47.6145 172.255 48.6984C170.46 50.4163 168.115 50.8622 166.526 51.0576C164.395 51.3197 161.804 51.3625 159.498 49.5581C157.627 48.0942 156.871 46.0991 156.586 43.7705C156.119 39.9671 157.36 37.2537 158.627 35.7191C160.477 33.4824 163.021 32.7362 165.191 32.4693C168.136 32.1072 170.459 32.767 171.934 33.8857C174.54 35.8896 175.079 39.6447 175.098 41.7303Z" fill="white"/>
<path d="M240.687 33.2873L247.701 32.4248C247.523 31.6193 246.983 30.7403 246.301 30.312C245.619 29.8837 244.627 29.8088 243.929 29.8945C242.573 30.0613 241.831 30.7436 241.423 31.2665C241.053 31.7846 240.747 32.4921 240.687 33.2873ZM253.467 35.1825L240.563 36.7694C240.629 37.628 241.034 38.6813 241.579 39.2839C242.439 40.2025 243.509 40.2679 244.401 40.1582C245.06 40.0772 245.907 39.9336 246.548 39.3821C247.009 38.9708 247.393 38.2539 247.559 37.6819L253.235 37.4567C252.751 39.2889 251.75 41.0667 250.624 42.1507C248.828 43.8685 246.484 44.3144 244.895 44.5098C242.764 44.7719 240.173 44.8147 237.867 43.0103C235.996 41.5464 235.24 39.5514 234.955 37.2227C234.488 33.4193 235.729 30.706 236.996 29.1713C238.846 26.9346 241.39 26.1884 243.56 25.9215C246.505 25.5594 248.828 26.2192 250.303 27.3379C252.908 29.3419 253.447 33.097 253.467 35.1825Z" fill="#373737"/>
<path d="M265.961 28.3277L262.551 28.747L262.532 41.7499L256.952 42.4361L256.971 29.4332L254.956 29.681L254.946 25.1123L256.961 24.8645L256.974 19.1899L262.554 18.5037L262.541 24.1783L265.952 23.7589L265.961 28.3277Z" fill="#373737"/>
<path d="M280.774 23.118L278.834 26.8628C277.987 26.376 276.792 25.932 275.436 26.0988C274.894 26.1655 274.172 26.3725 273.827 26.7694C273.618 26.9921 273.506 27.3604 273.544 27.6709C273.582 27.9814 273.741 28.3164 274.201 28.5356C274.326 28.599 274.612 28.682 275.614 28.8346L276.936 29.0266C277.817 29.1547 279.027 29.3998 280.119 30.2897C281.12 31.0728 281.636 32.073 281.802 33.4314C282.064 35.566 281.344 37.0728 280.698 37.9007C279.076 40.07 276.392 40.6364 274.881 40.8223C273.408 41.0034 271.917 41.0292 270.281 40.5212C269.26 40.2134 268.293 39.7021 267.389 39.0647L269.291 35.0094C269.982 35.5153 270.863 35.9586 271.598 36.1833C271.801 36.2371 272.866 36.5789 274.067 36.4312C274.765 36.3454 275.293 36.1623 275.725 35.8334C276.156 35.5046 276.351 35.1655 276.284 34.6222C276.213 34.04 275.904 33.7629 275.609 33.6022C275.231 33.4122 274.674 33.3625 274.19 33.2644L272.903 33.0288C271.939 32.8715 270.72 32.5487 269.806 31.8338C269.323 31.4205 268.468 30.5407 268.263 28.8719C268.058 27.203 268.58 25.6812 269.396 24.6354C270.964 22.6697 273.624 22.2245 274.864 22.072C276.142 21.9147 278.211 21.7786 280.774 23.118Z" fill="#373737"/>
<path d="M238.072 29.8178L245.086 28.9553C244.908 28.1498 244.368 27.2708 243.686 26.8425C243.004 26.4142 242.012 26.3393 241.314 26.425C239.958 26.5918 239.216 27.2741 238.808 27.797C238.438 28.3151 238.132 29.0225 238.072 29.8178ZM250.852 31.713L237.948 33.2999C238.014 34.1585 238.419 35.2118 238.964 35.8144C239.824 36.733 240.894 36.7983 241.786 36.6887C242.445 36.6077 243.292 36.4641 243.933 35.9126C244.394 35.5013 244.778 34.7844 244.944 34.2124L250.62 33.9872C250.136 35.8194 249.135 37.5972 248.009 38.6812C246.213 40.399 243.869 40.8449 242.28 41.0403C240.149 41.3024 237.558 41.3452 235.252 39.5408C233.381 38.0769 232.625 36.0819 232.34 33.7532C231.873 29.9498 233.114 27.2365 234.381 25.7018C236.231 23.4651 238.775 22.7189 240.945 22.452C243.89 22.0899 246.213 22.7497 247.688 23.8684C250.293 25.8724 250.832 29.6275 250.852 31.713Z" fill="white"/>
<path d="M263.346 24.8582L259.936 25.2775L259.917 38.2804L254.337 38.9666L254.356 25.9637L252.341 26.2115L252.331 21.6428L254.346 21.395L254.359 15.7204L259.939 15.0342L259.926 20.7087L263.337 20.2894L263.346 24.8582Z" fill="white"/>
<path d="M278.159 19.6485L276.219 23.3933C275.372 22.9065 274.177 22.4625 272.821 22.6293C272.279 22.696 271.557 22.903 271.212 23.2999C271.003 23.5226 270.891 23.8909 270.929 24.2014C270.967 24.5119 271.126 24.8469 271.586 25.0661C271.711 25.1295 271.997 25.2125 272.999 25.3651L274.321 25.5571C275.202 25.6852 276.412 25.9303 277.504 26.8202C278.505 27.6033 279.021 28.6035 279.187 29.9619C279.449 32.0965 278.729 33.6033 278.083 34.4312C276.461 36.6005 273.777 37.1669 272.266 37.3528C270.793 37.5339 269.302 37.5597 267.666 37.0517C266.645 36.7439 265.678 36.2326 264.774 35.5952L266.676 31.5399C267.367 32.0458 268.248 32.4891 268.983 32.7138C269.186 32.7676 270.251 33.1094 271.452 32.9617C272.15 32.8759 272.678 32.6928 273.11 32.3639C273.541 32.0351 273.736 31.696 273.669 31.1526C273.598 30.5705 273.289 30.2934 272.994 30.1327C272.616 29.9427 272.059 29.893 271.575 29.7949L270.288 29.5593C269.324 29.402 268.105 29.0792 267.191 28.3643C266.708 27.951 265.853 27.0712 265.648 25.4024C265.443 23.7335 265.965 22.2117 266.781 21.1659C268.349 19.2002 271.009 18.755 272.249 18.6025C273.527 18.4452 275.596 18.3091 278.159 19.6485Z" fill="white"/>
<path d="M283.463 23.0029L280.35 23.3858L282.536 9.40732L285.103 9.09156L288.398 16.8875L291.775 8.27109L294.424 7.94539L296.565 21.3918L293.451 21.7747L292.382 13.7255L289.064 22.3143L287.891 22.4585L284.538 14.6902L283.463 23.0029Z" fill="white"/>
<path d="M298.886 7.39656L302 7.01368L301.998 20.7237L298.884 21.1066L298.886 7.39656Z" fill="white"/>
</svg>
