<svg width="52" height="52" viewBox="0 0 52 52" fill="none" xmlns="http://www.w3.org/2000/svg">
<g clip-path="url(#clip0_796_7263)">
<path d="M51.4649 20.8333L47.7368 21.5175C48.0439 23.0351 48.193 24.4825 48.193 26C48.193 38.2368 38.2368 48.2018 25.9912 48.2018C13.7456 48.2018 3.87719 38.2368 3.87719 26C3.79825 13.8333 13.7632 3.87719 25.9211 3.87719C28.6579 3.87719 31.5439 4.41228 34.1316 5.39474L35.5 1.82456C32.4561 0.605263 29.193 0 25.9211 0C11.6316 0 0 11.6316 0 26C0 40.3684 11.6316 52 25.9211 52C40.2105 52 51.9211 40.3684 51.9211 26C51.9211 24.3246 51.7719 22.5789 51.4649 20.8333Z" fill="#FAFAFA"/>
<path d="M11.8594 20.3773L15.6576 18.3948L15.7366 37.7808H20.219V13.5352H16.6489L10.8682 16.5001L11.8594 20.3773Z" fill="#FAFAFA"/>
<path d="M23.4123 19.991C23.4123 22.0437 24.4035 23.7893 26.2281 25.0875C23.7982 26.5349 22.5 28.6577 22.5 31.2454C22.5 35.3507 25.9211 38.1665 30.8597 38.1665C35.7982 38.1665 39.3772 35.0524 39.3772 30.7893C39.3772 28.2805 38.0877 26.2279 35.5789 24.8595C37.4825 23.57 38.5439 21.7454 38.5439 19.5349C38.5439 16.491 36.2632 13.1489 31.1667 13.1489C26.7544 13.1489 23.4123 16.1138 23.4123 19.991ZM31.3246 23.1138C28.1316 22.2016 27.7544 20.7542 27.7544 19.6928C27.7544 18.3244 28.7456 16.877 30.9474 16.8068C33.8333 16.8068 34.0614 19.0875 34.0614 19.7717C34.0614 21.6752 32.386 22.6577 31.3246 23.1138ZM30.4825 26.9121C33.4474 27.7454 34.7368 28.9647 34.7368 31.0963C34.7368 33.07 33.2193 34.3682 30.9386 34.4384C29.7193 34.4384 28.7368 34.0612 28.0526 33.298C27.4474 32.6138 27.0614 31.7805 27.1404 30.8682C27.1404 29.0437 28.3596 27.5963 30.4825 26.9121Z" fill="#FAFAFA"/>
<path d="M42.4211 15.202H46.5264V11.1757H50.4036V7.14934H46.5264V3.11426H42.4211V7.14934H38.5439V11.1757H42.4211V15.202Z" fill="#FAFAFA"/>
</g>
<defs>
<clipPath id="clip0_796_7263">
<rect width="51.9211" height="52" fill="white"/>
</clipPath>
</defs>
</svg>
