<svg width="176" height="39" viewBox="0 0 176 39" fill="none" xmlns="http://www.w3.org/2000/svg">
<g clip-path="url(#clip0_796_7238)">
<path d="M174.649 20.6419L165.877 17.2126C165.564 17.0971 164.921 16.9323 164.179 17.2126L155.408 20.6419C154.6 20.9551 154.056 21.7135 154.056 22.5379C154.056 31.0288 159.283 36.9147 164.179 38.8272C164.905 39.1075 165.548 38.9426 165.877 38.8272C169.785 37.3104 176 32.018 176 22.5379C176 21.6971 175.456 20.9551 174.649 20.6419ZM165.037 35.2V20.8067L172.307 23.6425C171.879 30.2704 167.658 33.947 165.037 35.2ZM144.312 19.4878C149.704 19.4878 154.056 15.1187 154.056 9.74389C154.056 4.36909 149.687 0 144.312 0C138.937 0 134.568 4.36909 134.568 9.74389C134.568 15.1187 138.937 19.4878 144.312 19.4878ZM151.632 22.5379C151.632 22.34 151.698 22.1752 151.715 21.9938C151.517 21.9938 151.336 21.9279 151.138 21.9279H149.868C148.17 22.7028 146.291 23.1479 144.312 23.1479C142.334 23.1479 140.454 22.7028 138.756 21.9279H137.487C131.831 21.9279 127.248 26.5113 127.248 32.1664V35.3319C127.248 37.3433 128.88 38.992 130.908 38.992H157.716C158.227 38.992 158.722 38.8766 159.184 38.6953C155.062 35.4143 151.632 29.7922 151.632 22.5379Z" fill="#FAFAFA"/>
<path d="M0.230469 4.56704C0.230469 3.82512 0.593185 3.4624 1.33511 3.4624H2.63759C3.37951 3.4624 3.74223 3.82512 3.74223 4.56704V9.01856H5.19309L7.74859 4.25378C8.04536 3.7262 8.47403 3.4624 9.05108 3.4624H10.4195C10.8647 3.4624 11.1614 3.5943 11.3098 3.84161C11.4582 4.08891 11.4252 4.40217 11.2109 4.79786L8.07834 10.354V10.387L11.4582 16.5202C11.6725 16.9159 11.7055 17.2291 11.5571 17.4765C11.4087 17.7238 11.112 17.8557 10.6668 17.8557H9.11703C8.53998 17.8557 8.11131 17.5919 7.81454 17.0643L5.19309 12.0192H3.74223V16.751C3.74223 17.4929 3.37951 17.8557 2.63759 17.8557H1.33511C0.593185 17.8557 0.230469 17.4929 0.230469 16.751V4.56704Z" fill="#FAFAFA"/>
<path d="M13.2559 4.56704C13.2559 3.82512 13.6186 3.4624 14.3605 3.4624H21.1532C21.8951 3.4624 22.2578 3.82512 22.2578 4.56704V5.37491C22.2578 6.11683 21.8951 6.47955 21.1532 6.47955H16.7676V9.101H20.0486C20.7905 9.101 21.1532 9.46371 21.1532 10.2056V11.0135C21.1532 11.7554 20.7905 12.1181 20.0486 12.1181H16.7676V14.8385H21.4335C22.1754 14.8385 22.5381 15.2012 22.5381 15.9432V16.751C22.5381 17.4929 22.1754 17.8557 21.4335 17.8557H14.3605C13.6186 17.8557 13.2559 17.4929 13.2559 16.751V4.56704Z" fill="#FAFAFA"/>
<path d="M24.3018 4.56704C24.3018 3.82512 24.6645 3.4624 25.4064 3.4624H32.1991C32.941 3.4624 33.3037 3.82512 33.3037 4.56704V5.37491C33.3037 6.11683 32.941 6.47955 32.1991 6.47955H27.8135V9.101H31.0945C31.8364 9.101 32.1991 9.46371 32.1991 10.2056V11.0135C32.1991 11.7554 31.8364 12.1181 31.0945 12.1181H27.8135V14.8385H32.4794C33.2213 14.8385 33.584 15.2012 33.584 15.9432V16.751C33.584 17.4929 33.2213 17.8557 32.4794 17.8557H25.4064C24.6645 17.8557 24.3018 17.4929 24.3018 16.751V4.56704Z" fill="#FAFAFA"/>
<path d="M35.3652 4.56704C35.3652 3.82512 35.728 3.4624 36.4699 3.4624H41.3336C42.026 3.4624 42.669 3.57781 43.2461 3.82512C43.8231 4.07243 44.3177 4.40217 44.7299 4.84732C45.1421 5.29247 45.4554 5.82006 45.6862 6.4136C45.917 7.02362 46.0324 7.68311 46.0324 8.40854C46.0324 9.13397 45.917 9.79346 45.6862 10.4035C45.4554 11.0135 45.1421 11.5411 44.7299 11.9862C44.3177 12.4314 43.8231 12.7776 43.2461 13.0249C42.669 13.2722 42.026 13.4041 41.3336 13.4041H38.877V16.7345C38.877 17.4765 38.5143 17.8392 37.7724 17.8392H36.4699C35.728 17.8392 35.3652 17.4765 35.3652 16.7345V4.56704ZM40.6081 10.387C41.2182 10.387 41.6798 10.2056 41.9931 9.82643C42.2898 9.46371 42.4382 8.98559 42.4382 8.40854C42.4382 7.83149 42.2898 7.36985 41.9931 7.00713C41.6963 6.64442 41.2511 6.47955 40.6741 6.47955H38.877V10.387H40.6081Z" fill="#FAFAFA"/>
<path d="M53.1875 4.56704C53.1875 3.82512 53.5502 3.4624 54.2921 3.4624H55.5946C56.3365 3.4624 56.6993 3.82512 56.6993 4.56704V16.7345C56.6993 17.4765 56.3365 17.8392 55.5946 17.8392H54.2921C53.5502 17.8392 53.1875 17.4765 53.1875 16.7345V4.56704Z" fill="#FAFAFA"/>
<path d="M62.371 6.47955H59.1066C58.3647 6.47955 58.002 6.11683 58.002 5.37491V4.56704C58.002 3.82512 58.3647 3.4624 59.1066 3.4624H69.1472C69.8892 3.4624 70.2519 3.82512 70.2519 4.56704V5.37491C70.2519 6.11683 69.8892 6.47955 69.1472 6.47955H65.8828V16.7345C65.8828 17.4765 65.5201 17.8392 64.7782 17.8392H63.4757C62.7338 17.8392 62.371 17.4765 62.371 16.7345V6.47955Z" fill="#FAFAFA"/>
<path d="M77.1924 4.56704C77.1924 3.82512 77.5551 3.4624 78.297 3.4624H84.8919C85.6338 3.4624 85.9965 3.82512 85.9965 4.56704V5.37491C85.9965 6.11683 85.6338 6.47955 84.8919 6.47955H80.7041V9.49669H83.9851C84.727 9.49669 85.0897 9.85941 85.0897 10.6013V11.4092C85.0897 12.1511 84.727 12.5138 83.9851 12.5138H80.7041V16.7345C80.7041 17.4765 80.3414 17.8392 79.5995 17.8392H78.297C77.5551 17.8392 77.1924 17.4765 77.1924 16.7345V4.56704Z" fill="#FAFAFA"/>
<path d="M87.3816 4.56704C87.3816 3.82512 87.7443 3.4624 88.4862 3.4624H89.7887C90.5306 3.4624 90.8934 3.82512 90.8934 4.56704V12.5468C90.8934 13.3052 91.1242 13.8823 91.5693 14.278C92.0145 14.6736 92.6245 14.855 93.3829 14.855C94.1413 14.855 94.7514 14.6572 95.1965 14.278C95.6417 13.8823 95.8725 13.3052 95.8725 12.5468V4.56704C95.8725 3.82512 96.2352 3.4624 96.9771 3.4624H98.2796C99.0215 3.4624 99.3842 3.82512 99.3842 4.56704V12.5468C99.3842 13.3547 99.2358 14.0966 98.9556 14.7726C98.6753 15.4485 98.2631 16.0256 97.7355 16.5202C97.2079 17.0148 96.5814 17.394 95.8395 17.6743C95.0976 17.9546 94.2897 18.0865 93.3829 18.0865C92.4761 18.0865 91.6518 17.9546 90.8934 17.6743C90.1514 17.394 89.5084 17.0148 88.9973 16.5202C88.4698 16.0256 88.0741 15.4485 87.7773 14.7726C87.497 14.0966 87.3486 13.3547 87.3486 12.5468V4.56704H87.3816Z" fill="#FAFAFA"/>
<path d="M101.429 4.56704C101.429 3.82512 101.791 3.4624 102.533 3.4624H104.1C104.71 3.4624 105.138 3.70971 105.419 4.20432L108.963 10.1727C109.112 10.42 109.244 10.6673 109.392 10.964C109.524 11.2443 109.656 11.5081 109.771 11.7719C109.903 12.0687 110.035 12.349 110.167 12.6292H110.2C110.167 12.3325 110.15 12.0357 110.117 11.7389C110.084 11.4916 110.068 11.2113 110.051 10.9311C110.035 10.6508 110.035 10.387 110.035 10.1727V4.56704C110.035 3.82512 110.398 3.4624 111.14 3.4624H112.442C113.184 3.4624 113.547 3.82512 113.547 4.56704V16.7345C113.547 17.4765 113.184 17.8392 112.442 17.8392H110.876C110.282 17.8392 109.854 17.5919 109.573 17.0973L106.012 11.1454C105.864 10.9146 105.715 10.6673 105.567 10.3705C105.419 10.0902 105.287 9.80994 105.188 9.56264C105.039 9.26587 104.907 8.98559 104.809 8.70531H104.776C104.809 9.00208 104.825 9.29884 104.858 9.59561C104.891 9.84292 104.907 10.1232 104.924 10.4035C104.94 10.6838 104.94 10.9476 104.94 11.1619V16.751C104.94 17.4929 104.578 17.8557 103.836 17.8557H102.533C101.791 17.8557 101.429 17.4929 101.429 16.751V4.56704Z" fill="#FAFAFA"/>
<path d="M116.053 15.6466C116.053 14.9047 116.415 14.542 117.157 14.542H118.246C118.987 14.542 119.35 14.9047 119.35 15.6466V16.7348C119.35 17.4767 118.987 17.8394 118.246 17.8394H117.157C116.415 17.8394 116.053 17.4767 116.053 16.7348V15.6466Z" fill="#FAFAFA"/>
<path d="M0 26.0332C0 25.3243 0.34623 24.978 1.05518 24.978H5.72103C6.397 24.978 7.00703 25.0934 7.5511 25.3243C8.11166 25.5551 8.5733 25.8848 8.96899 26.3135C9.36468 26.7422 9.66145 27.2368 9.89227 27.8138C10.1066 28.3909 10.222 29.0339 10.222 29.7263C10.222 30.4188 10.1066 31.0618 9.89227 31.6388C9.67794 32.2159 9.36468 32.727 8.96899 33.1556C8.5733 33.5843 8.11166 33.914 7.5511 34.1449C6.99054 34.3757 6.38052 34.5076 5.72103 34.5076H3.37986V37.7061C3.37986 38.415 3.03363 38.7613 2.32468 38.7613H1.07166C0.362717 38.7613 0.0164871 38.415 0.0164871 37.7061L0 26.0332ZM5.02857 31.6059C5.62211 31.6059 6.06726 31.4245 6.34754 31.0783C6.64431 30.732 6.77621 30.2704 6.77621 29.7263C6.77621 29.1822 6.62782 28.7206 6.34754 28.3909C6.06726 28.0446 5.63859 27.8798 5.07803 27.8798H3.37986V31.6223L5.02857 31.6059Z" fill="#FAFAFA"/>
<path d="M11.6893 26.0332C11.6893 25.3243 12.0356 24.978 12.7445 24.978H13.9975C14.7065 24.978 15.0527 25.3243 15.0527 26.0332V35.876H19.6196C20.3286 35.876 20.6748 36.2222 20.6748 36.9312V37.7061C20.6748 38.415 20.3286 38.7613 19.6196 38.7613H12.728C12.0191 38.7613 11.6729 38.415 11.6729 37.7061V26.0332H11.6893Z" fill="#FAFAFA"/>
<path d="M25.572 25.8518C25.7698 25.2748 26.1655 24.978 26.7755 24.978H28.5067C29.1167 24.978 29.5124 25.2748 29.7102 25.8518L33.7001 37.5577C33.832 37.9369 33.8155 38.2337 33.6506 38.448C33.4858 38.6623 33.222 38.7777 32.8263 38.7777H31.5568C30.9468 38.7777 30.5511 38.481 30.3532 37.8874L29.7762 35.876H25.473L24.896 37.8874C24.7311 38.481 24.3354 38.7777 23.7254 38.7777H22.4559C22.0767 38.7777 21.7964 38.6623 21.6315 38.448C21.4667 38.2337 21.4502 37.9369 21.5821 37.5577L25.572 25.8518ZM28.9848 33.1721L28.2099 30.4847C28.1439 30.2704 28.078 30.0231 28.0285 29.7593C27.9626 29.4955 27.9131 29.2317 27.8472 28.9844C27.7812 28.7041 27.7153 28.4073 27.6493 28.1106H27.6164C27.5504 28.4073 27.4845 28.6876 27.4185 28.9844C27.3526 29.2317 27.2866 29.479 27.2372 29.7593C27.1712 30.0231 27.1217 30.2704 27.0558 30.4847L26.2644 33.1721H28.9848Z" fill="#FAFAFA"/>
<path d="M36.1731 33.1227L32.3316 26.264C32.1172 25.8848 32.0843 25.5881 32.2327 25.3407C32.381 25.1099 32.6613 24.978 33.0735 24.978H34.5903C35.1674 24.978 35.5795 25.2418 35.8268 25.7694L37.0304 28.2919C37.1293 28.5392 37.2283 28.7701 37.3437 29.0009C37.4426 29.2317 37.5415 29.446 37.6075 29.6439C37.6899 29.8747 37.7888 30.089 37.8548 30.2869H37.8877C37.9702 30.089 38.0526 29.8747 38.135 29.6439C38.2175 29.446 38.2999 29.2317 38.3988 29.0009C38.4978 28.7701 38.5967 28.5392 38.7121 28.2919L39.8827 25.7694C40.13 25.2418 40.5422 24.978 41.1192 24.978H42.636C43.0482 24.978 43.3285 25.0934 43.4769 25.3407C43.6253 25.5716 43.5923 25.8848 43.3779 26.264L39.5364 33.1227V37.7061C39.5364 38.415 39.1902 38.7613 38.4813 38.7613H37.2283C36.5193 38.7613 36.1731 38.415 36.1731 37.7061V33.1227Z" fill="#FAFAFA"/>
<path d="M50.2031 26.0332C50.2031 25.3243 50.5494 24.978 51.2583 24.978H52.5113C53.2203 24.978 53.5665 25.3243 53.5665 26.0332V37.7061C53.5665 38.415 53.2203 38.7613 52.5113 38.7613H51.2583C50.5494 38.7613 50.2031 38.415 50.2031 37.7061V26.0332Z" fill="#FAFAFA"/>
<path d="M59.0071 27.8633H55.8745C55.1656 27.8633 54.8193 27.517 54.8193 26.8081V26.0332C54.8193 25.3243 55.1656 24.978 55.8745 24.978H65.503C66.2119 24.978 66.5582 25.3243 66.5582 26.0332V26.8081C66.5582 27.517 66.2119 27.8633 65.503 27.8633H62.3869V37.7061C62.3869 38.415 62.0407 38.7613 61.3317 38.7613H60.0787C59.3698 38.7613 59.0236 38.415 59.0236 37.7061V27.8633H59.0071Z" fill="#FAFAFA"/>
<path d="M72.972 37.6238C72.873 37.5413 72.7741 37.4589 72.7082 37.36C72.6257 37.2611 72.5763 37.1621 72.5433 37.0302C72.5103 36.9148 72.5103 36.7829 72.5433 36.6345C72.5763 36.4862 72.6587 36.3378 72.7906 36.1564L73.3841 35.2826C73.582 35.0023 73.7963 34.8375 74.0271 34.8045C74.2579 34.7715 74.5382 34.8539 74.8515 35.0188C74.9669 35.0848 75.0988 35.1672 75.2637 35.2496C75.4285 35.3321 75.6099 35.431 75.8242 35.5299C76.0386 35.6288 76.2694 35.7113 76.5332 35.7772C76.797 35.8432 77.0608 35.8761 77.3575 35.8761C77.8521 35.8761 78.2313 35.7772 78.4622 35.5959C78.693 35.4145 78.8249 35.1837 78.8249 34.9034C78.8249 34.5901 78.6765 34.3099 78.3797 34.079C78.083 33.8482 77.7038 33.6504 77.2586 33.436C76.8135 33.2382 76.3188 33.0239 75.7913 32.793C75.2637 32.5622 74.769 32.2819 74.3239 31.9522C73.8787 31.6225 73.4995 31.2103 73.2028 30.7322C72.906 30.254 72.7576 29.644 72.7576 28.9351C72.7576 28.3085 72.8895 27.7315 73.1368 27.2039C73.3841 26.6763 73.7304 26.2312 74.1755 25.8685C74.6207 25.4893 75.1318 25.209 75.7418 25.0111C76.3518 24.8133 76.9948 24.7144 77.6873 24.7144C78.4951 24.7144 79.2371 24.8298 79.913 25.0441C80.589 25.2749 81.0836 25.4893 81.4134 25.7366C81.6936 25.9344 81.8585 26.1652 81.8915 26.396C81.9245 26.6269 81.875 26.8907 81.7431 27.1709L81.2815 28.0777C81.0836 28.4569 80.8693 28.6383 80.622 28.6548C80.3747 28.6548 80.1109 28.5888 79.8471 28.4569C79.5173 28.3086 79.1876 28.1602 78.8579 28.0283C78.5116 27.8964 78.1159 27.8304 77.6708 27.8304C77.1267 27.8304 76.7475 27.9293 76.5167 28.1107C76.2859 28.2921 76.1705 28.5229 76.1705 28.8032C76.1705 29.1329 76.3188 29.4132 76.6156 29.6275C76.9124 29.8419 77.2916 30.0562 77.7367 30.2375C78.1819 30.4354 78.6765 30.6332 79.2041 30.8476C79.7317 31.0619 80.2263 31.3257 80.6714 31.6554C81.1166 31.9852 81.4958 32.3809 81.7926 32.8755C82.0893 33.3536 82.2377 33.9636 82.2377 34.6726C82.2377 35.2496 82.1388 35.7937 81.9245 36.3213C81.7101 36.8489 81.3969 37.294 80.9847 37.6897C80.5725 38.0854 80.0614 38.3987 79.4679 38.6295C78.8579 38.8603 78.1819 38.9757 77.407 38.9757C76.9124 38.9757 76.4507 38.9263 76.0056 38.8438C75.5604 38.7614 75.1483 38.646 74.769 38.5141C74.3898 38.3822 74.0436 38.2338 73.7468 38.0689C73.4006 37.9205 73.1533 37.7722 72.972 37.6238Z" fill="#FAFAFA"/>
<path d="M87.2663 25.8518C87.4641 25.2748 87.8598 24.978 88.4698 24.978H90.201C90.811 24.978 91.2067 25.2748 91.4046 25.8518L95.3944 37.5577C95.5263 37.9369 95.5098 38.2337 95.345 38.448C95.1801 38.6623 94.9163 38.7777 94.5206 38.7777H93.2511C92.6411 38.7777 92.2454 38.481 92.0476 37.8874L91.4705 35.876H87.1674L86.5903 37.8874C86.4254 38.481 86.0298 38.7777 85.4197 38.7777H84.1502C83.771 38.7777 83.4907 38.6623 83.3259 38.448C83.161 38.2337 83.1445 37.9369 83.2764 37.5577L87.2663 25.8518ZM90.6791 33.1721L89.9042 30.4847C89.8383 30.2704 89.7723 30.0231 89.7229 29.7593C89.6569 29.4955 89.6075 29.2317 89.5415 28.9844C89.4756 28.7041 89.4096 28.4073 89.3437 28.1106H89.3107C89.2447 28.4073 89.1788 28.6876 89.1128 28.9844C89.0469 29.2317 88.981 29.479 88.9315 29.7593C88.8655 30.0231 88.8161 30.2704 88.7501 30.4847L87.9587 33.1721H90.6791Z" fill="#FAFAFA"/>
<path d="M96.7793 26.0332C96.7793 25.3243 97.1255 24.978 97.8345 24.978H104.166C104.874 24.978 105.221 25.3243 105.221 26.0332V26.8081C105.221 27.517 104.874 27.8633 104.166 27.8633H100.159V30.7485H103.308C104.017 30.7485 104.363 31.0947 104.363 31.8037V32.5786C104.363 33.2875 104.017 33.6338 103.308 33.6338H100.159V37.6896C100.159 38.3985 99.8129 38.7448 99.104 38.7448H97.851C97.142 38.7448 96.7958 38.3985 96.7958 37.6896V26.0332H96.7793Z" fill="#FAFAFA"/>
<path d="M106.688 26.0332C106.688 25.3243 107.035 24.978 107.744 24.978H114.256C114.965 24.978 115.311 25.3243 115.311 26.0332V26.8081C115.311 27.517 114.965 27.8633 114.256 27.8633H110.052V30.3693H113.201C113.91 30.3693 114.256 30.7155 114.256 31.4245V32.1994C114.256 32.9083 113.91 33.2546 113.201 33.2546H110.052V35.8595H114.52C115.229 35.8595 115.575 36.2058 115.575 36.9147V37.6896C115.575 38.3985 115.229 38.7448 114.52 38.7448H107.727C107.018 38.7448 106.672 38.3985 106.672 37.6896V26.0332H106.688Z" fill="#FAFAFA"/>
<path d="M117.19 36.6675C117.19 35.9585 117.537 35.6123 118.246 35.6123H119.284C119.993 35.6123 120.339 35.9585 120.339 36.6675V37.7062C120.339 38.4151 119.993 38.7613 119.284 38.7613H118.246C117.537 38.7613 117.19 38.4151 117.19 37.7062V36.6675Z" fill="#FAFAFA"/>
</g>
<defs>
<clipPath id="clip0_796_7238">
<rect width="176" height="38.992" fill="white"/>
</clipPath>
</defs>
</svg>
