<svg width="176" height="50" viewBox="0 0 176 50" fill="none" xmlns="http://www.w3.org/2000/svg">
<path d="M110.72 18.1224V26.9099L22.3909 26.9285C20.1546 26.9285 18.3358 28.7472 18.3358 30.9835V44.9859C18.3358 47.2222 20.1546 49.041 22.3909 49.041L171.945 49.0224C174.181 49.0224 176 47.2037 176 44.9674V30.9649C176 28.7286 174.181 26.9099 171.945 26.9099H119.573L110.73 18.1317L110.72 18.1224ZM113.04 23.7178L117.921 28.5616L118.598 29.239H171.936C172.891 29.2297 173.662 29.9999 173.662 30.9557V44.9581C173.662 45.9046 172.891 46.684 171.936 46.684L22.3816 46.7026C21.4258 46.7026 20.6557 45.9324 20.6557 44.9766V30.9742C20.6557 30.0277 21.4258 29.2483 22.3816 29.2483L113.04 29.2297V23.7085V23.7178Z" fill="#3FBA91"/>
<path d="M7.1636 0.501081C7.09864 0.426847 7.00585 0.38973 6.90378 0.38973H3.22919C3.09 0.38973 2.93225 0.417567 2.7745 0.482522L0.269099 1.48468C0.0927927 1.5682 0 1.70739 0 1.91153L0.0927927 4.52829C0.0927927 4.75099 0.204144 4.86234 0.426847 4.86234H0.482522L2.83018 4.58396C2.92297 4.58396 2.97865 4.63036 2.97865 4.71387V21.3145C2.97865 21.4166 3.01576 21.5094 3.09 21.5743C3.15495 21.6485 3.24775 21.6857 3.34054 21.6857H6.90378C7.00585 21.6857 7.09864 21.6485 7.1636 21.5743C7.23783 21.5094 7.27495 21.4166 7.27495 21.3145V0.760901C7.27495 0.658829 7.23783 0.566036 7.1636 0.501081Z" fill="white"/>
<path d="M15.5985 9.60405C15.5242 9.53909 15.4407 9.50198 15.3386 9.50198H10.2814C10.1886 9.50198 10.0959 9.53909 10.0216 9.60405C9.95666 9.67828 9.91954 9.7618 9.91954 9.86387V12.8147C9.91954 12.9168 9.95666 13.0003 10.0216 13.0745C10.0959 13.1487 10.1886 13.1766 10.2814 13.1766H15.3386C15.4314 13.1766 15.5242 13.1487 15.5985 13.0745C15.6634 13.0003 15.7005 12.9168 15.7005 12.8147V9.86387C15.7005 9.77108 15.6634 9.67828 15.5985 9.60405Z" fill="white"/>
<path d="M67.8501 9.60405C67.7758 9.53909 67.6923 9.50198 67.5902 9.50198H62.533C62.4402 9.50198 62.3474 9.53909 62.2732 9.60405C62.2083 9.67828 62.1711 9.7618 62.1711 9.86387V12.8147C62.1711 12.9168 62.2083 13.0003 62.2732 13.0745C62.3474 13.1487 62.4402 13.1766 62.533 13.1766H67.5902C67.683 13.1766 67.7758 13.1487 67.8501 13.0745C67.915 13.0003 67.9521 12.9168 67.9521 12.8147V9.86387C67.9521 9.77108 67.915 9.67828 67.8501 9.60405Z" fill="white"/>
<path d="M25.1004 7.62756C25.0169 8.03585 24.8592 8.36991 24.6086 8.62045C24.3674 8.87099 24.0704 9.0009 23.7271 9.0009C23.3838 9.0009 23.0868 8.88027 22.8641 8.639C22.6229 8.39774 22.4744 8.06369 22.3909 7.66468C22.2517 7.20072 22.1775 6.72747 22.1775 6.26351C22.1775 5.79955 22.2331 5.38198 22.3631 5.02009C22.4558 4.59324 22.6321 4.26847 22.8641 4.02721C23.0961 3.79522 23.3838 3.67459 23.7271 3.67459C24.0519 3.67459 24.3303 3.79522 24.5622 4.02721C24.7942 4.25919 24.9612 4.57468 25.0633 4.95513C25.2025 5.31702 25.2675 5.76243 25.2675 6.28207C25.2675 6.77387 25.2118 7.21928 25.0912 7.61828M25.1654 16.6099C25.1097 17.111 24.9427 17.51 24.6922 17.8069C24.4416 18.1039 24.1261 18.2431 23.7364 18.2431C23.3467 18.2431 23.0312 18.1039 22.7899 17.8255C22.5486 17.5471 22.3816 17.1481 22.3074 16.6749C22.2239 16.2666 22.1775 15.784 22.1775 15.2087C22.1775 14.7076 22.2331 14.2158 22.3352 13.7519C22.4187 13.2879 22.5765 12.926 22.8177 12.6569C23.059 12.3971 23.3652 12.2672 23.7364 12.2672C24.0797 12.2672 24.3674 12.3971 24.5994 12.6477C24.8313 12.9075 24.9984 13.2508 25.1004 13.6962C25.2211 14.1416 25.2767 14.6705 25.2767 15.283C25.2767 15.6449 25.2396 16.0903 25.1561 16.6192M27.411 10.6712C27.3089 10.6155 27.2996 10.5413 27.3831 10.4577C28.1162 9.99378 28.6266 9.39991 28.9328 8.66684C29.3132 7.79459 29.5081 6.85738 29.5081 5.87378C29.5081 4.82522 29.3039 3.86946 28.9049 3.01576C28.4595 2.04144 27.7821 1.2991 26.8728 0.779459C25.9634 0.25982 24.9149 0 23.7457 0C22.5765 0 21.4908 0.269099 20.5629 0.807297C19.6442 1.33622 18.9761 2.08784 18.54 3.0436C18.1503 3.83234 17.9647 4.77883 17.9647 5.87378C17.9647 6.86666 18.1595 7.81315 18.54 8.70396C18.8462 9.43702 19.3566 10.0402 20.0618 10.532C20.1824 10.5877 20.1824 10.6526 20.0618 10.7083C19.3102 11.1722 18.7905 11.794 18.5029 12.5641C18.141 13.4178 17.9554 14.4107 17.9554 15.5428C17.9554 16.5728 18.1131 17.5007 18.4472 18.3451C18.874 19.4772 19.5514 20.3587 20.4794 20.9897C21.4166 21.6207 22.5022 21.9362 23.7364 21.9362C24.9705 21.9362 26.0562 21.6114 26.9841 20.9712C27.9213 20.3402 28.5987 19.4586 29.0256 18.3451C29.3411 17.4079 29.5081 16.48 29.5081 15.5428C29.5081 14.3643 29.3039 13.3343 28.9049 12.4713C28.5802 11.7012 28.0791 11.1073 27.4203 10.6712" fill="white"/>
<path d="M39.6132 16.1181C39.6132 16.7862 39.4555 17.3244 39.14 17.7327C38.8245 18.1317 38.4162 18.3358 37.9058 18.3358C37.3955 18.3358 36.9965 18.1317 36.6903 17.7327C36.384 17.3244 36.2356 16.7862 36.2356 16.1181V5.95729C36.2356 5.28919 36.384 4.75099 36.6903 4.35198C36.9965 3.94369 37.4048 3.73955 37.9058 3.73955C38.4069 3.73955 38.8245 3.94369 39.14 4.35198C39.4555 4.75099 39.6132 5.28919 39.6132 5.95729V16.1181ZM43.1486 2.97865C42.6568 2.04144 41.9516 1.31766 41.0422 0.816576C40.1236 0.306216 39.0843 0.0556756 37.9058 0.0556756C36.1242 0.0556756 34.6859 0.621711 33.591 1.7445C32.496 2.8673 31.9485 4.36126 31.9485 6.19856V15.8768C31.9485 17.7234 32.496 19.2081 33.591 20.3309C34.6859 21.4537 36.1242 22.0197 37.9058 22.0197C39.0843 22.0197 40.1236 21.7692 41.0422 21.2588C41.9516 20.7577 42.6568 20.034 43.1486 19.0967C43.6497 18.1688 43.9002 17.0924 43.9002 15.8768V6.19856C43.9002 4.98297 43.659 3.91585 43.1486 2.97865Z" fill="white"/>
<path d="M53.9868 16.1181C53.9868 16.7862 53.8291 17.3244 53.5229 17.7327C53.2074 18.1317 52.7991 18.3358 52.2887 18.3358C51.7784 18.3358 51.3793 18.1317 51.0731 17.7327C50.7669 17.3244 50.6184 16.7862 50.6184 16.1181V5.95729C50.6184 5.28919 50.7762 4.75099 51.0731 4.35198C51.3793 3.94369 51.7876 3.73955 52.2887 3.73955C52.7898 3.73955 53.2074 3.94369 53.5229 4.35198C53.8384 4.75099 53.9868 5.28919 53.9868 5.95729V16.1181ZM57.5315 2.97865C57.0397 2.04144 56.3345 1.31766 55.4158 0.816576C54.5065 0.306216 53.4579 0.0556756 52.2887 0.0556756C50.5071 0.0556756 49.0688 0.621711 47.9738 1.7445C46.8789 2.8673 46.3314 4.36126 46.3314 6.19856V15.8768C46.3314 17.7234 46.8789 19.2081 47.9738 20.3309C49.0688 21.4537 50.5071 22.0197 52.2887 22.0197C53.4672 22.0197 54.5065 21.7692 55.4158 21.2588C56.3345 20.7577 57.0397 20.034 57.5315 19.0967C58.0233 18.1688 58.2831 17.0924 58.2831 15.8768V6.19856C58.2831 4.98297 58.0326 3.91585 57.5315 2.97865Z" fill="white"/>
<path d="M94.927 15.283H92.1989C92.1154 15.283 92.0782 15.2273 92.0782 15.1252L93.4423 6.82955C93.4609 6.76459 93.498 6.73675 93.5351 6.73675C93.5815 6.73675 93.6093 6.76459 93.6279 6.82955L95.0569 15.1252C95.0755 15.2273 95.0383 15.283 94.927 15.283ZM100.522 21.6022L96.0776 1.04856C96.0405 0.825855 95.9106 0.714504 95.6879 0.714504H91.5772C91.3545 0.714504 91.2245 0.825855 91.1874 1.04856L86.7148 21.6022C86.6591 21.8713 86.7519 22.0012 87.021 22.0012H90.5843C90.8255 22.0012 90.9555 21.8898 90.974 21.6671L91.4658 18.7441C91.4658 18.6513 91.5215 18.5957 91.6421 18.5957H95.5023C95.6322 18.5957 95.6879 18.6513 95.6879 18.7441L96.1797 21.6671C96.1982 21.8898 96.3281 22.0012 96.5694 22.0012H100.216C100.439 22.0012 100.55 21.9084 100.55 21.7228L100.522 21.5929V21.6022Z" fill="white"/>
<path d="M117.225 0.825855C117.151 0.751621 117.058 0.723783 116.965 0.723783H113.439C113.226 0.723783 113.059 0.798018 112.984 0.965044L110.368 5.79955C110.312 5.88306 110.256 5.88306 110.182 5.79955L107.482 0.965044C107.38 0.807297 107.222 0.723783 107.018 0.723783H103.529C103.427 0.723783 103.334 0.751621 103.269 0.825855C103.195 0.89081 103.158 0.983603 103.158 1.08568V21.6485C103.158 21.7413 103.195 21.8341 103.269 21.8991C103.334 21.9733 103.427 22.0104 103.529 22.0104H107.083C107.185 22.0104 107.259 21.9733 107.343 21.8991C107.417 21.8341 107.454 21.7413 107.454 21.6485V7.99873C107.454 7.91522 107.473 7.86882 107.519 7.86882C107.547 7.86882 107.593 7.89666 107.63 7.96162L110.006 12.1651C110.099 12.3322 110.182 12.4064 110.247 12.4064C110.303 12.4064 110.386 12.3322 110.488 12.1651L112.855 7.96162C112.892 7.90594 112.938 7.86882 112.975 7.86882C113.022 7.86882 113.04 7.91522 113.04 7.99873V15.2922L117.327 19.5793V1.0764C117.327 0.974324 117.29 0.881531 117.225 0.816576" fill="white"/>
<path d="M127.961 17.5657C127.581 18.0575 127.052 18.2987 126.384 18.2987H125.048C124.945 18.2987 124.89 18.2523 124.89 18.141V12.7312C124.89 12.6291 124.945 12.5734 125.048 12.5734H126.412C127.052 12.5734 127.571 12.8425 127.961 13.3622C128.342 13.8911 128.537 14.5963 128.537 15.4871C128.537 16.3779 128.342 17.0739 127.961 17.5564M124.89 4.54684C124.89 4.45405 124.945 4.39838 125.048 4.39838H126.142C126.857 4.39838 127.395 4.62108 127.766 5.06648C128.147 5.51189 128.332 6.15216 128.332 6.98729C128.332 7.82243 128.147 8.38846 127.757 8.82459C127.377 9.26072 126.838 9.47414 126.152 9.47414H125.057C124.955 9.47414 124.899 9.41846 124.899 9.31639V4.54684H124.89ZM130.429 11.0887C130.374 11.0331 130.374 10.9588 130.457 10.9031C131.831 9.99378 132.527 8.53693 132.527 6.52333C132.527 4.50973 131.951 3.14567 130.801 2.18063C129.659 1.20631 128.073 0.723783 126.04 0.723783H120.965C120.863 0.723783 120.779 0.751621 120.705 0.825855C120.64 0.89081 120.603 0.983603 120.603 1.08568V21.6485C120.603 21.7413 120.64 21.8341 120.705 21.8991C120.779 21.9733 120.863 22.0104 120.965 22.0104H126.718C128.527 22.0104 129.984 21.5001 131.125 20.4886C132.258 19.4772 132.824 18.0296 132.824 16.1459C132.824 13.9189 132.016 12.2301 130.42 11.098" fill="white"/>
<path d="M146.408 18.4286C146.343 18.3637 146.251 18.3266 146.149 18.3266H139.987C139.885 18.3266 139.839 18.2802 139.839 18.1688V1.0764C139.839 0.974324 139.802 0.881531 139.727 0.816576C139.653 0.742342 139.57 0.714504 139.468 0.714504H135.904C135.811 0.714504 135.719 0.742342 135.644 0.816576C135.579 0.881531 135.542 0.974324 135.542 1.0764V21.6393C135.542 21.7321 135.579 21.8249 135.644 21.8898C135.719 21.964 135.811 22.0012 135.904 22.0012H146.149C146.251 22.0012 146.343 21.964 146.408 21.8898C146.483 21.8249 146.52 21.7321 146.52 21.6393V18.6885C146.52 18.5864 146.483 18.5029 146.408 18.4286Z" fill="white"/>
<path d="M153.665 4.39838H160.021C160.114 4.39838 160.207 4.36126 160.281 4.28702C160.346 4.22207 160.383 4.12928 160.383 4.02721V1.0764C160.383 0.974324 160.346 0.881531 160.281 0.816576C160.207 0.742342 160.123 0.714504 160.021 0.714504H149.786C149.48 0.714504 149.229 0.965045 149.229 1.27126V21.63C149.229 21.7228 149.266 21.8156 149.331 21.8805C149.406 21.9548 149.489 21.9919 149.591 21.9919H160.03C160.123 21.9919 160.216 21.9548 160.29 21.8805C160.355 21.8156 160.392 21.7228 160.392 21.63V18.6792C160.392 18.5771 160.355 18.4936 160.29 18.4194C160.216 18.3544 160.132 18.3173 160.03 18.3173H153.674C153.591 18.3173 153.516 18.2523 153.516 18.1595V13.325C153.516 13.2415 153.591 13.1673 153.674 13.1673H157.321C157.423 13.1673 157.506 13.1302 157.581 13.0652C157.646 12.991 157.683 12.9075 157.683 12.8054V9.85459C157.683 9.7618 157.646 9.669 157.581 9.60405C157.506 9.52982 157.423 9.4927 157.321 9.4927H153.674C153.591 9.4927 153.516 9.42774 153.516 9.33495V4.52829C153.516 4.43549 153.563 4.37982 153.674 4.37982" fill="white"/>
<path d="M170.321 9.15864C169.931 9.65045 169.421 9.90099 168.79 9.90099H167.417C167.315 9.90099 167.259 9.84531 167.259 9.74324V4.53757C167.259 4.44477 167.315 4.3891 167.417 4.3891H168.79C169.421 4.3891 169.931 4.63036 170.321 5.13144C170.72 5.63252 170.924 6.30991 170.924 7.15432C170.924 7.99873 170.72 8.64828 170.321 9.14937M175.323 21.5743L172.52 12.6013C172.52 12.6013 172.502 12.527 172.52 12.4992C172.539 12.4713 172.576 12.4435 172.613 12.4157C173.42 11.9146 174.061 11.2001 174.506 10.2907C174.961 9.38135 175.193 8.32351 175.193 7.12648C175.193 5.8645 174.951 4.75099 174.478 3.78594C174.005 2.81162 173.328 2.05072 172.455 1.51252C171.583 0.983603 170.59 0.714504 169.477 0.714504H163.334C163.232 0.714504 163.148 0.742342 163.074 0.816576C163.009 0.881531 162.972 0.974324 162.972 1.0764V21.6393C162.972 21.7321 163.009 21.8249 163.074 21.8898C163.148 21.964 163.232 22.0012 163.334 22.0012H166.897C166.999 22.0012 167.083 21.964 167.157 21.8898C167.231 21.8249 167.259 21.7321 167.259 21.6393V13.3343C167.259 13.2322 167.315 13.1766 167.417 13.1766H168.456C168.512 13.1766 168.567 13.223 168.604 13.3065L170.943 21.6949C171.008 21.8991 171.147 22.0012 171.37 22.0012H175.016C175.239 22.0012 175.35 21.8991 175.35 21.6949L175.323 21.565V21.5743Z" fill="white"/>
<path d="M84.8311 10.6248C84.7569 10.5505 84.6734 10.5041 84.5713 10.5041H79.1615C79.0594 10.5041 78.9666 10.5413 78.9017 10.6248C78.8738 10.6526 78.846 10.6804 78.846 10.699C78.8089 10.7547 78.7903 10.8011 78.7903 10.866V13.5756C78.7903 13.6405 78.7996 13.7055 78.846 13.7612C78.846 13.789 78.8738 13.8168 78.9017 13.8354C78.9666 13.9096 79.0594 13.9375 79.1615 13.9375H80.4884C80.5905 13.9375 80.6462 13.9931 80.6462 14.0952V16.5357C80.6462 17.1388 80.4791 17.6306 80.1637 18.0111C79.8389 18.3915 79.3935 18.5678 78.846 18.5678H77.881C77.3613 18.5678 76.9345 18.373 76.6004 17.9925C76.2756 17.6306 76.1179 17.1295 76.1179 16.5171V6.18928C76.1179 5.57684 76.2756 5.08504 76.6004 4.71387C76.9252 4.33342 77.352 4.13856 77.881 4.13856H78.8274C79.3749 4.13856 79.8203 4.32414 80.1451 4.69531C80.4606 5.07576 80.6276 5.55829 80.6276 6.17072V7.3863C80.6276 7.48837 80.6647 7.58117 80.7297 7.64612C80.7946 7.72036 80.8874 7.74819 80.9895 7.74819H84.5435C84.6455 7.74819 84.7291 7.72036 84.8033 7.64612C84.8682 7.58117 84.9054 7.48837 84.9054 7.3863V6.23567C84.9054 4.49117 84.3486 3.10856 83.2351 2.05072C82.1216 1.00216 80.6555 0.473243 78.846 0.463964H77.881C76.0529 0.463964 74.5961 0.983603 73.4918 2.02288C72.3876 3.06216 71.8401 4.46333 71.8401 6.20783V16.4893C71.8401 18.2338 72.3876 19.6349 73.4918 20.6742C74.5961 21.7135 76.0622 22.2331 77.881 22.2331H78.846C80.674 22.2331 82.1401 21.7135 83.2629 20.6742C84.3672 19.6349 84.9332 18.2338 84.9332 16.4893V10.8568C84.9332 10.764 84.8961 10.6712 84.8311 10.6062" fill="white"/>
<path d="M29.8978 37.5532C30.0927 37.3769 30.1948 37.1449 30.1948 36.8666C30.1948 36.5882 30.102 36.3376 29.8978 36.1613C29.703 35.985 29.4431 35.8922 29.1276 35.8922H27.9399C27.9399 35.8922 27.8842 35.9108 27.8842 35.9479V37.7666C27.8842 37.7666 27.9028 37.8223 27.9399 37.8223H29.1276C29.4431 37.8223 29.6937 37.7295 29.8978 37.5532ZM30.835 34.5653C31.234 34.7787 31.5495 35.0849 31.7722 35.4654C31.9949 35.8551 32.097 36.3005 32.097 36.8109C32.097 37.3212 31.9857 37.7481 31.7537 38.1378C31.531 38.5183 31.2062 38.8152 30.7886 39.0286C30.3711 39.2328 29.8978 39.3348 29.3503 39.3348H27.9492C27.9492 39.3348 27.8935 39.3534 27.8935 39.3905V42.165C27.8935 42.165 27.8749 42.2393 27.8564 42.2671C27.8285 42.2949 27.8007 42.3042 27.7636 42.3042H26.1304C26.1304 42.3042 26.0562 42.2949 26.0284 42.2671C26.0005 42.2393 25.9912 42.2114 25.9912 42.165V34.3797C25.9912 34.3797 26.0005 34.3055 26.0284 34.2776C26.0562 34.2498 26.0933 34.2405 26.1304 34.2405H29.4617C29.9813 34.2405 30.4453 34.3426 30.8443 34.5653" fill="white"/>
<path d="M35.2705 35.9386V37.5718C35.2705 37.5718 35.2891 37.6275 35.3262 37.6275H36.6067C36.8944 37.6275 37.1171 37.5532 37.2934 37.3955C37.4697 37.2377 37.5625 37.0243 37.5625 36.7645C37.5625 36.5047 37.4697 36.282 37.2934 36.1149C37.1171 35.9572 36.8851 35.8737 36.6067 35.8737H35.3262C35.3262 35.8737 35.2705 35.8922 35.2705 35.9294M37.5161 42.2021L36.1613 39.14C36.1613 39.14 36.1242 39.0936 36.0964 39.0936H35.3355C35.3355 39.0936 35.2798 39.1121 35.2798 39.1493V42.165C35.2798 42.165 35.2705 42.2393 35.2427 42.2578C35.2148 42.2764 35.187 42.2949 35.1499 42.2949H33.5167C33.5167 42.2949 33.4425 42.2764 33.4147 42.2578C33.3868 42.23 33.3776 42.2021 33.3776 42.165V34.3797C33.3776 34.3797 33.3868 34.3055 33.4147 34.2776C33.4425 34.2498 33.4703 34.2405 33.5167 34.2405H36.9315C37.4419 34.2405 37.8873 34.3426 38.2677 34.5467C38.6482 34.7509 38.9451 35.0478 39.1585 35.4283C39.372 35.8087 39.474 36.2448 39.474 36.7367C39.474 37.247 39.3441 37.7017 39.0936 38.0729C38.843 38.444 38.4904 38.7224 38.0357 38.8894C37.9986 38.908 37.9894 38.9358 37.9986 38.973L39.5204 42.1372C39.5204 42.1372 39.5483 42.1929 39.5483 42.2021C39.5483 42.2671 39.5019 42.2949 39.4184 42.2949H37.6924C37.6182 42.2949 37.5625 42.2578 37.5347 42.1929" fill="white"/>
<path d="M44.7911 40.4391C45.0138 40.1978 45.1344 39.8823 45.1344 39.4833V37.0985C45.1344 36.7088 45.023 36.3933 44.7911 36.1521C44.5684 35.9108 44.2621 35.7902 43.9002 35.7902C43.5384 35.7902 43.2414 35.9108 43.0187 36.1521C42.796 36.3933 42.6754 36.7088 42.6754 37.0985V39.4833C42.6754 39.8823 42.7867 40.1978 43.0187 40.4391C43.2414 40.6803 43.5384 40.801 43.9002 40.801C44.2621 40.801 44.5684 40.6803 44.7911 40.4391ZM42.2578 42.0537C41.7846 41.8031 41.4227 41.4505 41.1629 40.9958C40.903 40.5412 40.7731 40.0215 40.7731 39.4184V37.1171C40.7731 36.5325 40.903 36.0129 41.1629 35.5675C41.4227 35.1221 41.7939 34.7694 42.2578 34.5189C42.7311 34.2684 43.2785 34.1477 43.9002 34.1477C44.522 34.1477 45.0694 34.2776 45.5427 34.5189C46.0159 34.7694 46.3871 35.1221 46.6469 35.5675C46.9067 36.0129 47.0366 36.5325 47.0366 37.1171V39.4184C47.0366 40.0122 46.9067 40.5412 46.6469 40.9958C46.3871 41.4505 46.0159 41.8031 45.5427 42.0537C45.0694 42.3042 44.522 42.4248 43.9002 42.4248C43.2785 42.4248 42.7311 42.3042 42.2578 42.0537Z" fill="white"/>
<path d="M52.4186 40.4484C52.5857 40.3092 52.6692 40.105 52.6692 39.8359C52.6692 39.5668 52.5857 39.372 52.4186 39.2328C52.2516 39.0936 52.0103 39.0193 51.6948 39.0193H50.4607C50.4607 39.0193 50.405 39.0379 50.405 39.075V40.6061C50.405 40.6061 50.4236 40.6618 50.4607 40.6618H51.6948C52.0011 40.6618 52.2423 40.5875 52.4093 40.4484M50.4143 35.9386V37.3862C50.4143 37.3862 50.4329 37.4419 50.47 37.4419H51.6113C51.9268 37.4419 52.1681 37.3769 52.3351 37.2377C52.5021 37.0985 52.5856 36.913 52.5856 36.6717C52.5856 36.4304 52.5021 36.2263 52.3351 36.0871C52.1681 35.9479 51.9268 35.883 51.6113 35.883H50.47C50.47 35.883 50.4143 35.9015 50.4143 35.9386ZM53.5321 38.1842C54.2281 38.5554 54.5807 39.1678 54.5807 40.0308C54.5807 40.801 54.3116 41.367 53.7827 41.7475C53.2538 42.1279 52.5578 42.3135 51.6948 42.3135H48.6327C48.6327 42.3135 48.5584 42.3042 48.5306 42.2764C48.5028 42.2485 48.4935 42.2207 48.4935 42.1743V34.389C48.4935 34.389 48.5028 34.3148 48.5306 34.2869C48.5584 34.2591 48.5863 34.2498 48.6327 34.2498H51.602C52.5393 34.2498 53.2445 34.4261 53.727 34.7787C54.2095 35.1313 54.4508 35.7067 54.4508 36.4954C54.4508 37.2841 54.1446 37.7852 53.5321 38.1193C53.4857 38.1378 53.4857 38.1657 53.5321 38.1842Z" fill="white"/>
<path d="M56.1025 42.2671C56.1025 42.2671 56.0654 42.2114 56.0654 42.165V34.3797C56.0654 34.3797 56.0747 34.3055 56.1025 34.2776C56.1303 34.2498 56.1582 34.2405 56.2046 34.2405H57.8377C57.8377 34.2405 57.912 34.2498 57.9398 34.2776C57.9676 34.3055 57.9769 34.3426 57.9769 34.3797V40.6061C57.9769 40.6061 57.9955 40.6618 58.0326 40.6618H61.7072C61.7072 40.6618 61.7814 40.6711 61.8092 40.6989C61.8371 40.7267 61.8464 40.7546 61.8464 40.7917V42.1465C61.8464 42.1465 61.8371 42.2207 61.8092 42.2485C61.7814 42.2764 61.7536 42.2857 61.7072 42.2857H56.2046C56.2046 42.2857 56.1303 42.2671 56.1025 42.2485" fill="white"/>
<path d="M68.8058 35.8366C68.8058 35.8366 68.7501 35.8737 68.7038 35.8737H65.0848C65.0848 35.8737 65.0292 35.8922 65.0292 35.9294V37.3491C65.0292 37.3491 65.0477 37.4048 65.0848 37.4048H67.3954C67.3954 37.4048 67.4696 37.4233 67.4974 37.4419C67.5253 37.4697 67.5346 37.4975 67.5346 37.5439V38.8894C67.5346 38.8894 67.5253 38.9637 67.4974 38.9915C67.4696 39.0193 67.4418 39.0286 67.3954 39.0286H65.0848C65.0848 39.0286 65.0292 39.0472 65.0292 39.0843V40.6061C65.0292 40.6061 65.0477 40.6618 65.0848 40.6618H68.7038C68.7038 40.6618 68.778 40.6803 68.8058 40.6989C68.8337 40.7267 68.8429 40.7639 68.8429 40.801V42.1557C68.8429 42.1557 68.8337 42.23 68.8058 42.2578C68.778 42.2857 68.7501 42.2949 68.7038 42.2949H63.2568C63.2568 42.2949 63.1826 42.2857 63.1547 42.2578C63.1269 42.23 63.1176 42.2021 63.1176 42.1557V34.3704C63.1176 34.3704 63.1362 34.2962 63.1547 34.2776C63.1826 34.2498 63.2104 34.2405 63.2568 34.2405H68.7038C68.7038 34.2405 68.778 34.2498 68.8058 34.2776C68.8337 34.3055 68.8429 34.3333 68.8429 34.3704V35.7252C68.8429 35.7252 68.8337 35.7994 68.8058 35.8273" fill="white"/>
<path d="M75.5611 34.2498H77.185C77.185 34.2498 77.2592 34.2684 77.2778 34.2869C77.3056 34.3148 77.3149 34.3519 77.3149 34.389V42.1743C77.3149 42.1743 77.3056 42.2485 77.2778 42.2764C77.25 42.3042 77.2221 42.3135 77.185 42.3135H75.5519C75.5519 42.3135 75.4776 42.3042 75.4591 42.2764C75.4312 42.2485 75.4219 42.2207 75.4219 42.1743V37.5439C75.4219 37.5439 75.4219 37.4975 75.4034 37.4975C75.3848 37.4975 75.3755 37.5068 75.357 37.5347L74.3641 39.1214C74.3363 39.1864 74.2806 39.2142 74.2064 39.2142H73.3898C73.3155 39.2142 73.2599 39.1864 73.232 39.1214L72.2299 37.5254C72.2299 37.5254 72.202 37.4883 72.1835 37.4883C72.1649 37.4883 72.1649 37.5068 72.1649 37.5347V42.1743C72.1649 42.1743 72.1464 42.2485 72.1278 42.2764C72.1 42.3042 72.0721 42.3135 72.035 42.3135H70.4019C70.4019 42.3135 70.3276 42.3042 70.2998 42.2764C70.2719 42.2485 70.2627 42.2207 70.2627 42.1743V34.389C70.2627 34.389 70.2719 34.3148 70.2998 34.2869C70.3276 34.2591 70.3555 34.2498 70.4019 34.2498H72.0257C72.1 34.2498 72.1464 34.2776 72.1835 34.3426L73.7795 36.848C73.8074 36.8944 73.8259 36.8944 73.8445 36.848L75.4219 34.3426C75.4498 34.2776 75.5055 34.2498 75.5797 34.2498" fill="white"/>
<path d="M83.0124 42.0258C82.5484 41.7753 82.1865 41.432 81.9267 40.9866C81.6669 40.5412 81.537 40.0308 81.537 39.4462V37.0893C81.537 36.5047 81.6669 35.9943 81.9267 35.5489C82.1865 35.1128 82.5484 34.7602 83.0124 34.5189C83.4764 34.2684 84.0146 34.1477 84.627 34.1477C85.2394 34.1477 85.7683 34.2684 86.2416 34.5003C86.7055 34.7323 87.0674 35.0571 87.3273 35.4654C87.5871 35.8737 87.717 36.3191 87.717 36.8109V36.8666C87.717 36.8666 87.7077 36.9408 87.6799 36.9594C87.652 36.9872 87.6242 36.9965 87.5778 36.9965H85.9446C85.9446 36.9965 85.8704 36.9872 85.8426 36.9594C85.8147 36.9315 85.8055 36.9037 85.8055 36.8666C85.8055 36.5696 85.7034 36.3098 85.49 36.0964C85.2765 35.883 84.9889 35.7809 84.627 35.7809C84.2651 35.7809 83.9867 35.8922 83.7733 36.1242C83.5599 36.3562 83.4485 36.6531 83.4485 37.0243V39.5019C83.4485 39.873 83.5691 40.17 83.8011 40.402C84.0424 40.6339 84.3393 40.7453 84.7012 40.7453C85.0353 40.7453 85.3137 40.6525 85.5178 40.4762C85.7219 40.2999 85.8333 40.0494 85.8333 39.7246V39.3998C85.8333 39.3998 85.8147 39.3441 85.7776 39.3441H84.627C84.627 39.3441 84.5528 39.3256 84.5342 39.307C84.5064 39.2792 84.4971 39.2421 84.4971 39.2049V37.943C84.4971 37.943 84.5156 37.8687 84.5342 37.8409C84.562 37.813 84.5899 37.8038 84.627 37.8038H87.5778C87.5778 37.8038 87.652 37.813 87.6799 37.8409C87.7077 37.8687 87.717 37.8966 87.717 37.943V39.5112C87.717 40.0865 87.5871 40.5968 87.3273 41.033C87.0674 41.4691 86.7055 41.8124 86.2416 42.0444C85.7776 42.2857 85.2394 42.4063 84.627 42.4063C84.0146 42.4063 83.4764 42.2857 83.0124 42.0351" fill="white"/>
<path d="M91.039 39.6503H92.7556C92.7556 39.6503 92.8206 39.6318 92.802 39.5854L91.9298 36.6253C91.9298 36.6253 91.9112 36.5789 91.8927 36.5882C91.8741 36.5882 91.8648 36.6067 91.8555 36.6253L90.9926 39.5854C90.9926 39.5854 90.9926 39.6503 91.039 39.6503ZM93.5722 42.1929L93.2753 41.1721C93.2753 41.1721 93.2382 41.1257 93.2196 41.1257H90.5936C90.5936 41.1257 90.5564 41.1443 90.5379 41.1721L90.2409 42.1929C90.2224 42.2671 90.1667 42.3042 90.0832 42.3042H88.3201C88.3201 42.3042 88.2366 42.2949 88.2181 42.2671C88.1902 42.2393 88.1902 42.2021 88.2088 42.1465L90.6771 34.3612C90.6956 34.2869 90.7513 34.2498 90.8255 34.2498H93.0062C93.0804 34.2498 93.1361 34.2869 93.1546 34.3612L95.6322 42.1465C95.6322 42.1465 95.6415 42.1836 95.6415 42.2021C95.6415 42.2671 95.5951 42.3042 95.5116 42.3042H93.7485C93.665 42.3042 93.6093 42.2671 93.5908 42.1929" fill="white"/>
<path d="M102.026 34.2498H103.649C103.649 34.2498 103.724 34.2684 103.742 34.2869C103.77 34.3148 103.779 34.3519 103.779 34.389V42.1743C103.779 42.1743 103.77 42.2485 103.742 42.2764C103.714 42.3042 103.687 42.3135 103.649 42.3135H102.016C102.016 42.3135 101.942 42.3042 101.924 42.2764C101.896 42.2485 101.886 42.2207 101.886 42.1743V37.5439C101.886 37.5439 101.886 37.4975 101.868 37.4975C101.849 37.4975 101.84 37.5068 101.821 37.5347L100.829 39.1214C100.801 39.1864 100.745 39.2142 100.671 39.2142H99.8543C99.78 39.2142 99.7244 39.1864 99.6965 39.1214L98.6944 37.5254C98.6944 37.5254 98.6665 37.4883 98.648 37.4883C98.6294 37.4883 98.6294 37.5068 98.6294 37.5347V42.1743C98.6294 42.1743 98.6109 42.2485 98.5923 42.2764C98.5645 42.3042 98.5366 42.3135 98.4995 42.3135H96.8663C96.8663 42.3135 96.7921 42.3042 96.7643 42.2764C96.7364 42.2485 96.7272 42.2207 96.7272 42.1743V34.389C96.7272 34.389 96.7364 34.3148 96.7643 34.2869C96.7921 34.2591 96.8199 34.2498 96.8663 34.2498H98.4902C98.5645 34.2498 98.6109 34.2776 98.648 34.3426L100.244 36.848C100.272 36.8944 100.29 36.8944 100.309 36.848L101.886 34.3426C101.914 34.2776 101.97 34.2498 102.044 34.2498" fill="white"/>
<path d="M109.291 40.4484C109.458 40.3092 109.542 40.105 109.542 39.8359C109.542 39.5668 109.458 39.372 109.291 39.2328C109.124 39.0936 108.883 39.0193 108.568 39.0193H107.333C107.333 39.0193 107.278 39.0379 107.278 39.075V40.6061C107.278 40.6061 107.296 40.6618 107.333 40.6618H108.568C108.874 40.6618 109.115 40.5875 109.282 40.4484M107.287 35.9386V37.3862C107.287 37.3862 107.306 37.4419 107.343 37.4419H108.484C108.799 37.4419 109.041 37.3769 109.208 37.2377C109.375 37.0985 109.458 36.913 109.458 36.6717C109.458 36.4304 109.375 36.2263 109.208 36.0871C109.041 35.9479 108.799 35.883 108.484 35.883H107.343C107.343 35.883 107.287 35.9015 107.287 35.9386ZM110.405 38.1842C111.101 38.5554 111.453 39.1678 111.453 40.0308C111.453 40.801 111.184 41.367 110.655 41.7475C110.126 42.1279 109.43 42.3135 108.568 42.3135H105.505C105.505 42.3135 105.431 42.3042 105.403 42.2764C105.375 42.2485 105.366 42.2207 105.366 42.1743V34.389C105.366 34.389 105.375 34.3148 105.403 34.2869C105.431 34.2591 105.459 34.2498 105.505 34.2498H108.475C109.412 34.2498 110.117 34.4261 110.6 34.7787C111.082 35.1313 111.323 35.7067 111.323 36.4954C111.323 37.2841 111.017 37.7852 110.405 38.1193C110.358 38.1378 110.358 38.1657 110.405 38.1842Z" fill="white"/>
<path d="M112.984 42.2671C112.984 42.2671 112.947 42.2114 112.947 42.165V34.3797C112.947 34.3797 112.966 34.3055 112.984 34.2776C113.012 34.2498 113.04 34.2405 113.087 34.2405H114.72C114.72 34.2405 114.794 34.2498 114.822 34.2776C114.85 34.3055 114.859 34.3426 114.859 34.3797V40.6061C114.859 40.6061 114.877 40.6618 114.915 40.6618H118.589C118.589 40.6618 118.663 40.6711 118.691 40.6989C118.719 40.7267 118.728 40.7546 118.728 40.7917V42.1465C118.728 42.1465 118.719 42.2207 118.691 42.2485C118.663 42.2764 118.636 42.2857 118.589 42.2857H113.087C113.087 42.2857 113.012 42.2671 112.984 42.2485" fill="white"/>
<path d="M120.037 42.2671C120.037 42.2671 120 42.2114 120 42.165V34.3797C120 34.3797 120.018 34.3055 120.037 34.2776C120.065 34.2498 120.092 34.2405 120.139 34.2405H121.772C121.772 34.2405 121.846 34.2498 121.874 34.2776C121.902 34.3055 121.911 34.3426 121.911 34.3797V42.165C121.911 42.165 121.902 42.2393 121.874 42.2671C121.846 42.2949 121.818 42.3042 121.772 42.3042H120.139C120.139 42.3042 120.065 42.2857 120.037 42.2671Z" fill="white"/>
<path d="M128.119 34.2869C128.119 34.2869 128.175 34.2498 128.221 34.2498H129.854C129.854 34.2498 129.928 34.2591 129.956 34.2869C129.984 34.3148 129.993 34.3426 129.993 34.389V42.1743C129.993 42.1743 129.984 42.2485 129.956 42.2764C129.928 42.3042 129.901 42.3135 129.854 42.3135H128.286C128.212 42.3135 128.156 42.2857 128.128 42.2207L125.484 37.8223C125.484 37.8223 125.456 37.7852 125.437 37.7945C125.419 37.7945 125.409 37.813 125.409 37.8502V42.1836C125.409 42.1836 125.409 42.2578 125.382 42.2857C125.354 42.3135 125.326 42.3228 125.289 42.3228H123.656C123.656 42.3228 123.581 42.3135 123.554 42.2857C123.526 42.2578 123.516 42.23 123.516 42.1836V34.3983C123.516 34.3983 123.526 34.324 123.554 34.2962C123.581 34.2684 123.609 34.2591 123.656 34.2591H125.233C125.307 34.2591 125.363 34.2869 125.391 34.3519L128.026 38.741C128.026 38.741 128.054 38.7781 128.073 38.7688C128.091 38.7688 128.1 38.7503 128.1 38.7131V34.3983C128.1 34.3983 128.1 34.324 128.128 34.2962" fill="white"/>
<path d="M132.935 42.0258C132.471 41.7753 132.109 41.432 131.849 40.9866C131.589 40.5412 131.469 40.0308 131.469 39.4462V37.0893C131.469 36.5047 131.599 35.9943 131.849 35.5489C132.109 35.1128 132.471 34.7602 132.935 34.5189C133.399 34.2684 133.937 34.1477 134.549 34.1477C135.162 34.1477 135.691 34.2684 136.164 34.5003C136.637 34.7323 136.999 35.0571 137.25 35.4654C137.51 35.8737 137.639 36.3191 137.639 36.8109V36.8666C137.639 36.8666 137.63 36.9408 137.602 36.9594C137.575 36.9872 137.547 36.9965 137.5 36.9965H135.867C135.867 36.9965 135.793 36.9872 135.765 36.9594C135.737 36.9315 135.728 36.9037 135.728 36.8666C135.728 36.5696 135.626 36.3098 135.412 36.0964C135.199 35.883 134.911 35.7809 134.549 35.7809C134.188 35.7809 133.909 35.8922 133.696 36.1242C133.482 36.3562 133.371 36.6531 133.371 37.0243V39.5019C133.371 39.873 133.492 40.17 133.733 40.402C133.974 40.6339 134.271 40.7453 134.633 40.7453C134.967 40.7453 135.245 40.6525 135.45 40.4762C135.654 40.2999 135.765 40.0494 135.765 39.7246V39.3998C135.765 39.3998 135.747 39.3441 135.709 39.3441H134.559C134.559 39.3441 134.485 39.3256 134.466 39.307C134.438 39.2792 134.429 39.2421 134.429 39.2049V37.943C134.429 37.943 134.447 37.8687 134.466 37.8409C134.494 37.813 134.522 37.8038 134.559 37.8038H137.51C137.51 37.8038 137.584 37.813 137.612 37.8409C137.639 37.8687 137.649 37.8966 137.649 37.943V39.5112C137.649 40.0865 137.519 40.5968 137.259 41.033C136.999 41.4691 136.637 41.8124 136.173 42.0444C135.709 42.2857 135.171 42.4063 134.559 42.4063C133.946 42.4063 133.408 42.2857 132.944 42.0351" fill="white"/>
<path d="M146.084 34.2869C146.084 34.2869 146.139 34.2498 146.176 34.2498H147.81C147.81 34.2498 147.884 34.2591 147.912 34.2869C147.939 34.3148 147.949 34.3426 147.949 34.389V42.1743C147.949 42.1743 147.939 42.2485 147.912 42.2764C147.884 42.3042 147.856 42.3135 147.81 42.3135H146.176C146.176 42.3135 146.102 42.3042 146.084 42.2764C146.065 42.2485 146.047 42.2207 146.047 42.1743V39.1121C146.047 39.1121 146.028 39.0565 145.991 39.0565H143.838C143.838 39.0565 143.782 39.075 143.782 39.1121V42.1743C143.782 42.1743 143.773 42.2485 143.745 42.2764C143.717 42.3042 143.69 42.3135 143.643 42.3135H142.01C142.01 42.3135 141.936 42.3042 141.908 42.2764C141.88 42.2485 141.871 42.2207 141.871 42.1743V34.389C141.871 34.389 141.88 34.3148 141.908 34.2869C141.936 34.2591 141.964 34.2498 142.01 34.2498H143.643C143.643 34.2498 143.717 34.2591 143.745 34.2869C143.773 34.3148 143.782 34.3426 143.782 34.389V37.3584C143.782 37.3584 143.801 37.414 143.838 37.414H145.991C145.991 37.414 146.047 37.3955 146.047 37.3584V34.389C146.047 34.389 146.056 34.3148 146.084 34.2869Z" fill="white"/>
<path d="M155.131 35.8366C155.131 35.8366 155.075 35.8737 155.029 35.8737H151.41C151.41 35.8737 151.354 35.8922 151.354 35.9294V37.3491C151.354 37.3491 151.373 37.4048 151.41 37.4048H153.72C153.72 37.4048 153.795 37.4233 153.823 37.4419C153.85 37.4697 153.86 37.4975 153.86 37.5439V38.8894C153.86 38.8894 153.85 38.9637 153.823 38.9915C153.795 39.0193 153.767 39.0286 153.72 39.0286H151.41C151.41 39.0286 151.354 39.0472 151.354 39.0843V40.6061C151.354 40.6061 151.373 40.6618 151.41 40.6618H155.029C155.029 40.6618 155.103 40.6803 155.131 40.6989C155.159 40.7267 155.168 40.7639 155.168 40.801V42.1557C155.168 42.1557 155.159 42.23 155.131 42.2578C155.103 42.2857 155.075 42.2949 155.029 42.2949H149.582C149.582 42.2949 149.508 42.2857 149.48 42.2578C149.452 42.23 149.443 42.2021 149.443 42.1557V34.3704C149.443 34.3704 149.461 34.2962 149.48 34.2776C149.508 34.2498 149.536 34.2405 149.582 34.2405H155.029C155.029 34.2405 155.103 34.2498 155.131 34.2776C155.159 34.3055 155.168 34.3333 155.168 34.3704V35.7252C155.168 35.7252 155.159 35.7994 155.131 35.8273" fill="white"/>
<path d="M156.597 42.2671C156.597 42.2671 156.56 42.2114 156.56 42.165V34.3797C156.56 34.3797 156.569 34.3055 156.597 34.2776C156.625 34.2498 156.653 34.2405 156.699 34.2405H158.332C158.332 34.2405 158.407 34.2498 158.434 34.2776C158.462 34.3055 158.471 34.3426 158.471 34.3797V40.6061C158.471 40.6061 158.49 40.6618 158.527 40.6618H162.202C162.202 40.6618 162.276 40.6711 162.295 40.6989C162.322 40.7267 162.332 40.7546 162.332 40.7917V42.1465C162.332 42.1465 162.322 42.2207 162.295 42.2485C162.267 42.2764 162.239 42.2857 162.202 42.2857H156.699C156.699 42.2857 156.625 42.2671 156.597 42.2485" fill="white"/>
<path d="M167.5 37.5532C167.695 37.3769 167.797 37.1449 167.797 36.8666C167.797 36.5882 167.704 36.3376 167.5 36.1613C167.305 35.985 167.046 35.8922 166.739 35.8922H165.552C165.552 35.8922 165.496 35.9108 165.496 35.9479V37.7666C165.496 37.7666 165.514 37.8223 165.552 37.8223H166.739C167.055 37.8223 167.305 37.7295 167.5 37.5532ZM168.428 34.5653C168.827 34.7787 169.143 35.0849 169.365 35.4654C169.579 35.8551 169.69 36.3005 169.69 36.8109C169.69 37.3212 169.579 37.7481 169.347 38.1378C169.124 38.5183 168.799 38.8152 168.382 39.0286C167.964 39.2328 167.491 39.3348 166.943 39.3348H165.542C165.542 39.3348 165.487 39.3534 165.487 39.3905V42.165C165.487 42.165 165.468 42.2393 165.449 42.2671C165.422 42.2949 165.394 42.3042 165.357 42.3042H163.724C163.724 42.3042 163.649 42.2949 163.621 42.2671C163.594 42.2393 163.584 42.2114 163.584 42.165V34.3797C163.584 34.3797 163.594 34.3055 163.621 34.2776C163.649 34.2498 163.677 34.2405 163.724 34.2405H167.055C167.574 34.2405 168.038 34.3426 168.437 34.5653" fill="white"/>
</svg>
