<svg width="52" height="52" viewBox="0 0 52 52" fill="none" xmlns="http://www.w3.org/2000/svg">
<g clip-path="url(#clip0_1121_13712)">
<path d="M51.2239 20.8259L47.4726 21.4726C47.7313 23.0249 47.99 24.4478 47.99 26C47.99 38.1592 38.0298 48.1194 25.8706 48.1194C13.7114 48.1194 3.8806 38.1592 3.8806 26C3.75124 13.8408 13.7114 3.8806 25.8706 3.8806C28.5871 3.8806 31.4328 4.39801 34.0199 5.43284L35.4428 1.81095C32.4677 0.646766 29.1045 0 25.8706 0C11.6418 0 0 11.6418 0 26C0 40.3582 11.6418 52 25.8706 52C40.0995 52 51.7413 40.3582 51.7413 26C51.6119 24.3184 51.4826 22.6368 51.2239 20.8259Z" fill="white"/>
<path d="M42.1687 15.2637H46.308V11.2537H50.1886V7.2438H46.308V3.10449H42.1687V7.11444H38.2881V11.1244H42.1687V15.2637Z" fill="white"/>
<path d="M21.4471 19.0409C20.8908 18.3812 20.1018 18.0449 19.067 18.0449C17.657 18.0449 16.6869 18.5752 16.1824 19.623C15.8849 20.231 15.7167 21.2011 15.665 22.5334H11.1376C11.2152 20.5155 11.5774 18.8857 12.2371 17.6439C13.4789 15.2767 15.6779 14.0996 18.8471 14.0996C21.3565 14.0996 23.3486 14.7981 24.8232 16.1822C26.2978 17.5663 27.0481 19.4031 27.0481 21.6926C27.0481 23.4518 26.5306 25.0041 25.4829 26.3623C24.7973 27.2678 23.6719 28.2767 22.1068 29.3892L20.2441 30.7086C19.0799 31.5364 18.2779 32.1315 17.851 32.5066C17.4242 32.8817 17.062 33.3086 16.7645 33.8001H27.0998V37.9006H10.8789C10.9177 36.2061 11.2928 34.6538 11.9784 33.2439C12.6381 31.6658 14.2162 29.9971 16.6869 28.225C18.8341 26.6857 20.2182 25.5862 20.852 24.9265C21.8222 23.8917 22.3008 22.7533 22.3008 21.5245C22.3008 20.5285 22.0292 19.6877 21.4729 19.028L21.4471 19.0409Z" fill="white"/>
<path d="M39.0651 37.9004H34.2919V21.5631H28.7168V18.3939C30.1914 18.3293 31.2133 18.2258 31.8083 18.0964C32.7397 17.8895 33.5029 17.4755 34.0979 16.8546C34.4989 16.4278 34.8093 15.8586 35.0163 15.1601C35.1327 14.7332 35.1974 14.4228 35.1974 14.2158H39.0651V37.9004Z" fill="white"/>
</g>
<defs>
<clipPath id="clip0_1121_13712">
<rect width="51.7413" height="52" fill="white"/>
</clipPath>
</defs>
</svg>
