<svg width="65" height="52" viewBox="0 0 65 52" fill="none" xmlns="http://www.w3.org/2000/svg">
<g clip-path="url(#clip0_1121_13978)">
<path d="M8.1744 33.3216L3.2864 23.608V32.24C3.2656 32.4064 3.328 32.5936 3.4112 32.7184C3.536 32.8432 3.7232 32.9472 3.8896 32.9888V33.3216H0V32.9888C0.1872 32.9472 0.3536 32.864 0.4784 32.7184C0.5824 32.5728 0.624 32.4064 0.624 32.24V20.3424C0.6448 20.176 0.5824 20.0096 0.4784 19.864C0.3536 19.7392 0.1664 19.6352 0 19.5936V19.2608H5.1168V19.5936C4.8464 19.6352 4.6384 19.8848 4.6592 20.1552C4.6592 20.3216 4.7216 20.488 4.784 20.6336L8.4032 27.8928L12.0848 20.7584C12.2096 20.5504 12.2928 20.3216 12.3344 20.072C12.3344 19.8016 12.168 19.6352 11.856 19.5936V19.2608H16.8688V19.5936C16.6816 19.6352 16.5152 19.7184 16.3904 19.864C16.2864 20.0096 16.2448 20.176 16.2448 20.3424V32.24C16.224 32.4064 16.2864 32.5936 16.3904 32.7184C16.5152 32.8432 16.7024 32.9472 16.8688 32.9888V33.3216H12.7296V32.9888C12.9168 32.9472 13.0832 32.864 13.208 32.7184C13.312 32.5728 13.3536 32.4064 13.3536 32.2192V23.5872L8.1744 33.3216ZM29.7232 28.2672H26.2496C26.0832 28.2464 25.9168 28.3088 25.7712 28.4128C25.6464 28.5584 25.5424 28.7456 25.5008 28.9328H25.168V25.6672H25.5008C25.5424 25.8544 25.6256 26.0416 25.7712 26.1872C25.9168 26.2912 26.0832 26.3328 26.2496 26.3328H32.9056V26.6656C32.7184 26.7072 32.5312 26.7904 32.3856 26.936C32.2816 27.0816 32.2192 27.248 32.24 27.4144V30.3056C32.2192 30.472 32.2816 30.6592 32.3856 30.784C32.5312 30.9296 32.6976 31.0128 32.9056 31.0544V31.304C30.2432 32.8224 27.6432 33.592 25.1472 33.592C22.88 33.592 21.0288 33.0512 19.5936 31.9696C17.784 30.6176 16.8896 28.7248 16.8896 26.312C16.8896 24.0656 17.7008 22.2768 19.3024 20.9456C20.8208 19.6768 22.8592 19.0528 25.376 19.0528C26.1456 19.0528 26.8944 19.1152 27.6432 19.2816C28.4752 19.4688 29.2864 19.7184 30.0768 20.0304C30.3888 20.176 30.7216 20.28 31.0752 20.3008C31.2624 20.28 31.4496 20.1968 31.5744 20.072L31.8656 20.2176L30.2224 23.5872L29.9312 23.4416C29.9312 23.2752 29.9104 23.1088 29.848 22.9632C29.744 22.8176 29.6192 22.6928 29.4736 22.6096C28.912 22.2352 28.288 21.9648 27.6224 21.7984C26.8736 21.5904 26.104 21.4656 25.3344 21.4656C23.8576 21.4656 22.6512 21.8816 21.6736 22.6928C20.592 23.6288 20.0304 24.856 20.0304 26.3952C20.0304 27.872 20.5712 29.0784 21.632 29.9936C22.6096 30.8256 23.8784 31.2416 25.48 31.2416C26.2496 31.2416 27.0192 31.1584 27.768 30.9712C28.4544 30.8256 29.0992 30.576 29.7232 30.2432V28.2672ZM47.1328 28.496L49.088 31.4288L48.8176 31.616C48.6928 31.4704 48.5264 31.3872 48.3392 31.3456C48.2144 31.3456 47.8816 31.512 47.2992 31.8448C46.3632 32.4064 45.3648 32.8848 44.3456 33.2176C43.4096 33.4672 42.4528 33.592 41.4752 33.5712C39.2704 33.5712 37.4608 33.0512 36.0464 31.9904C35.2144 31.3872 34.5488 30.5968 34.0912 29.7024C33.5296 28.6416 33.2384 27.4768 33.2592 26.2704C33.2176 24.6688 33.7584 23.088 34.736 21.84C36.2336 19.9472 38.48 19.0112 41.4752 19.0112C42.432 18.9904 43.3888 19.1152 44.3248 19.3648C45.3648 19.7184 46.3632 20.176 47.2992 20.7376C47.8608 21.0704 48.2144 21.216 48.3392 21.216C48.5264 21.1744 48.6928 21.0912 48.8176 20.9456L49.088 21.1328L47.1328 24.0656L46.8624 23.8784C46.8832 23.7952 46.8832 23.6912 46.8832 23.608C46.8832 23.4 46.7792 23.192 46.6336 23.0464C46.3632 22.7968 46.0512 22.5888 45.7184 22.4224C44.5536 21.7568 43.2224 21.4032 41.8704 21.4032C40.2688 21.4032 39 21.7984 38.0432 22.6096C36.9408 23.504 36.3168 24.8768 36.3584 26.2912C36.3168 27.7056 36.9408 29.0784 38.0432 29.9728C39 30.784 40.2688 31.1792 41.8704 31.1792C43.2224 31.1792 44.5328 30.8256 45.6976 30.16C46.0304 29.9936 46.3424 29.7856 46.6128 29.536C46.7792 29.3904 46.8624 29.1824 46.8624 28.9744C46.8624 28.8912 46.8624 28.7872 46.8416 28.704L47.1328 28.496ZM62.0048 25.9584C63.5856 26.5616 64.376 27.664 64.376 29.2656C64.376 30.5552 63.9184 31.5536 63.0032 32.2816C62.5248 32.656 61.9632 32.9264 61.3808 33.072C60.632 33.2384 59.8624 33.3216 59.0928 33.3216H49.4832V32.9888C49.6704 32.9472 49.8576 32.864 50.0032 32.7184C50.1072 32.5728 50.1696 32.4064 50.1488 32.24V20.3424C50.1696 20.176 50.1072 19.9888 50.0032 19.864C49.8576 19.7184 49.6912 19.6352 49.4832 19.5936V19.2608H59.0096C59.7584 19.24 60.4864 19.3232 61.2144 19.4688C61.7344 19.5936 62.2336 19.8432 62.6704 20.176C63.5024 20.8208 63.9184 21.7776 63.9184 23.0048C63.9184 24.3776 63.2736 25.3552 62.0048 25.9584ZM53.2064 24.856H58.5936C59.4048 24.856 59.9872 24.7312 60.2992 24.5024C60.6736 24.232 60.84 23.7952 60.84 23.2336C60.84 22.672 60.6736 22.2352 60.32 21.9648C59.9872 21.7152 59.4048 21.5904 58.5728 21.5904H53.1856L53.2064 24.856ZM53.2064 31.0128H58.4064C59.384 31.0128 60.0704 30.888 60.4864 30.6176C60.9648 30.3056 61.2144 29.8064 61.2144 29.0992C61.2144 28.392 60.9648 27.8928 60.4864 27.5808C60.0704 27.3104 59.3632 27.1856 58.4064 27.1856H53.2064V31.0128ZM16.12 40.4352C15.4752 40.5392 14.976 41.0384 14.872 41.6832C14.872 41.9536 14.976 42.224 15.184 42.3904C15.3712 42.5984 15.6208 42.7024 15.8912 42.6816C16.2032 42.6608 16.5152 42.5152 16.7232 42.2656C16.952 42.0576 17.1184 41.7664 17.1392 41.4544C17.1392 40.9136 16.6816 40.456 16.12 40.4352ZM25.7712 45.9264C25.7088 45.9056 25.5424 45.8432 25.2512 45.76L24.6896 45.5936L24.4608 46.4256L24.9808 46.5712C25.1888 46.6336 25.3968 46.696 25.6256 46.7168C25.8128 46.7168 25.9584 46.592 26 46.4048C26.0416 46.3008 26.0208 46.1968 25.9792 46.1136C25.9584 46.0512 25.8752 45.968 25.7712 45.9264ZM28.9952 46.4672C28.7248 46.4256 28.4544 46.5088 28.2464 46.6752C28.0176 46.904 27.8928 47.1952 27.872 47.528C27.8096 47.84 27.8928 48.1728 28.0592 48.4224C28.4128 48.8592 29.0576 48.9216 29.4944 48.568C29.7232 48.3392 29.848 48.0272 29.8688 47.7152C29.9312 47.4032 29.8688 47.0912 29.6816 46.8208C29.5152 46.592 29.2656 46.4672 28.9952 46.4672ZM55.5984 34.112H47.2368C46.6544 35.0688 46.1968 35.88 45.6768 36.6288C45.1568 37.3776 44.5744 38.064 43.9296 38.7088C43.2432 39.3744 42.4944 39.9984 41.7248 40.5808C41.0384 41.1216 40.2896 41.6208 39.5408 42.0576C38.7296 42.4944 37.8976 42.8688 37.024 43.1808C36.2128 43.4928 35.3808 43.8672 34.528 43.9088C33.5504 43.9504 32.6352 44.2832 31.6992 44.2832C30.2848 44.2832 28.8288 44.2416 27.456 43.9088C26.1456 43.5968 24.856 43.1392 23.6288 42.5776C22.3808 42.016 21.1952 41.3088 20.1136 40.4768C18.9904 39.6032 17.9504 38.7296 17.0768 37.544C16.2656 36.4208 15.4336 35.3392 14.8512 34.1744H6.5728C9.9632 44.5328 19.656 52.0208 31.0752 52.0208C36.1712 52.0208 41.1632 50.5024 45.3856 47.6528C45.7808 47.3824 46.1968 47.0912 46.592 46.8C50.8144 43.5968 53.9552 39.1664 55.5984 34.112ZM11.0032 36.1296C11.0032 35.7552 11.3152 35.4432 11.6896 35.4432C12.064 35.4432 12.376 35.7552 12.376 36.1296C12.376 36.504 12.064 36.816 11.6896 36.816C11.2944 36.816 11.0032 36.504 11.0032 36.1296ZM12.6464 39.2912C12.7504 39.4368 12.896 39.5616 13.0624 39.624C13.2704 39.6656 13.4992 39.6656 13.6864 39.5824L13.8944 40.2896C13.5824 40.3936 13.2288 40.3936 12.896 40.2896C12.168 39.9568 11.7312 39.1872 11.856 38.3968C11.96 37.9392 12.272 37.544 12.688 37.3152C13.0832 37.024 13.5616 36.8992 14.04 36.9824C14.4976 37.0864 14.872 37.3568 15.1216 37.752C15.3504 38.064 15.4544 38.4592 15.392 38.8544C15.3504 39.104 15.2464 39.3328 15.08 39.4992L14.5392 38.9792C14.664 38.8544 14.7264 38.688 14.7264 38.5216C14.7264 38.3344 14.6848 38.168 14.5808 38.0224C14.456 37.8144 14.2272 37.6688 13.9984 37.6272C13.6864 37.6064 13.3744 37.7104 13.1248 37.8976C12.7712 38.1264 12.5632 38.376 12.5008 38.6048C12.4592 38.8336 12.5008 39.0832 12.6464 39.2912ZM14.768 42.8272C14.4144 42.5152 14.2064 42.0576 14.1856 41.5792C14.2064 41.1008 14.4144 40.664 14.768 40.352C14.976 40.144 15.2256 39.9568 15.496 39.8528C15.6832 39.7904 15.8704 39.7488 16.0576 39.7696C16.2448 39.7696 16.432 39.8112 16.5984 39.8944C16.848 39.9984 17.056 40.144 17.2432 40.352C17.5968 40.664 17.8048 41.1216 17.8256 41.6C17.7632 42.5776 16.9728 43.3472 15.9952 43.4304C15.5376 43.3888 15.08 43.1808 14.768 42.8272ZM18.5744 45.8224L18.616 43.16L17.368 44.9904L16.8064 44.5952L18.72 41.808L19.3024 42.2032L19.2608 44.9072L20.5504 43.0352L21.112 43.4304L19.1984 46.2384L18.5744 45.8224ZM21.528 47.424L20.8624 47.112L22.0688 44.5536L21.0912 44.096L21.3408 43.576L23.9616 44.8032L23.712 45.3232L22.7344 44.8656L21.528 47.424ZM26.7488 46.592C26.6864 46.8208 26.5408 47.008 26.3536 47.1328C26.104 47.2576 25.8336 47.2992 25.584 47.2368C25.7088 47.3616 25.8128 47.4864 25.8752 47.632C25.9792 47.84 26.0624 48.048 26.1248 48.2768L26.3744 49.0256L25.5216 48.776L25.2096 47.9232C25.1472 47.7152 25.064 47.528 24.9808 47.3408C24.9392 47.2576 24.8768 47.1952 24.8144 47.1536C24.7104 47.0912 24.5856 47.0496 24.4608 47.008L24.3152 46.9664L23.92 48.3392L23.2128 48.1312L24.1488 44.8656L25.6256 45.2816C25.896 45.344 26.1664 45.448 26.416 45.5936C26.5616 45.6976 26.6864 45.8432 26.728 46.0304C26.8112 46.2176 26.8112 46.4048 26.7488 46.592ZM30.6176 47.7984C30.5968 48.2768 30.368 48.7136 30.0144 49.0256C29.64 49.3168 29.1616 49.4208 28.6832 49.3584C28.2048 49.3376 27.768 49.1296 27.456 48.7552C27.1648 48.3808 27.04 47.9024 27.1024 47.4448C27.1232 47.1536 27.2064 46.8624 27.352 46.592C27.456 46.4256 27.5808 46.28 27.7472 46.1552C27.8928 46.0304 28.0592 45.9472 28.2464 45.9056C28.496 45.8432 28.7664 45.8224 29.0368 45.8432C29.5152 45.864 29.952 46.0928 30.264 46.4464C30.576 46.8416 30.7008 47.3408 30.6176 47.7984ZM31.3456 49.4624L31.1584 46.0928L31.8864 46.0512L32.032 48.8384L33.8624 48.7344L33.8832 49.3168L31.3456 49.4624ZM50.5232 35.4432C50.8976 35.4432 51.2096 35.7552 51.2096 36.1296C51.2096 36.504 50.8976 36.816 50.5232 36.816C50.1488 36.816 49.8368 36.504 49.8368 36.1296C49.816 35.7552 50.128 35.4432 50.5232 35.4432C50.5024 35.4432 50.5024 35.4432 50.5232 35.4432ZM47.2784 37.6688C47.4032 37.4608 47.5488 37.2736 47.7152 37.128C47.8608 36.9824 48.0688 36.8784 48.2768 36.816C48.4848 36.7744 48.7136 36.7744 48.9216 36.816C49.192 36.8784 49.4416 36.9824 49.6704 37.1488C49.8784 37.2736 50.0656 37.44 50.2112 37.6272C50.3568 37.8144 50.4608 38.0432 50.5024 38.272C50.5232 38.4592 50.5232 38.6672 50.4608 38.8544C50.3984 39.0624 50.2944 39.2496 50.1696 39.4368L49.4208 40.6016L46.5504 38.7712L47.2784 37.6688ZM38.7504 47.6944C38.7088 47.84 38.6464 47.9856 38.5424 48.1104C38.4176 48.2352 38.272 48.3392 38.1056 48.4016C37.9808 48.4432 37.7104 48.5264 37.2528 48.6512L36.0672 48.984L35.1728 45.6976L36.5664 45.3024C36.7744 45.24 36.9824 45.1984 37.1904 45.1568C37.336 45.136 37.4608 45.1568 37.5856 45.1984C37.7104 45.24 37.8352 45.3024 37.9184 45.4064C38.0224 45.5104 38.0848 45.6144 38.1264 45.76C38.168 45.9056 38.168 46.072 38.1056 46.2176C38.0432 46.3632 37.96 46.5088 37.8144 46.6128C38.0224 46.6128 38.2096 46.6544 38.3968 46.7792C38.5424 46.8832 38.6672 47.0496 38.7088 47.216C38.7712 47.3824 38.792 47.528 38.7504 47.6944ZM42.328 46.2176C41.9328 47.0912 40.9552 47.5696 40.0192 47.3408C39.5824 47.1744 39.208 46.8416 39.0416 46.4048C38.896 46.1344 38.8336 45.8432 38.8128 45.552C38.8128 45.3648 38.8544 45.1568 38.9168 44.9904C38.9792 44.8032 39.0832 44.6576 39.208 44.512C39.3952 44.3248 39.6032 44.1584 39.8528 44.0544C40.2688 43.8256 40.768 43.784 41.2048 43.9088C42.12 44.2832 42.5984 45.2816 42.328 46.2176ZM45.552 44.5952L44.8448 44.1584L43.68 45.0112L43.888 45.8016L43.264 46.2592L42.4112 42.6816L43.0352 42.224L46.2176 44.1168L45.552 44.5952ZM48.3808 41.8704L47.4864 41.7456C47.2784 41.704 47.0704 41.6832 46.8624 41.6832C46.7792 41.6832 46.6752 41.704 46.6128 41.7456C46.5088 41.808 46.4048 41.8912 46.3216 41.9952L46.2176 42.0992L47.2576 43.0768L46.7584 43.6176L44.2832 41.288L45.344 40.1648C45.5312 39.9568 45.76 39.7696 45.9888 39.6032C46.1552 39.52 46.3424 39.4992 46.5088 39.52C46.696 39.5616 46.8624 39.6448 47.008 39.7696C47.1744 39.936 47.2992 40.144 47.2992 40.3728C47.2992 40.6432 47.1952 40.8928 47.0288 41.1216C47.1744 41.0592 47.3408 41.0384 47.5072 41.0384C47.736 41.0384 47.9648 41.0592 48.1936 41.1216L48.984 41.2464L48.3808 41.8704ZM46.5088 40.352C46.4464 40.2688 46.3424 40.2272 46.2384 40.2272C46.1344 40.2272 46.0512 40.2688 45.968 40.352C45.9264 40.3936 45.8016 40.5184 45.5936 40.7264L45.1984 41.1424L45.8224 41.7248L46.1968 41.3296C46.3632 41.184 46.488 40.9968 46.6128 40.8304C46.6544 40.7472 46.6544 40.664 46.6544 40.5808C46.6336 40.4976 46.592 40.4144 46.5088 40.352ZM39.9776 6.1984L40.0608 4.8048L39.104 5.8032L39.9776 6.1984ZM26.7072 4.5552L27.664 4.3888L26.9776 3.1824L26.7072 4.5552ZM49.8368 38.8336C49.8784 38.7296 49.8992 38.6256 49.8784 38.5008C49.8576 38.376 49.7952 38.2512 49.712 38.168C49.5664 38.0016 49.4 37.8768 49.2336 37.7728C49.0672 37.648 48.88 37.5648 48.6928 37.5232C48.568 37.4816 48.4224 37.4816 48.2976 37.5232C48.1728 37.5648 48.0688 37.6272 47.9856 37.7312C47.8608 37.8768 47.736 38.0432 47.632 38.2304L47.4448 38.5008L49.3376 39.7072L49.6288 39.2496C49.712 39.104 49.7744 38.9792 49.8368 38.8336ZM31.0752 0C19.6352 0 9.9632 7.488 6.5728 17.8672H14.9136C15.5792 15.9536 16.9312 14.56 18.2 13.208C20.0304 11.2736 22.3392 9.9424 24.8352 8.9232C26.7696 8.1328 28.8288 7.9872 30.8464 7.8C32.4688 7.6544 34.216 7.9872 35.7968 8.4864C37.5856 9.048 39.3952 9.7552 40.9344 10.8992C41.9744 11.6688 43.0768 12.4176 43.9296 13.3744C45.1984 14.7264 46.2592 16.2656 47.0912 17.9088H55.5776C55.4528 17.9088 55.2448 17.8672 55.2864 17.8464C55.3696 17.8256 55.4528 17.8048 55.536 17.8048C52.1456 7.4672 42.4736 0 31.0752 0ZM14.4144 13.9568L12.0848 12.4592L14.04 14.5392L13.6656 15.1216L10.9616 14.2064L13.2912 15.704L12.9376 16.2656L9.9632 14.3728L10.5456 13.4784L12.896 14.2272L11.232 12.3968L11.8144 11.5024L14.768 13.3952L14.4144 13.9568ZM15.184 13L12.48 10.712L12.9376 10.1712L15.6416 12.4384L15.184 13ZM17.5968 10.1712C17.4096 10.9408 16.7232 11.4816 15.9328 11.4608C15.4544 11.4192 15.0176 11.1904 14.7056 10.816C14.352 10.4832 14.1232 10.0048 14.1024 9.5056C14.1024 9.048 14.3104 8.632 14.6432 8.3408C14.9136 8.0704 15.288 7.904 15.6624 7.904C15.912 7.904 16.1616 7.9872 16.3696 8.112L15.9744 8.7152C15.6832 8.5072 15.288 8.528 15.0176 8.7984C14.8304 8.9648 14.7264 9.1936 14.7472 9.4432C14.7888 9.7552 14.9552 10.0672 15.184 10.2752C15.496 10.608 15.7664 10.7744 16.016 10.7952C16.2448 10.816 16.4944 10.7536 16.6608 10.5664C16.7856 10.4416 16.8688 10.2752 16.8896 10.1088C16.8896 9.9008 16.8272 9.672 16.7232 9.4848L17.368 9.1728C17.576 9.4848 17.6592 9.8384 17.5968 10.1712ZM20.28 8.528L19.4272 7.2384L18.2624 8.008L19.1152 9.2976L18.512 9.672L16.5776 6.7392L17.1808 6.344L17.9504 7.488L19.1152 6.7184L18.3456 5.5536L18.9488 5.1584L20.904 8.0912L20.28 8.528ZM21.4448 7.8832L19.8432 4.7216L20.488 4.4096L22.0688 7.5504L21.4448 7.8832ZM24.8976 6.3232C24.6688 6.5104 24.4192 6.6768 24.1488 6.76C23.8368 6.8848 23.504 6.9264 23.1712 6.864C22.8592 6.8224 22.5888 6.6768 22.36 6.448C22.1312 6.2192 21.944 5.928 21.84 5.616C21.7152 5.304 21.6736 4.9504 21.7152 4.6176C21.7568 4.3056 21.9024 4.0144 22.1312 3.7648C22.3392 3.5568 22.5888 3.4112 22.88 3.328C23.2128 3.1824 23.5872 3.1616 23.9408 3.2448C24.232 3.328 24.4816 3.536 24.648 3.8064L24.024 4.1808C23.92 4.0352 23.7952 3.9312 23.6288 3.8896C23.4624 3.848 23.2752 3.848 23.088 3.9104C22.8176 3.9936 22.6096 4.1808 22.4848 4.4304C22.3808 4.7216 22.4016 5.0544 22.5264 5.3456C22.6096 5.6784 22.8176 5.9488 23.1088 6.136C23.3584 6.2608 23.6496 6.2816 23.8992 6.1776C24.0448 6.1152 24.1696 6.0528 24.2944 5.9488C24.3984 5.8448 24.5024 5.7408 24.5856 5.616L24.44 5.2L23.6704 5.4704L23.4624 4.9088L24.8976 4.3888L25.376 5.6992C25.2512 5.9488 25.0848 6.136 24.8976 6.3232ZM28.4128 5.6992L27.976 4.9712L26.5824 5.2L26.4368 6.032L25.688 6.1568L26.4576 2.4544L27.2064 2.3296L29.1824 5.5744L28.4128 5.6992ZM32.2192 5.5952H31.512L30.1184 3.2448L30.0768 5.5328H29.4112L29.4736 2.0176L30.16 2.0384L31.5536 4.4096L31.616 2.0384H32.2816L32.2192 5.5952ZM36.6288 6.2816C36.3376 6.3232 36.0464 6.3024 35.7552 6.24C35.4224 6.1776 35.1312 6.0112 34.8816 5.7824C34.6528 5.5744 34.5072 5.304 34.4448 4.992C34.3824 4.68 34.3824 4.3472 34.4656 4.0352C34.5488 3.7024 34.6944 3.3904 34.9232 3.1408C35.1312 2.912 35.4224 2.7456 35.7344 2.6624C36.0256 2.6 36.3168 2.6208 36.5872 2.6832C36.9408 2.7456 37.2736 2.9328 37.5232 3.2032C37.7104 3.432 37.8144 3.744 37.7936 4.056L37.0864 4.0144C37.0864 3.848 37.024 3.6608 36.92 3.536C36.7952 3.3904 36.6288 3.3072 36.4624 3.2656C36.192 3.1824 35.9008 3.224 35.672 3.3696C35.4224 3.5568 35.256 3.848 35.1936 4.16C35.0896 4.472 35.1104 4.8256 35.2352 5.1376C35.36 5.3872 35.5888 5.5536 35.8592 5.616C36.0048 5.6576 36.1712 5.6576 36.3168 5.6368C36.4624 5.616 36.608 5.5744 36.7536 5.5328L36.8576 5.096L36.0672 4.9088L36.2128 4.3264L37.7104 4.7008L37.3776 6.0736C37.1488 6.1984 36.92 6.2608 36.6704 6.2816H36.6288ZM40.6016 8.008L39.8944 7.696L39.936 6.8432L38.6464 6.2608L38.064 6.864L37.3776 6.552L40.0608 3.8896L40.7472 4.2016L40.6016 8.008ZM43.5968 10.0464L43.056 9.6512L44.616 7.3632L42.4736 9.256L41.912 8.8608L42.9104 6.1776L41.3504 8.4656L40.8096 8.0912L42.8064 5.1792L43.68 5.7824L42.848 8.1328L44.72 6.5104L45.5936 7.1136L43.5968 10.0464ZM44.0128 10.4624L46.3632 7.8416L46.904 8.32L44.5536 10.92L44.0128 10.4624ZM46.8416 13.416L46.3632 12.8752L47.1536 10.296L45.4272 11.8144L44.9904 11.3152L47.632 8.9648L48.0896 9.4848L47.2784 12.1264L49.0464 10.5664L49.4832 11.0656L46.8416 13.416ZM51.0224 15.2464L50.544 14.7056C50.6688 14.5808 50.7312 14.4144 50.752 14.248C50.752 14.0608 50.7104 13.8944 50.6064 13.728C50.4608 13.4784 50.232 13.312 49.9616 13.2496C49.6496 13.208 49.3376 13.2912 49.088 13.4784C48.7968 13.624 48.5472 13.8944 48.4224 14.2064C48.3392 14.4768 48.3808 14.768 48.5264 14.9968C48.6096 15.1216 48.7136 15.2464 48.8384 15.3296C48.9632 15.4128 49.088 15.4752 49.2128 15.5376L49.5872 15.3088L49.1712 14.6224L49.6704 14.3104L50.4608 15.6208L49.2544 16.3696C49.0048 16.3072 48.776 16.1824 48.5888 16.016C48.36 15.8288 48.152 15.6208 48.0064 15.3712C47.8192 15.08 47.7152 14.768 47.6944 14.4352C47.6736 14.1232 47.7568 13.8112 47.944 13.5616C48.1104 13.2912 48.36 13.0624 48.6304 12.896C48.9216 12.7088 49.2544 12.6048 49.5872 12.584C49.92 12.5632 50.232 12.6464 50.5024 12.8128C50.752 12.9792 50.9392 13.1872 51.0848 13.4368C51.2928 13.728 51.3968 14.0816 51.376 14.456C51.3968 14.7264 51.2512 15.0176 51.0224 15.2464ZM44.304 43.8464L43.16 43.1184L43.5136 44.4288L44.304 43.8464ZM37.2112 46.5504C37.3152 46.5088 37.3984 46.4464 37.4608 46.3632C37.5024 46.28 37.5232 46.176 37.5024 46.072C37.4816 45.9888 37.4192 45.9056 37.336 45.8432C37.2528 45.8016 37.1488 45.7808 37.0448 45.8016C36.9824 45.8224 36.7744 45.864 36.4416 45.968L36.0256 46.072L36.2336 46.8208L36.6912 46.696C36.9824 46.6128 37.1488 46.5504 37.2112 46.5504ZM37.856 47.1744C37.7728 47.112 37.6896 47.0912 37.5856 47.0912C37.3776 47.112 37.1488 47.1536 36.9408 47.216L36.3792 47.3824L36.6288 48.256L37.2736 48.0688C37.44 48.0272 37.6064 47.9856 37.752 47.9232C37.856 47.8816 37.9184 47.7984 37.9808 47.7152C38.0224 47.6112 38.0432 47.5072 38.0016 47.4032C37.9808 47.2992 37.9184 47.216 37.856 47.1744ZM40.8928 44.512C40.352 44.3456 39.7904 44.616 39.5824 45.1568C39.4784 45.7808 39.7904 46.4256 40.352 46.7376C40.6016 46.8416 40.8928 46.8208 41.1424 46.696C41.392 46.592 41.5792 46.384 41.6624 46.1136C41.7456 45.8016 41.704 45.4688 41.5376 45.1984C41.4128 44.8656 41.184 44.6368 40.8928 44.512Z" fill="#FAFAFA"/>
</g>
<defs>
<clipPath id="clip0_1121_13978">
<rect width="64.376" height="52" fill="white"/>
</clipPath>
</defs>
</svg>
