<svg width="138" height="52" viewBox="0 0 138 52" fill="none" xmlns="http://www.w3.org/2000/svg">
<g clip-path="url(#clip0_796_7269)">
<path d="M38.8446 45.7778L23.2891 51.7038H35.4372L44.3261 45.7778H38.8446Z" fill="#FAFAFA"/>
<path d="M49.3629 46.0742L48.9185 51.852H60.0296L54.3999 46.0742H49.3629Z" fill="#FAFAFA"/>
<path d="M11.5853 5.92589H17.0668V21.1852C17.0668 22.074 16.9186 23.1111 16.4742 24C16.0297 24.8889 15.5853 25.4814 14.8445 26.074C14.1038 26.6666 13.2149 27.1111 12.1779 27.2592C10.9927 27.5555 9.80751 27.7037 8.62233 27.5555C5.51121 27.5555 3.43714 27.1111 2.25195 26.2222C1.06677 25.3333 0.474175 24 0.474175 22.5185V21.7777H6.25195C6.4001 22.3703 6.54825 23.4074 6.99269 23.5555C7.43714 23.8518 8.02973 24 8.62233 24C9.36307 24 9.95566 23.8518 10.5483 23.2592C10.9927 22.5185 11.289 21.7777 11.1408 20.8889V18.5185C10.6964 19.1111 10.1038 19.5555 9.36307 20C8.47418 20.4444 7.43714 20.7407 6.4001 20.7407C4.32603 20.7407 2.54825 19.7037 1.36306 18.074C0.326027 16.5926 -0.118417 14.8148 0.0297309 13.037C0.0297309 10.9629 0.622324 8.88885 1.95566 7.40737C2.99269 6.07404 4.77047 5.48145 6.4001 5.48145C7.43714 5.48145 8.47418 5.62959 9.36307 6.07404C10.252 6.51848 10.9927 7.25922 11.5853 8.14811V5.92589ZM5.95566 13.3333C5.95566 14.2222 6.10381 15.1111 6.6964 15.8518C7.73344 16.7407 9.21492 16.8889 10.252 16L10.4001 15.8518C10.9927 15.1111 11.1408 14.2222 11.1408 13.3333C11.1408 12.4444 10.9927 11.5555 10.4001 10.8148C9.95566 10.074 9.21492 9.77774 8.47418 9.77774C7.73344 9.77774 7.14084 10.074 6.6964 10.6666C6.10381 11.4074 5.95566 12.2963 5.95566 13.3333Z" fill="#FAFAFA"/>
<path d="M24.9185 10.815L19.2889 10.2224C19.437 9.3335 19.7333 8.59276 20.1778 7.85202C20.6222 7.25942 21.2148 6.66683 21.9555 6.37053C22.6963 6.07424 23.437 5.77794 24.1778 5.62979C25.2148 5.48164 26.2518 5.3335 27.2889 5.3335C28.7704 5.3335 30.1037 5.3335 31.5852 5.62979C32.6222 5.77794 33.5111 6.22239 34.2518 6.81498C34.8444 7.25942 35.1407 8.00016 35.437 8.59276C35.7333 9.3335 35.8815 10.0742 35.8815 10.815V17.6298C35.8815 18.6668 36.0296 19.852 36.3259 20.8891H30.4C30.1037 20.4446 30.5481 19.4076 30.4 18.9631C29.8074 19.7039 28.9185 20.1483 28.0296 20.5928C26.8444 21.0372 25.6593 21.1853 24.3259 21.1853C22.8444 21.3335 21.363 20.8891 20.1778 19.852C19.2889 19.1113 18.6963 17.9261 18.6963 16.7409C18.6963 15.7039 18.9926 14.6668 19.7333 13.9261C20.7704 13.0372 22.1037 12.4446 23.5852 12.2965C25.8074 11.852 27.2889 11.5557 27.8815 11.4076C28.6222 11.2594 29.2148 10.9631 29.9555 10.6668C29.9555 10.0742 29.8074 9.62979 29.5111 9.18535C29.0667 8.88905 28.4741 8.7409 27.8815 8.7409C27.1407 8.7409 26.4 8.88905 25.6593 9.18535C25.5111 9.77794 25.0667 10.3705 24.9185 10.815ZM30.1037 13.9261C29.363 14.2224 28.4741 14.5187 27.5852 14.6668C26.6963 14.815 25.9556 15.1113 25.363 15.5557C24.7704 16.1483 24.7704 17.0372 25.2148 17.6298L25.363 17.7779C25.8074 18.0742 26.2518 18.2224 26.8444 18.2224C27.437 18.2224 28.1778 18.0742 28.6222 17.7779C29.0667 17.4816 29.5111 17.0372 29.8074 16.5928C30.1037 16.0002 30.2518 15.4076 30.1037 14.815V13.9261Z" fill="#FAFAFA"/>
<path d="M91.4371 35.7037L85.8074 35.1111C85.9556 34.2222 86.2519 33.4814 86.6963 32.7407C87.1408 32.1481 87.7334 31.5555 88.4741 31.2592C89.2148 30.9629 89.9556 30.6666 90.6963 30.5185C91.7334 30.3703 92.7704 30.2222 93.8074 30.2222C95.2889 30.2222 96.6223 30.2222 98.1037 30.5185C99.1408 30.6666 100.03 31.1111 100.77 31.7036C101.363 32.1481 101.659 32.8888 101.956 33.4814C102.252 34.2222 102.4 34.9629 102.4 35.7037V42.5185C102.4 43.5555 102.548 44.7407 102.844 45.7777H96.9185C96.7704 45.3333 97.0667 44.2962 96.9185 43.8518C96.326 44.5925 95.4371 45.037 94.5482 45.4814C93.363 45.9259 92.1778 46.074 90.8445 46.074C89.363 46.2222 87.8815 45.7777 86.6963 44.7407C85.8074 43.9999 85.2148 42.8148 85.2148 41.6296C85.2148 40.5925 85.5111 39.5555 86.2519 38.8148C87.2889 37.9259 88.6223 37.3333 90.1037 37.1851C92.326 36.7407 93.8074 36.4444 94.4 36.2962C95.1408 36.1481 95.7334 35.8518 96.4741 35.5555C96.4741 34.9629 96.326 34.5185 96.0297 34.074C95.5852 33.7777 94.9926 33.6296 94.4 33.6296C93.6593 33.6296 92.9185 33.7777 92.1778 34.074C91.8815 34.6666 91.5852 35.1111 91.4371 35.7037ZM96.6223 38.8148C95.8815 39.1111 94.9926 39.4074 94.1037 39.5555C93.2148 39.7037 92.4741 39.9999 91.8815 40.4444C91.2889 41.037 91.2889 41.9259 91.7334 42.5185L91.8815 42.6666C92.326 42.9629 92.7704 43.1111 93.363 43.1111C93.9556 43.1111 94.6963 42.9629 95.1408 42.6666C95.5852 42.3703 96.0297 41.9259 96.3259 41.4814C96.6222 40.8888 96.7704 40.2962 96.6223 39.7036V38.8148Z" fill="#FAFAFA"/>
<path d="M38.1035 5.92616H43.585V8.14838C44.1776 7.25949 45.0665 6.6669 45.9554 6.0743C46.8443 5.62986 47.8813 5.48171 48.9183 5.48171C49.9554 5.48171 50.9924 5.62986 51.8813 6.0743C52.622 6.51875 53.2146 7.25949 53.6591 8.00023C54.3998 7.11134 55.2887 6.51875 56.1776 5.92616C57.0665 5.48171 58.1035 5.33356 58.9924 5.33356C60.4739 5.18541 61.8072 5.77801 62.8443 6.81504C63.8813 8.14838 64.3257 9.77801 64.1776 11.4076V21.1854H58.2517V12.4447C58.2517 11.8521 58.1035 11.4076 57.8072 10.9632C57.5109 10.5187 56.9183 10.2225 56.3257 10.2225C55.7331 10.2225 54.9924 10.5187 54.6961 10.9632C54.2517 11.7039 53.9554 12.5928 54.1035 13.3336V21.1854H48.1776V12.741C48.1776 12.2965 48.1776 11.8521 48.0294 11.4076C47.8813 10.9632 47.7331 10.6669 47.4369 10.5187C47.1406 10.2225 46.6961 10.2225 46.3998 10.2225C45.8072 10.2225 45.0665 10.5187 44.7702 10.9632C44.3257 11.7039 44.0294 12.5928 44.1776 13.4817V21.1854H38.2517V5.92616H38.1035Z" fill="#FAFAFA"/>
<path d="M65.9556 0H71.8815V7.40741C72.4741 6.81482 73.0667 6.37037 73.9556 6.07407C74.6963 5.77778 75.5852 5.62963 76.4741 5.62963C78.2519 5.62963 79.8815 6.37037 81.0667 7.7037C82.4 9.33333 82.9926 11.4074 82.8445 13.4815C82.8445 14.963 82.5482 16.5926 81.9556 17.9259C81.5111 19.1111 80.6222 20.1481 79.5852 20.7407C78.5482 21.3333 77.5111 21.6296 76.3259 21.6296C75.2889 21.6296 74.4 21.4815 73.5111 20.8889C72.6222 20.4444 72.0296 19.7037 71.437 18.963V21.1852H65.9556V0ZM71.8815 13.4815C71.7333 14.5185 72.0296 15.5556 72.6222 16.2963C73.0667 16.8889 73.8074 17.1852 74.5482 17.1852C75.2889 17.1852 75.8815 16.8889 76.3259 16.2963C76.9185 15.4074 77.0667 14.3704 77.0667 13.3333C77.2148 12.4444 76.9185 11.4074 76.3259 10.6667C75.8815 10.0741 75.2889 9.77778 74.5482 9.77778C73.8074 9.77778 73.0667 10.0741 72.6222 10.6667C72.0296 11.5556 71.7333 12.5926 71.8815 13.4815Z" fill="#FAFAFA"/>
<path d="M84.6221 0H90.548V21.1852H84.6221V0Z" fill="#FAFAFA"/>
<path d="M92.3262 0H98.2521V4H92.3262V0ZM92.3262 5.92593H98.2521V21.1852H92.3262V5.92593Z" fill="#FAFAFA"/>
<path d="M100.03 5.92614H105.511V8.44466C106.252 7.55577 106.993 6.81503 108.03 6.22244C108.919 5.77799 110.104 5.4817 111.141 5.62985C112.622 5.4817 113.956 6.07429 114.993 7.11133C116.03 8.44466 116.474 9.92614 116.326 11.5558V21.1854H110.4V12.741C110.4 12.0002 110.252 11.2595 109.808 10.6669C109.363 10.2224 108.919 10.0743 108.326 10.0743C107.585 10.0743 106.993 10.3706 106.548 10.815C105.956 11.7039 105.808 12.741 105.956 13.778V21.1854H100.03V5.92614Z" fill="#FAFAFA"/>
<path d="M129.511 5.92569H134.993V21.185C134.993 22.0738 134.845 23.1109 134.4 23.9998C133.956 24.8887 133.511 25.4812 132.771 26.0738C132.03 26.6664 131.141 27.1109 130.104 27.259C128.919 27.5553 127.733 27.7035 126.548 27.5553C123.437 27.5553 121.363 27.1109 120.178 26.222C118.993 25.3331 118.4 23.9998 118.4 22.5183V21.7775H124.178C124.326 22.3701 124.474 23.4072 124.771 23.5553C125.215 23.8516 125.808 23.9998 126.4 23.9998C127.141 23.9998 127.733 23.8516 128.326 23.259C128.771 22.5183 129.067 21.7775 128.919 20.8887V18.5183C127.733 19.9998 126.104 20.7405 124.178 20.7405C122.104 20.7405 120.326 19.7035 119.141 18.0738C118.104 16.5924 117.659 14.8146 117.808 13.0368C117.659 11.1109 118.252 9.0368 119.585 7.55532C120.771 6.22199 122.4 5.62939 124.178 5.62939C125.215 5.62939 126.252 5.77754 127.141 6.22199C128.03 6.66643 128.771 7.40717 129.363 8.29606V5.92569H129.511ZM123.882 13.3331C123.882 14.222 124.03 15.1109 124.622 15.8516C125.511 16.8887 127.141 16.8887 128.178 15.9998L128.326 15.8516C128.919 15.1109 129.067 14.222 129.067 13.3331C129.067 12.4442 128.919 11.5553 128.326 10.8146C127.882 10.222 127.141 9.92569 126.4 9.92569C125.659 9.92569 125.067 10.222 124.622 10.8146C124.03 11.4072 123.733 12.2961 123.882 13.3331Z" fill="#FAFAFA"/>
<path d="M35.1409 42.2222C34.6965 42.2222 34.4002 42.0741 34.1039 41.7778C33.9558 41.3333 33.8076 40.8889 33.9558 40.4444V34.9629H37.215V30.6666H33.9558V24.7407H28.0298V30.5185H25.8076V34.8148H28.0298V40.4444C28.0298 41.7778 28.178 42.9629 28.4743 44.1481C28.7706 44.8889 29.3632 45.4815 29.9558 45.9259C30.9928 46.3704 32.0298 46.5185 33.215 46.5185C34.5484 46.5185 36.0298 46.3704 37.3632 46.0741L37.0669 41.9259C36.4743 42.0741 35.8817 42.2222 35.1409 42.2222Z" fill="#FAFAFA"/>
<path d="M49.3631 30.3702C48.326 30.3702 47.4371 30.5183 46.5483 30.9627C45.6594 31.4072 44.7705 31.9998 44.1779 32.7405V24.8887H38.252V46.0739H43.8816V34.9627H49.3631V46.0739H54.5483V36.2961C54.6964 34.6665 54.252 33.0368 53.2149 31.8516C52.1779 30.8146 50.8445 30.222 49.3631 30.3702Z" fill="#FAFAFA"/>
<path d="M69.5109 31.2591C67.8813 30.5184 66.1035 30.2221 64.3257 30.2221C61.9553 30.0739 59.7331 30.9628 57.9553 32.4443C56.3257 33.9258 55.585 36.148 55.585 38.2221C55.585 39.7036 55.8813 41.3332 56.7701 42.6665C57.5109 43.8517 58.3998 44.7406 59.7331 45.3332C61.2146 45.9258 62.8442 46.2221 64.4739 46.2221C66.3998 46.3702 68.1776 45.9258 69.9553 45.1851C71.2887 44.4443 72.4738 43.2591 73.2146 41.9258L67.4368 41.3332C67.1405 41.7776 66.8442 42.0739 66.3998 42.3702C65.9553 42.6665 65.3627 42.8147 64.7701 42.8147C63.8813 42.8147 63.1405 42.5184 62.5479 41.7777C62.1035 41.1851 61.8072 40.4443 61.8072 39.7036H73.659V38.9628C73.659 37.1851 73.3627 35.5554 72.622 34.0739C71.7331 33.0369 70.6961 31.9999 69.5109 31.2591ZM61.5109 37.0369C61.5109 36.2962 61.8072 35.5554 62.2516 34.9628C63.2887 33.6295 65.0664 33.4814 66.2516 34.5184L66.3998 34.6665C66.9924 35.4073 67.2887 36.148 67.2887 37.1851L61.5109 37.0369Z" fill="#FAFAFA"/>
<path d="M83.5851 30.3706C82.8443 30.3706 82.1036 30.5188 81.511 30.9632C80.7703 31.5558 80.1777 32.2965 79.8814 33.1854V30.6669H74.3999V46.0743H80.3258V40.8891C80.1777 39.1113 80.474 37.4817 81.2147 35.8521C81.6592 35.2595 82.2518 34.8151 82.9925 34.9632C83.5851 34.9632 84.1777 35.1113 84.6221 35.4076L86.3999 31.2595C85.6592 30.6669 84.6221 30.3706 83.5851 30.3706Z" fill="#FAFAFA"/>
<path d="M119.882 32.7409C118.845 31.2594 117.067 30.2224 115.141 30.3705C114.104 30.3705 113.215 30.5187 112.326 31.1113C111.437 31.5557 110.845 32.2964 110.252 33.0372V30.815H104.771V52.0001H110.696V44.5927C111.289 45.1853 111.882 45.6298 112.771 45.9261C113.511 46.2224 114.4 46.3705 115.289 46.3705C117.067 46.3705 118.696 45.6298 119.882 44.2964C121.215 42.6668 121.808 40.5927 121.659 38.3705C121.511 36.4446 120.919 34.3705 119.882 32.7409ZM114.845 41.1853C114.4 41.7779 113.808 42.0742 113.067 42.0742C112.326 42.0742 111.585 41.7779 111.141 41.1853C110.548 40.4446 110.252 39.4076 110.4 38.5187C110.252 37.4816 110.548 36.4446 111.141 35.7039C111.585 35.1113 112.326 34.815 113.067 34.815C113.808 34.815 114.4 35.1113 114.845 35.7039C115.437 36.4446 115.585 37.4816 115.585 38.5187C115.733 39.2594 115.437 40.2964 114.845 41.1853Z" fill="#FAFAFA"/>
<path d="M43.8813 34.9629V46.074L46.9925 44.4444V35.9999L43.8813 34.9629Z" fill="#FAFAFA"/>
<path d="M132.178 30.9628L129.363 40.8887L126.252 30.9628H120.918C121.067 31.2591 125.363 44.148 126.104 46.2221C126.4 46.9628 125.807 47.2591 125.067 47.4072H122.696V51.7035H127.881C130.844 51.4072 131.733 48.2961 132.03 47.4072C133.807 42.2221 137.363 30.6665 137.363 30.6665L132.178 30.9628Z" fill="#FAFAFA"/>
</g>
<defs>
<clipPath id="clip0_796_7269">
<rect width="137.363" height="52" fill="white"/>
</clipPath>
</defs>
</svg>
