<svg width="176" height="51" viewBox="0 0 176 51" fill="none" xmlns="http://www.w3.org/2000/svg">
<g clip-path="url(#clip0_796_7298)">
<path d="M157.06 50.0109L18.9279 50.0049C8.61879 50.0044 0.178865 41.2955 0.0537128 31.0768L1.78892e-06 0.721131C-0.00078041 0.350084 0.254999 0 0.666696 0L157.116 0.0398299C167.421 0.0424503 175.853 8.7314 176 18.9349L175.991 31.299C175.747 41.404 167.373 50.0115 157.06 50.0109ZM37.4447 29.9812L37.4293 20.312C37.3109 12.0635 30.652 5.22191 22.4043 5.05814L5.34268 5.0115C5.10646 5.01097 4.87075 5.25467 4.87075 5.4981L4.87128 29.5766C4.80557 38.5664 12.2943 45.7316 21.1791 45.2769C29.8826 45.7017 37.271 38.8237 37.4449 29.9815L37.4447 29.9812ZM60.878 7.92511L60.8658 6.71947L60.0145 6.72025L60.0127 7.90938L60.8783 7.92511H60.878ZM79.6722 14.0429L79.6711 6.71606L78.8019 6.72785V14.0566L79.6722 14.0427V14.0429ZM107.673 12.3672L107.676 10.475C107.677 9.68051 107.163 8.96435 106.53 8.76442C105.71 8.50526 104.974 8.69445 104.369 9.34719L104.344 6.7213L103.491 6.73204V14.0547L104.305 14.0673L104.416 13.5411C104.993 14.1289 105.712 14.3107 106.49 14.0715C107.135 13.8729 107.672 13.2096 107.673 12.3675L107.673 12.3672ZM109.997 14.0442L109.996 6.71711L109.138 6.7268V14.0568L109.997 14.0442H109.997ZM112.475 7.9141L112.468 6.72078L111.621 6.72025L111.612 7.92275L112.475 7.9141H112.475ZM140.942 14.0524L140.939 6.67308L139.49 6.69379L139.497 14.066L140.942 14.0524ZM149.53 14.0241L149.523 6.66863L148.084 6.67806L148.089 14.0634L149.53 14.0241ZM152.288 7.97647L152.266 6.67177L150.839 6.68697L150.846 7.98695L152.288 7.97673V7.97647ZM87.8728 11.1089L87.8391 12.1177C87.8131 12.9018 87.162 13.2786 86.4669 13.3234C85.5024 13.3855 84.72 12.8132 84.7268 11.8033L84.7447 9.0938C84.7505 8.22305 85.4649 7.72936 86.244 7.72019C87.0327 7.71102 87.6376 8.05875 87.8159 8.89622L88.6445 8.64545C88.4065 7.38373 87.3539 6.81668 86.1352 6.86778C84.9273 6.91835 83.8489 7.68901 83.852 8.99108L83.8593 12.1159C83.8611 12.9468 84.4047 13.6593 85.1458 13.9531C85.8409 14.2287 86.5946 14.2408 87.3044 14.0157C88.1262 13.7552 88.7121 13.0047 88.7157 12.1232L88.7238 10.2963H86.409L86.4074 11.1097L87.8725 11.1091L87.8728 11.1089ZM49.5171 14.0516V6.99644L48.6444 7.00483L48.6708 12.8886L45.8236 6.98386L44.5694 7.00168L44.5707 14.056L45.4392 14.0587L45.4293 8.11404L46.125 9.59718L48.3378 14.0576L49.5174 14.0513L49.5171 14.0516ZM132.655 14.0283L132.653 6.98675L131.169 7.00325L131.17 9.82253L128.789 9.82148L128.785 6.99172L127.295 6.99277L127.298 14.0655L128.78 14.0513L128.8 11.214L131.169 11.2276L131.173 14.0579L132.654 14.0285L132.655 14.0283ZM58.7737 13.2068C58.1716 13.4248 57.6384 13.1774 57.6356 12.7637L57.6139 9.51175L58.8258 9.50651L58.8245 8.78093L57.6254 8.77359L57.6152 7.42514L56.7788 7.39972L56.771 8.7652L55.9494 8.7977L55.957 9.50651L56.7624 9.51568L56.7811 12.9416C56.784 13.4609 57.2497 13.98 57.7482 14.0133L58.8336 14.0859L58.7734 13.207L58.7737 13.2068ZM137.299 12.2275C137.033 12.8281 136.72 12.9898 136.175 12.995C135.926 12.9974 135.514 12.8362 135.403 12.6473C135.274 12.4288 135.231 12.0839 135.244 11.8214L138.368 11.808L138.336 10.2748C138.188 9.10297 137.187 8.56055 136.095 8.57365C134.879 8.58807 133.859 9.34955 133.869 10.6246L133.881 12.2477C133.888 13.153 134.532 13.8763 135.388 14.0812C136.649 14.3825 138.068 14.0028 138.385 12.7786L137.298 12.2278L137.299 12.2275ZM143.698 15.9951L143.708 13.5474C144.269 14.1142 144.962 14.3244 145.705 14.0864C146.309 13.8928 146.881 13.2712 146.883 12.5071L146.889 10.269C146.891 9.50206 146.326 8.87002 145.718 8.68607C144.962 8.45757 144.235 8.59986 143.729 9.21513L143.602 8.701L142.249 8.70939L142.248 15.9862L143.698 15.9954V15.9951ZM155.044 10.7876C155.046 10.3959 155.5 10.0041 155.798 9.93966C156.25 9.84166 156.634 10.1186 156.636 10.5549L156.653 14.0623H158.081L158.068 10.1414C158.066 9.5694 157.713 8.95728 157.218 8.73193C156.393 8.3559 155.585 8.70834 155.015 9.33986L154.95 8.70467L153.592 8.7052L153.588 14.0492L155.032 14.0552L155.044 10.7879V10.7876ZM162.604 12.2173C162.363 12.8108 162.057 12.9853 161.517 12.9953C161.261 13 160.85 12.8412 160.733 12.6539C160.597 12.4364 160.552 12.0779 160.579 11.8227L163.692 11.8054L163.66 10.2892C163.54 9.12813 162.52 8.56867 161.435 8.57523C160.234 8.58256 159.198 9.32361 159.198 10.5866V12.2021C159.198 12.9885 159.686 13.6928 160.41 13.9785C161.656 14.4693 163.362 14.0969 163.715 12.7909L162.604 12.2173ZM51.6077 13.9132C52.4337 14.3917 53.3861 14.1692 54.0088 13.4465L54.1115 14.0644L54.9156 14.055L54.8992 10.073C54.8966 9.441 54.4163 8.91221 53.832 8.75918C52.6443 8.4484 51.3138 8.79167 51.1355 9.9601C51.4244 10.0686 51.7453 10.1388 51.956 10.1184C52.1414 9.528 52.5453 9.35715 53.1006 9.38335C53.4518 9.39986 53.9115 9.54844 54.0004 9.95748C54.0656 10.2578 54.0627 10.6527 54.0455 10.9734C53.164 10.969 52.3862 10.9336 51.639 11.3002C51.129 11.5504 50.9264 12.0968 50.9264 12.596C50.9264 13.0907 51.136 13.6402 51.6077 13.9132ZM66.519 12.3777L66.5213 10.4651C66.5229 9.2733 65.5535 8.64021 64.454 8.63576C63.3589 8.63104 62.3543 9.23006 62.3428 10.4231L62.3248 12.2946C62.3131 13.5189 63.2945 14.1978 64.4529 14.1805C65.504 14.1648 66.5174 13.5904 66.519 12.3779V12.3777ZM68.8739 10.518C68.8804 9.9284 69.6168 9.52354 70.059 9.46694C70.662 9.38964 71.1037 9.78585 71.1068 10.3665L71.1274 14.0631L71.9699 14.0639L71.9613 10.1252C71.9602 9.61369 71.6413 9.02882 71.2038 8.82154C70.3366 8.41067 69.4564 8.74372 68.8653 9.43733L68.8051 8.7597L67.9921 8.77438L67.995 14.0652L68.8338 14.0524L68.8737 10.518H68.8739ZM74.2383 14.0613C75.1083 14.3453 75.8983 14.0144 76.4029 13.3496L76.437 14.0725L77.2419 14.0547L77.2234 10.072C77.2205 9.44074 76.7306 8.90644 76.1499 8.75708C74.9574 8.45076 73.6719 8.78538 73.4537 9.95407C73.7439 10.0615 74.0651 10.1372 74.2753 10.1315C74.4659 9.52879 74.8598 9.35846 75.416 9.38257C75.7711 9.39777 76.2243 9.54634 76.3225 9.95801C76.3927 10.2515 76.3864 10.6563 76.3637 10.9705C75.5096 10.9679 74.7558 10.9438 74.0278 11.2666C73.4128 11.5394 73.2073 12.1604 73.2582 12.7778C73.3009 13.2993 73.6216 13.8598 74.238 14.061L74.2383 14.0613ZM90.2866 13.6774C91.1043 14.4824 92.4074 14.256 93.0045 13.3519L93.0853 14.0691L93.8681 14.0492L93.8595 10.1265C93.8579 9.42921 93.344 8.84355 92.6695 8.72275C91.4328 8.50133 90.2736 8.81342 90.1083 9.98657L90.9163 10.1721C91.0386 9.5259 91.4565 9.39384 91.9869 9.38152C92.5245 9.36894 93.0084 9.65456 93.0162 10.2473L93.0256 10.9566L91.2422 11.0685C90.6824 11.1036 90.1443 11.5674 90.0022 11.9833C89.8066 12.5551 89.8371 13.2351 90.2866 13.6776V13.6774ZM99.1109 14.0487L99.1234 10.5308C99.125 10.0916 99.6157 9.61814 100.016 9.49184C100.23 9.42449 100.617 9.48922 100.754 9.61342C100.883 9.72951 101.048 10.044 101.049 10.2415L101.064 14.06L101.913 14.0492L101.911 10.2305C101.911 9.65456 101.69 9.04035 101.156 8.78826C100.373 8.41853 99.5343 8.79324 99.0392 9.53455C98.8504 9.22141 98.5558 8.83229 98.2205 8.72564C97.4208 8.4712 96.7849 8.8467 96.3043 9.44336L96.2624 8.7576L95.4473 8.77726L95.451 14.0589L96.2991 14.0602L96.314 10.5313C96.3158 10.0995 96.8177 9.63753 97.2026 9.49498C97.4026 9.42083 97.8093 9.49079 97.9394 9.60871C98.0695 9.72663 98.2369 10.0316 98.2374 10.2282L98.2494 14.0631L99.1106 14.0487H99.1109ZM114.969 10.519C114.976 9.88752 115.772 9.47559 116.255 9.45961C116.784 9.44205 117.181 9.79056 117.184 10.2968L117.208 14.0642L118.061 14.0634L118.053 10.1252C118.052 9.61395 117.733 9.02908 117.295 8.82154C116.43 8.41119 115.547 8.74267 114.956 9.43812L114.896 8.7597L114.084 8.77411L114.087 14.0655L114.926 14.0518L114.969 10.5193L114.969 10.519ZM152.286 14.0338L152.277 8.70179L150.837 8.71175L150.837 14.0665L152.286 14.0338H152.286ZM60.8736 14.049L60.8699 8.75996L60.0114 8.77569L60.0132 14.0594L60.8736 14.0492V14.049ZM112.47 14.0581L112.466 8.77647L111.612 8.77333L111.615 14.0597L112.47 14.0581ZM122.381 13.119L120.776 13.0862C120.634 13.0833 120.419 12.8119 120.438 12.6853C120.525 12.0936 121.783 12.6643 122.654 12.02C123.45 11.4312 123.478 10.2586 122.834 9.50546L123.749 9.44677L123.755 8.75656L121.081 8.77306C120.078 8.77935 119.428 9.59063 119.433 10.5502C119.436 11.1857 119.686 11.7255 120.161 12.07C119.932 12.2729 119.716 12.5213 119.709 12.711C119.699 12.9594 119.829 13.2471 119.991 13.5107C119.492 13.8194 119.218 14.2858 119.303 14.8922C119.474 16.1193 121.375 16.3326 122.759 15.9047C123.251 15.7527 123.636 15.3198 123.731 14.9336C123.861 14.4069 123.796 13.9067 123.421 13.5275C123.203 13.3066 122.737 13.1263 122.382 13.119H122.381ZM49.4908 31.4816C51.5764 31.2539 53.097 29.6033 53.0936 27.5165L53.0855 22.3931C53.0832 20.9013 52.2246 19.5602 50.9238 18.9286C49.8605 18.4124 48.7391 18.3666 47.5827 18.5581C45.7453 18.8626 44.3118 20.3361 44.3121 22.262L44.3126 27.7463C44.3126 29.1534 45.1441 30.4112 46.3437 31.0278C47.3212 31.5301 48.3501 31.6061 49.4908 31.4814V31.4816ZM61.5648 30.9934C62.9438 30.2587 63.5443 29.0046 63.4731 27.5366C63.4116 26.2668 62.7871 25.238 61.4634 24.7802C62.6849 24.2813 63.2927 23.2248 63.288 21.973C63.2828 20.5507 62.5332 19.3757 61.2008 18.8369C59.808 18.3281 58.2491 18.3136 56.8612 18.8333C55.5226 19.3699 54.7631 20.5507 54.7649 21.9707C54.7664 23.2109 55.338 24.2239 56.511 24.7784C55.2431 25.3064 54.6455 26.288 54.5792 27.5288C54.5005 29.0054 55.1406 30.3446 56.5225 31.001C58.0827 31.7424 59.9652 31.7219 61.5645 30.9937L61.5648 30.9934ZM70.5867 31.4072C72.3667 31.0427 73.7337 29.574 73.7353 27.7287L73.7395 22.2898C73.7408 20.4763 72.4345 19.0185 70.7376 18.6187C69.7727 18.3912 68.8512 18.4006 67.8928 18.6357C66.2058 19.0494 64.9697 20.4993 64.971 22.2974L64.9749 27.7177C64.9762 29.5268 66.2181 30.9604 67.9155 31.3684C68.7918 31.5791 69.6361 31.6019 70.5869 31.4069L70.5867 31.4072ZM82.284 30.9479C83.6119 30.2765 84.1745 29.009 84.1388 27.6315C84.1054 26.3417 83.4997 25.2587 82.163 24.7973C83.3741 24.2121 83.9576 23.2151 83.9526 21.972C83.9469 20.5504 83.189 19.3712 81.8485 18.8327C80.4609 18.322 78.8973 18.3207 77.5097 18.8359C76.1413 19.3919 75.3912 20.6214 75.4301 22.0773C75.4621 23.2748 76.0224 24.2302 77.1918 24.7952C75.8944 25.2771 75.307 26.3082 75.2442 27.5573C75.1704 29.019 75.805 30.3389 77.1861 30.9974C78.745 31.7405 80.6953 31.7513 82.2837 30.9484L82.284 30.9479ZM96.2764 31.0655C97.7306 30.4392 98.4046 29.1217 98.3641 27.6278C98.3292 26.3347 97.7261 25.2747 96.3818 24.7834C97.6166 24.2231 98.2184 23.1538 98.1725 21.8658C98.1261 20.5598 97.4698 19.4821 96.2681 18.9137C94.7472 18.2856 92.9964 18.2893 91.4889 18.9457C90.2535 19.5615 89.6223 20.7218 89.6567 22.0794C89.6872 23.284 90.2689 24.2735 91.432 24.7816C90.1497 25.2598 89.542 26.2775 89.4695 27.5191C89.3759 29.1217 90.1385 30.51 91.6586 31.1156C93.1119 31.6944 94.7913 31.7051 96.2764 31.0658V31.0655ZM105.593 31.3807C107.374 30.973 108.639 29.4561 108.636 27.6207L108.629 22.3019C108.627 20.4246 107.256 18.9569 105.484 18.5846C104.579 18.3946 103.724 18.413 102.821 18.6278C101.156 19.0243 99.8706 20.4424 99.8712 22.2235L99.8733 27.7981C99.874 29.6754 101.31 31.1239 103.092 31.4345C103.925 31.5796 104.714 31.582 105.593 31.3807H105.593ZM110.551 31.3333L118.897 31.3273L118.904 28.8531L113.879 28.8146L116.506 26.588L117.694 25.3905C118.616 24.46 118.904 23.1726 118.76 21.8682C118.598 20.3961 117.691 19.1886 116.269 18.7347C115.028 18.3391 113.65 18.3278 112.434 18.8529C111.131 19.4155 110.318 20.6764 110.161 22.1095L112.31 22.7615C112.767 22.8998 112.653 21.3378 113.866 21.0289C114.52 20.8622 115.275 20.9429 115.71 21.4966C116.226 22.1546 116.179 23.1095 115.688 23.7895C115.284 24.3487 114.8 24.8408 114.279 25.3059L110.123 29.0132L110.551 31.3333ZM127.083 31.0786C128.446 30.462 129.297 29.0986 129.295 27.6297L129.29 22.294C129.288 20.4891 127.998 19.0345 126.308 18.6228C125.299 18.3771 124.313 18.3936 123.309 18.6771C121.716 19.1273 120.528 20.5331 120.53 22.2374L120.534 27.7837C120.535 29.188 121.399 30.4875 122.65 31.0629C124.037 31.7007 125.646 31.7282 127.083 31.0783V31.0786ZM147.311 27.6066C147.269 27.4677 146.986 27.2882 146.853 27.337L144.829 28.0762C145.12 29.9636 146.65 31.2767 148.506 31.4866C149.67 31.6184 150.823 31.5049 151.853 31.0037C153.191 30.3528 153.866 29.0918 153.848 27.6289C153.83 26.2657 153.112 25.1453 151.759 24.7349C153.015 24.2095 153.575 23.197 153.59 21.9722C153.609 20.4865 152.788 19.2557 151.368 18.7638C148.817 17.9885 145.861 18.5867 145.14 21.2849L147.272 22.3768C147.646 21.194 148.518 20.6903 149.614 20.8436C150.466 20.9626 150.992 21.4924 150.952 22.3454C150.919 23.0712 150.373 23.6328 149.536 23.6603L147.891 23.714L147.891 25.951L149.748 26.0213C150.622 26.0543 151.16 26.6986 151.163 27.5162C151.166 28.3243 150.723 28.9034 149.945 29.0842C148.792 29.352 147.686 28.8481 147.31 27.6063L147.311 27.6066ZM157.176 27.3338L155.164 28.0864C155.406 29.6906 156.596 30.9468 158.145 31.3446C159.545 31.7041 161.053 31.5893 162.307 30.9358C163.588 30.2684 164.195 29.0308 164.179 27.6307C164.163 26.2613 163.443 25.1348 162.087 24.7331C163.34 24.2124 163.907 23.2001 163.922 21.9696C163.939 20.4949 163.118 19.2402 161.696 18.7678C159.241 17.9523 156.149 18.6187 155.476 21.2742L157.601 22.3763C157.976 21.1984 158.84 20.6909 159.938 20.8436C160.747 20.9563 161.29 21.4421 161.288 22.2408C161.286 22.9667 160.804 23.6102 159.956 23.6469L158.231 23.7216V25.9487L160.097 26.0197C160.511 26.0354 161.043 26.2878 161.259 26.6502C161.588 27.2023 161.588 28.0217 161.18 28.5311C160.671 29.166 159.799 29.2608 158.979 29.0496C157.717 28.725 157.726 27.1289 157.177 27.3343L157.176 27.3338ZM135.551 31.3333L143.707 31.327L143.693 28.8466L141.002 28.8243L140.996 18.6708L139.155 18.6582L134.708 20.4972L135.621 22.8165L138.398 21.739L138.389 28.8308L135.517 28.8573L135.551 31.3325L135.551 31.3333ZM114.727 42.9505L112.927 39.8399L114.696 37.7713L113.716 37.7352L111.51 40.3113L111.484 35.7023L110.644 35.7091V43.0273L111.483 43.0496L111.507 41.4847L112.337 40.5277L113.749 42.9773C114.009 43.0913 114.487 43.0968 114.727 42.9505H114.727ZM49.5169 40.1038L49.4613 41.2376C49.4251 41.9784 48.7292 42.2603 48.0865 42.3093C47.133 42.3819 46.3234 41.8209 46.3224 40.8141L46.3195 38.2281C46.3184 37.3068 46.9906 36.7253 47.8714 36.7093C48.6525 36.6952 49.2566 37.062 49.4644 37.8835L50.3103 37.6217C49.9987 36.3092 48.9247 35.7961 47.7074 35.859C46.5195 35.9206 45.4377 36.6726 45.4387 37.9545L45.4411 41.094C45.4416 41.91 45.9842 42.6353 46.7121 42.9288C47.3903 43.2024 48.1295 43.2194 48.8238 43.042C49.7437 42.8067 50.3747 42.0064 50.3752 41.046L50.3757 39.2896L48.032 39.292L48.044 40.0964L49.5171 40.1038H49.5169ZM67.6276 42.3078C66.8162 42.3062 66.2098 41.7245 66.209 40.9268L66.2058 38.1133C66.2048 37.2646 66.8819 36.6957 67.6806 36.7111C68.4216 36.7255 68.9222 37.0785 69.1062 37.8864L69.9573 37.6398C69.6984 36.3959 68.7496 35.8422 67.6005 35.8545C66.3792 35.8676 65.3113 36.6962 65.3068 38.0132L65.2967 40.9263C65.292 42.296 66.379 43.1817 67.685 43.1675C68.8638 43.1547 69.8342 42.4933 69.9969 41.2824L69.1547 41.0626C68.9814 41.9173 68.4521 42.3093 67.6279 42.3078H67.6276ZM52.9285 43.1324C53.7076 43.2108 54.2885 42.9393 54.7299 42.3597L54.7975 43.0554L55.5964 43.0305L55.594 39.1463C55.5938 38.5423 55.2248 38.0069 54.6431 37.7983C53.4982 37.3877 51.961 37.7218 51.7625 38.9657L52.576 39.1785C52.7275 38.6901 53.0013 38.4217 53.5152 38.3733C53.8132 38.345 54.3216 38.4162 54.5107 38.6534C54.7975 39.0134 54.7868 39.5372 54.7143 39.9429L52.9497 40.0624C52.084 40.1211 51.5404 40.8196 51.5592 41.6071C51.5777 42.379 52.0368 43.043 52.9283 43.1327L52.9285 43.1324ZM60.9114 43.032L60.9213 39.5558C60.9224 39.1439 61.3591 38.6591 61.7366 38.5142C61.9968 38.4144 62.3741 38.4574 62.5574 38.5852C62.705 38.6882 62.8896 39.0517 62.8898 39.2466L62.8938 43.0449L63.7693 43.009L63.7565 39.0163C63.7552 38.6177 63.5049 38.1385 63.2332 37.9231C62.4964 37.339 61.4423 37.6545 60.8381 38.5297C60.6767 38.2671 60.4387 37.9026 60.2092 37.792C59.39 37.3974 58.6039 37.7488 58.0999 38.46L58.0303 37.737L57.1999 37.7459L57.2009 43.0441L58.0624 43.0404L58.0796 39.5603C58.0817 39.1368 58.5484 38.6534 58.9207 38.5132C59.1593 38.4233 59.5037 38.4589 59.6721 38.5572C59.8301 38.6494 60.0369 39.0142 60.0377 39.2139L60.0489 43.0365L60.9117 43.0323L60.9114 43.032ZM72.3266 43.1348C73.0994 43.2149 73.6889 42.933 74.1225 42.3591L74.1822 43.0554L74.9907 43.0318L74.9868 39.1476C74.9863 38.5412 74.6181 38.0103 74.0385 37.8002C72.8978 37.3869 71.3261 37.7239 71.16 38.9689L71.9284 39.1607C72.0671 38.9377 72.2236 38.6434 72.3795 38.5454C72.8115 38.2737 73.4793 38.2842 73.8545 38.6193C74.1879 38.917 74.1824 39.5364 74.1037 39.9408L72.3458 40.0616C71.48 40.1211 70.9311 40.8215 70.9501 41.6071C70.9689 42.3859 71.4281 43.042 72.3263 43.135L72.3266 43.1348ZM83.4048 41.5654C83.1152 42.2483 82.7405 42.3832 82.169 42.4142C81.7312 42.4377 81.2262 42.2438 81.0275 41.9173C80.804 41.5497 80.7733 41.0615 80.865 40.6894L84.0848 40.6737C84.143 39.9803 84.1683 39.3318 83.9419 38.7461C83.6126 37.8937 82.7467 37.5979 81.9017 37.634C80.8022 37.6812 79.9629 38.433 79.966 39.5784L79.9705 41.2483C79.9736 42.4372 80.9422 43.1932 82.0735 43.1594C82.9561 43.1332 83.7563 42.8892 84.1007 41.9496L83.4046 41.5651L83.4048 41.5654ZM92.0896 41.192L92.0883 39.5818C92.0872 38.3447 91.157 37.6377 89.9985 37.6196C88.8062 37.601 87.8172 38.307 87.8175 39.5805L87.818 41.2381C87.8183 42.4723 88.7504 43.1542 89.894 43.1714C91.0897 43.1895 92.0909 42.5318 92.0899 41.1923L92.0896 41.192ZM79.1768 38.5307L79.2162 37.7176C78.4877 37.5832 77.986 37.9016 77.4935 38.4686L77.4129 37.7391L76.5924 37.7433L76.5901 43.0307L77.4557 43.0423L77.4893 39.673C77.4972 38.8905 78.4087 38.4343 79.1768 38.5307ZM96.1388 38.532L96.1742 37.6922C95.3769 37.6036 94.8588 37.9765 94.4104 38.5593L94.3765 37.7347L93.5719 37.7438L93.5687 43.0373L94.4349 43.0339L94.4836 39.575C94.4941 38.8292 95.4658 38.4393 96.1385 38.5323L96.1388 38.532ZM100.23 42.1482L98.4311 42.0898C98.2619 42.0842 98.0035 41.8791 97.9981 41.7216C97.9751 41.0445 99.4483 41.6964 100.334 40.9323C101.031 40.3315 101.035 39.2747 100.452 38.5077L101.366 38.4225L101.329 37.7292L98.6246 37.7614C97.6098 37.7734 96.9452 38.6015 96.9679 39.5689C96.9833 40.2201 97.2524 40.7311 97.7274 41.0851C97.4693 41.2607 97.2492 41.5085 97.2362 41.7499C97.225 41.9566 97.3856 42.2616 97.5306 42.4993C97.0493 42.8035 96.764 43.2501 96.8172 43.7993C96.9452 45.1223 98.9769 45.3435 100.378 44.875C101.027 44.6577 101.393 44.1284 101.387 43.4429C101.382 42.802 100.963 42.1723 100.23 42.1484L100.23 42.1482ZM108.986 37.7378L108.123 37.7488L108.096 41.2413C108.092 41.8542 107.345 42.3177 106.814 42.3434C106.264 42.3699 105.836 41.9897 105.834 41.4603L105.819 37.7441L104.947 37.7433L104.958 41.6637C104.959 42.1602 105.274 42.7427 105.694 42.9597C106.583 43.4199 107.476 43.0569 108.112 42.3502L108.166 43.0577L108.988 43.0286L108.986 37.7378ZM86.372 43.0433L86.3464 41.3052L85.5267 41.3078L85.5113 43.0433H86.3722H86.372ZM103.391 43.0058L103.371 41.3228L102.527 41.3057L102.519 43.0527L103.391 43.0058H103.391Z" fill="#FAFAFA"/>
<path d="M26.5621 28.5962L22.1046 28.5946C21.8021 28.5946 21.5166 28.3302 21.5166 28.0202L21.5161 23.7629C21.5161 23.4694 21.8078 23.1903 22.115 23.1903L31.9118 23.1924C32.2072 23.1924 32.4541 23.4794 32.4523 23.7519L32.4048 30.7517C32.233 34.5256 29.9704 37.7369 26.5751 39.2379C23.4249 40.6306 19.1943 40.5706 16.0318 39.3073C11.9227 37.6659 9.86445 33.7639 9.86523 29.4051L9.8668 20.8246C9.8668 19.3226 10.1408 17.9215 10.6456 16.5303C11.6234 13.8355 13.6798 11.8123 16.4005 10.8603C19.0754 9.92435 21.9711 9.77787 24.738 10.4196C28.437 11.2773 30.9022 13.9398 31.9725 17.5444C32.0737 17.8851 31.8411 18.3196 31.5006 18.4202L26.9034 19.7802C26.5448 19.8863 26.269 19.4227 26.1882 19.1439C25.7533 17.6414 24.7593 16.4295 23.2468 16.0254C21.9685 15.684 20.6408 15.723 19.3682 16.0668C17.062 16.6902 16.0649 18.7862 16.0652 21.1383L16.0665 29.1963C16.067 31.5405 17.0836 33.6334 19.389 34.2413C20.8014 34.6139 22.2607 34.6003 23.6593 34.2185C26.2049 33.3973 26.6802 31.2787 26.5621 28.5959V28.5962Z" fill="#FAFAFA"/>
<path d="M81.0229 28.7178C80.3007 29.4295 79.0617 29.3781 78.3663 28.7508C77.8899 28.3211 77.8626 27.6018 78.019 27.0111C78.1752 26.421 78.7386 26.077 79.2171 25.9268C79.8029 25.7429 80.4031 25.9129 80.9056 26.3246C81.5524 26.8547 81.6972 28.0535 81.0229 28.7178Z" fill="#FAFAFA"/>
<path d="M80.7666 23.2917C80.0175 23.892 79.1203 23.8008 78.5094 23.1937C77.9851 22.6727 77.9095 21.6073 78.565 21.0541C79.1649 20.5481 80.1925 20.5515 80.801 21.0494C81.4784 21.6033 81.4304 22.7595 80.7666 23.2914V23.2917Z" fill="#FAFAFA"/>
<path d="M60.3669 28.7207C59.6554 29.407 58.4106 29.4068 57.7113 28.7435C57.0631 28.1288 57.132 26.9441 57.7536 26.371C58.1895 25.9691 58.7866 25.7715 59.3318 25.8873C59.8214 25.9911 60.4086 26.304 60.6373 26.859C60.8722 27.4294 60.8706 28.2352 60.3669 28.721V28.7207Z" fill="#FAFAFA"/>
<path d="M60.5838 22.4425C60.4696 23.2263 59.7469 23.6665 59.0802 23.6909C58.3572 23.7173 57.6016 23.2477 57.4793 22.4981C57.4008 22.017 57.4767 21.5264 57.7617 21.1826C58.3024 20.5309 59.6736 20.5314 60.2436 21.1244C60.5442 21.4376 60.6605 21.9187 60.5841 22.4422L60.5838 22.4425Z" fill="#FAFAFA"/>
<path d="M95.1655 28.8027C94.4745 29.3724 93.3557 29.3787 92.6789 28.8192C92.0343 28.2865 91.9921 27.2504 92.446 26.6063C92.9177 25.9376 93.8347 25.6564 94.6281 26.0086C95.1389 26.2353 95.5352 26.6755 95.6171 27.1013C95.7378 27.7299 95.6906 28.3698 95.1655 28.8027Z" fill="#FAFAFA"/>
<path d="M95.2572 22.9981C94.918 23.5007 94.3321 23.7203 93.8156 23.6906C93.3332 23.6629 92.7748 23.4076 92.5122 22.9111C92.2288 22.3752 92.2408 21.5645 92.709 21.1258C93.3507 20.5247 94.474 20.5223 95.1182 21.1276C95.5946 21.5752 95.624 22.4549 95.2572 22.9983V22.9981Z" fill="#FAFAFA"/>
<path d="M69.521 29.05C68.4611 29.1199 67.644 28.4648 67.645 27.4067L67.65 22.5113C67.651 21.497 68.4478 20.9417 69.3562 20.9409C70.2591 20.9401 71.0632 21.4991 71.0627 22.5126L71.0611 27.5076C71.0609 28.4101 70.3916 28.9929 69.521 29.0502V29.05Z" fill="#FAFAFA"/>
<path d="M48.7658 29.0541C47.7447 29.0832 46.9826 28.4427 46.9834 27.4323L46.9865 22.4968C46.987 21.5254 47.7432 20.9738 48.6245 20.9432C49.5495 20.9112 50.3977 21.4785 50.398 22.5136L50.3985 27.5086C50.3985 28.4354 49.67 29.0284 48.766 29.0541H48.7658Z" fill="#FAFAFA"/>
<path d="M104.232 29.0538C103.287 29.0418 102.54 28.4482 102.539 27.4858L102.536 22.5324C102.535 21.5157 103.351 20.923 104.282 20.9408C105.176 20.9581 105.954 21.5351 105.955 22.5196L105.963 27.4053C105.965 28.4013 105.246 29.0666 104.231 29.0538H104.232Z" fill="#FAFAFA"/>
<path d="M124.998 29.0518C123.933 29.0911 123.19 28.4177 123.19 27.3832L123.194 22.5496C123.195 21.5612 123.942 20.9661 124.855 20.9412C125.768 20.9163 126.618 21.4923 126.618 22.5121V27.509C126.618 28.4261 125.891 29.0191 124.998 29.0518Z" fill="#FAFAFA"/>
<path d="M145.47 12.0048C145.484 12.5173 145.118 12.8577 144.692 12.8915C144.267 12.9253 143.737 12.6402 143.727 12.0978L143.702 10.7625C143.693 10.3044 144.044 9.969 144.397 9.89459C144.826 9.80418 145.415 9.98892 145.429 10.507L145.47 12.0048H145.47Z" fill="#FAFAFA"/>
<path d="M162.365 10.8743L160.589 10.8735C160.449 10.221 160.888 9.76168 161.483 9.76221C162.054 9.76273 162.484 10.2134 162.365 10.8743Z" fill="#FAFAFA"/>
<path d="M137.062 10.8671L135.257 10.8745C135.144 10.2692 135.524 9.814 136.041 9.76945C136.633 9.71835 137.129 10.0745 137.062 10.8671Z" fill="#FAFAFA"/>
<path d="M99.019 40.7009C98.2733 40.7353 97.7819 40.2859 97.7712 39.5715C97.762 38.9455 98.1304 38.4804 98.7979 38.4298C99.0824 38.4084 99.4758 38.4836 99.7152 38.661C99.9339 38.8232 100.083 39.249 100.096 39.5564C100.126 40.2361 99.6891 40.67 99.0188 40.7009H99.019Z" fill="#FAFAFA"/>
<path d="M100.176 44.1939C99.5032 44.549 98.7288 44.5272 98.0723 44.2565C97.7542 44.1252 97.5832 43.7157 97.6338 43.4209C97.682 43.1415 98.0233 42.8187 98.3419 42.8208L99.9175 42.8321C100.142 42.8337 100.471 43.1318 100.525 43.3268C100.597 43.5854 100.474 44.0364 100.176 44.1939H100.176Z" fill="#FAFAFA"/>
<path d="M122.282 11.3975C121.762 11.8058 121.011 11.8543 120.541 11.397C120.146 11.0134 120.109 10.26 120.464 9.82869C120.895 9.30566 121.808 9.28706 122.243 9.7865C122.631 10.233 122.583 10.8803 122.281 11.3975H122.282Z" fill="#FAFAFA"/>
<path d="M122.483 15.2714C121.836 15.5188 121.153 15.5222 120.544 15.2817C120.228 15.1572 120.06 14.7867 120.086 14.4803C120.113 14.174 120.436 13.8349 120.788 13.8336L122.202 13.8281C122.543 13.8268 122.893 14.1054 122.948 14.392C123.012 14.7298 122.872 15.1229 122.483 15.2714Z" fill="#FAFAFA"/>
<path d="M106.742 12.5407C106.63 13.2338 105.933 13.4372 105.415 13.358C104.832 13.2692 104.354 12.7952 104.356 12.1244L104.361 10.6554C104.363 10.0508 104.828 9.5907 105.299 9.48012C105.878 9.34412 106.578 9.53986 106.723 10.2094C106.875 10.9098 106.866 11.7787 106.742 12.5407H106.742Z" fill="#FAFAFA"/>
<path d="M54.0201 11.5786C54.1528 12.1897 54.0613 12.6965 53.6561 13.0631C53.2715 13.4108 52.6552 13.5811 52.13 13.2777C51.8372 13.1084 51.715 12.6517 51.7778 12.3427C51.8411 12.0306 52.171 11.6863 52.5391 11.6648L54.0204 11.5786H54.0201Z" fill="#FAFAFA"/>
<path d="M76.2996 11.5781C76.5424 12.1585 76.3611 12.7107 75.976 13.0621C75.5909 13.4134 74.9876 13.577 74.4419 13.2759C74.1582 13.1194 74.0302 12.6129 74.1087 12.3019C74.1731 12.0469 74.5047 11.6861 74.8591 11.6649L76.2996 11.5781Z" fill="#FAFAFA"/>
<path d="M90.0663 42.3682C89.2483 42.4222 88.6865 41.911 88.6919 41.1432L88.7034 39.5775C88.7089 38.8268 89.3078 38.3892 90.0011 38.4125C90.6456 38.4343 91.2064 38.8375 91.2064 39.534V41.2918C91.2064 41.912 90.6965 42.3266 90.0663 42.3682Z" fill="#FAFAFA"/>
<path d="M54.6901 40.5806C54.8484 41.0232 54.76 41.5776 54.4552 41.9293C54.1669 42.2618 53.6952 42.4717 53.1961 42.4151C52.7417 42.3635 52.4379 41.9971 52.4092 41.6193C52.3748 41.1628 52.6374 40.6982 53.1534 40.6686L54.6901 40.5806Z" fill="#FAFAFA"/>
<path d="M74.0852 40.5796C74.2437 41.0245 74.1537 41.5759 73.8503 41.928C73.5632 42.2611 73.0905 42.4699 72.594 42.4157C72.1331 42.3654 71.8215 42.004 71.7988 41.6196C71.7717 41.1587 72.0301 40.6928 72.5476 40.6642L74.0852 40.5796Z" fill="#FAFAFA"/>
<path d="M83.2866 40.0464L80.8662 40.0697C80.744 39.5318 80.8352 38.9786 81.2182 38.656C81.6044 38.3308 82.2322 38.2617 82.7232 38.5339C83.1529 38.7721 83.3596 39.237 83.2866 40.0464Z" fill="#FAFAFA"/>
<path d="M64.503 13.3794C63.7604 13.4069 63.1871 12.9462 63.1949 12.2256L63.2142 10.4723C63.2215 9.80937 63.7784 9.44933 64.3578 9.42653C65.0649 9.39875 65.6726 9.84003 65.6708 10.5939L65.6669 12.2707C65.6654 12.9237 65.1718 13.355 64.5027 13.3797L64.503 13.3794Z" fill="#FAFAFA"/>
<path d="M93.0022 11.5796C93.0919 12.1791 93.0411 12.6199 92.6886 12.986C92.3379 13.3502 91.819 13.5506 91.2801 13.362C90.864 13.2163 90.6702 12.8104 90.7284 12.3919C90.775 12.0568 91.1109 11.6765 91.534 11.6548L93.002 11.5796H93.0022Z" fill="#FAFAFA"/>
</g>
<defs>
<clipPath id="clip0_796_7298">
<rect width="176" height="50.0109" fill="white"/>
</clipPath>
</defs>
</svg>
