<svg width="176" height="24" viewBox="0 0 176 24" fill="none" xmlns="http://www.w3.org/2000/svg">
<g clip-path="url(#clip0_796_7328)">
<path d="M113.835 22.7904L112.263 16.8735H104.633L103.061 22.7904H99.916L106.189 0.496582H110.873L117.178 22.7904H113.843H113.835ZM105.336 14.3247H111.543L108.44 2.72265L105.336 14.3247Z" fill="#ED6923"/>
<path d="M129.815 22.7901L126.943 11.4198H126.728L123.824 22.7901H120.72L116.624 6.92627H119.736L122.359 18.3214L122.574 18.3297L125.479 6.92627H128.458L131.296 18.3297L131.511 18.3214L134.226 6.92627H137.048L132.96 22.7901H129.815Z" fill="#ED6923"/>
<path d="M142.625 23.171C139.754 23.171 137.751 21.3091 137.751 18.6527C137.751 15.6322 140.465 14.424 142.079 13.9689L147.143 12.5289V11.8669C147.143 10.0794 146.051 9.0533 144.14 9.0533C142.402 9.0533 141.061 10.1787 140.498 11.3042L140.457 11.3952L138.115 10.1456L138.231 9.92221C139.034 8.28369 141.078 6.5376 144.437 6.5376C148.145 6.5376 150.28 8.37472 150.28 11.5773V20.0347C150.28 21.185 150.346 22.0621 150.478 22.6331L150.512 22.7904H147.392L147.375 22.7159C147.276 22.2608 147.218 21.8139 147.185 21.3505L147.168 21.0939L146.995 21.276C145.803 22.5421 144.421 23.1462 142.633 23.171M143.527 15.8474C142.427 16.1949 140.97 16.8404 140.97 18.4293C140.97 19.8609 142.004 20.8539 143.494 20.8539C145.091 20.8539 146.415 19.9023 147.119 19.0085L147.143 18.9754V14.7385L143.527 15.8474Z" fill="#ED6923"/>
<path d="M153.739 22.7904V6.92656H156.636V10.1374L156.826 9.90568C158.605 7.82857 160.384 6.7776 162.263 6.70312V9.5995C159.946 9.64087 158.175 10.9732 156.9 12.14L156.867 12.1731V22.7904H153.748H153.739Z" fill="#ED6923"/>
<path d="M169.736 23.171C165.482 23.171 162.834 20.0678 162.834 15.0778C162.834 9.80636 165.466 6.5376 169.703 6.5376C170.911 6.5376 172.632 6.81896 173.997 8.15956C175.321 9.45879 175.992 11.4532 175.992 14.0764V15.475H165.896V15.7812C165.896 18.8017 167.443 20.7464 169.835 20.7464C171.391 20.7464 172.574 20.043 173.344 18.661L173.493 18.3962L175.926 19.4389L175.818 19.654C174.651 21.9794 172.607 23.1628 169.744 23.1628M169.711 9.0202C168.925 9.0202 166.326 9.33466 165.937 13.3648V13.4889H173.071V13.1496C173.071 10.5594 171.813 9.0202 169.711 9.0202Z" fill="#ED6923"/>
<path d="M0 12.0903C0 4.05492 3.50875 0 9.03668 0C12.8599 0 15.7563 1.86195 16.559 6.0741L16.6831 6.75268L13.4061 7.45608L13.2819 6.84371C12.6696 4.01354 11.0972 2.9212 8.97047 2.9212C5.98307 2.9212 3.59977 5.52793 3.59977 11.8586C3.59977 17.8416 5.75136 20.3491 8.78014 20.3491C10.9317 20.3491 13.4474 19.2236 13.4474 15.268V14.5894H8.72221V11.7924H16.7327V22.8896H13.8695L13.6791 20.1587C12.6199 22.3765 10.5262 23.2785 8.08501 23.2785C3.18601 23.2868 0 19.3891 0 12.0903Z" fill="white"/>
<path d="M29.0716 21.3589C28.0703 22.4181 26.7545 23.2539 24.6361 23.287C21.6156 23.287 19.6543 21.2596 19.6543 18.6528C19.6543 15.8227 22.0045 14.4407 24.0568 13.8614L29.0385 12.4463V11.8671C29.0385 10.063 27.9131 9.16101 26.1422 9.16101C24.5036 9.16101 23.1879 10.1872 22.6086 11.3457L22.5093 11.536L19.9688 10.1872L20.1343 9.86442C20.8377 8.41623 22.7989 6.42188 26.4401 6.42188C30.0812 6.42188 32.39 8.259 32.39 11.5691V20.0265C32.39 20.8292 32.4232 21.8885 32.5804 22.6002L32.6466 22.8898H29.3033L29.2702 22.7326C29.1709 22.2857 29.113 21.8306 29.0799 21.3506M25.505 20.7465C26.9863 20.7465 28.302 19.8776 29.0468 18.9425V14.8876L25.5712 15.9468C24.2554 16.3688 23.0968 17.0391 23.0968 18.4211C23.0968 19.8031 24.032 20.7382 25.505 20.7382" fill="white"/>
<path d="M51.8124 9.32608C50.4966 9.32608 49.1146 10.2281 48.3367 10.9977V22.8976H44.9935V11.8004C44.9935 10.1619 44.1577 9.32608 42.5523 9.32608C41.2365 9.32608 39.8545 10.2281 39.0766 10.9977V22.8976H35.7334V6.81865H38.9194V8.58958C40.1442 7.3069 41.882 6.43799 43.6777 6.43799C45.9286 6.43799 47.2775 7.46413 47.923 8.87921C49.1477 7.43103 51.0097 6.43799 52.9378 6.43799C56.248 6.43799 57.6051 8.65578 57.6051 11.0722V22.9059H54.2619V11.8087C54.2619 10.1702 53.4261 9.33436 51.8207 9.33436" fill="white"/>
<path d="M64.4488 21.4168L64.1261 22.8981H61.2959V0.38916H64.6391V8.14316C65.6074 7.05081 67.0804 6.43844 68.6279 6.43844C72.2938 6.43844 74.7682 9.1693 74.7682 14.6393C74.7682 20.1093 72.1614 23.2953 68.4954 23.2953C66.8569 23.2953 65.3425 22.6167 64.4405 21.4251M67.8582 20.581C69.7533 20.581 71.367 18.8432 71.367 14.7303C71.367 10.6175 69.6954 9.1693 67.8003 9.1693C66.5176 9.1693 65.4501 9.81478 64.6474 10.6506V19.0418C65.4832 19.9107 66.5756 20.581 67.8665 20.581" fill="white"/>
<path d="M80.8833 0.38916H77.54V22.8981H80.8833V0.38916Z" fill="white"/>
<path d="M83.8379 15.0862C83.8379 10.0051 86.3784 6.43018 90.814 6.43018C93.9338 6.43018 97.2108 8.3004 97.2108 14.0849V15.5993H87.1149V15.7896C87.1149 18.9094 88.7534 20.6472 90.9381 20.6472C92.3532 20.6472 93.5449 20.0679 94.3476 18.6198L94.5379 18.2639L97.1777 19.3894L97.0205 19.7121C95.8289 22.0954 93.7104 23.2788 90.8471 23.2788C86.7922 23.2788 83.8379 20.4155 83.8379 15.0779M94.0662 13.3815V13.158C94.0662 10.2286 92.527 9.13621 90.8223 9.13621C89.1176 9.13621 87.4459 10.4189 87.1563 13.3815H94.0662Z" fill="white"/>
</g>
<defs>
<clipPath id="clip0_796_7328">
<rect width="176" height="23.2868" fill="white"/>
</clipPath>
</defs>
</svg>
