<svg width="71" height="52" viewBox="0 0 71 52" fill="none" xmlns="http://www.w3.org/2000/svg">
<g clip-path="url(#clip0_796_7289)">
<path d="M34.2901 11.4298C34.2901 11.3042 34.1645 11.3042 34.0389 11.3042L33.9133 11.4298L32.6572 14.9467C32.6572 15.0723 32.6572 15.1979 32.7828 15.1979H35.2949C35.4205 15.1979 35.4205 15.0723 35.4205 15.0723V14.9467L34.2901 11.4298Z" fill="#FAFAFA"/>
<path d="M68.9565 25.2464C69.7101 25.2464 70.2126 24.744 70.2126 23.9903V1.25604C70.2126 0.502415 69.7101 0 68.9565 0H12.3092C5.52657 0 0 5.52657 0 12.3092V23.9903C0 24.744 0.502415 25.2464 1.25604 25.2464M23.7391 21.1014C23.7391 21.2271 23.6135 21.2271 23.6135 21.2271H19.8454C19.7198 21.2271 19.7198 21.1014 19.7198 21.1014C19.7198 20.9758 19.5942 20.9758 19.5942 20.9758C19.2174 21.1014 18.8406 21.2271 18.4638 21.2271C17.9614 21.3527 17.5845 21.3527 17.0821 21.3527C15.9517 21.3527 14.8213 21.1014 13.8164 20.599C12.686 20.2222 11.6812 19.4686 10.9275 18.715C10.0483 17.9614 9.42029 16.9565 9.04348 15.8261C8.66667 14.8213 8.41546 13.6908 8.41546 12.5604C8.41546 11.43 8.66667 10.2995 9.04348 9.29469C9.42029 8.16425 10.1739 7.15942 10.9275 6.4058C11.8068 5.52657 12.686 4.89855 13.8164 4.52174C15.9517 3.64251 18.3382 3.64251 20.4734 4.52174C21.4783 4.89855 22.4831 5.52657 23.2367 6.28019C23.3204 6.36393 23.3204 6.44766 23.2367 6.5314L20.599 9.16908C20.5153 9.25282 20.4316 9.25282 20.3478 9.16908C19.971 8.79227 19.4686 8.41546 18.9662 8.28985C17.8357 7.78744 16.5797 7.78744 15.4493 8.28985C14.8213 8.54106 14.3188 8.91787 13.942 9.29469C12.058 11.1787 12.058 14.0676 13.942 15.9517C14.3188 16.3285 14.8213 16.7053 15.3237 16.9565C15.8261 17.2077 16.3285 17.3333 16.9565 17.3333C17.4589 17.3333 18.087 17.3333 18.5894 17.2077C19.0918 17.0821 19.5942 16.8309 19.971 16.5797L20.0966 16.4541V15.8261C20.0966 15.7005 19.971 15.7005 19.971 15.7005H16.8309C16.7053 15.7005 16.7053 15.5749 16.7053 15.5749V11.6812C16.7053 11.5556 16.8309 11.5556 16.8309 11.5556H23.9903C24.1159 11.5556 24.1159 11.6812 24.1159 11.6812V21.1014H23.7391ZM41.5749 21.3527H37.6812C37.5556 21.3527 37.5556 21.2271 37.5556 21.2271L36.9275 19.4686C36.9275 19.343 36.8019 19.343 36.8019 19.343H31.5266C31.4428 19.343 31.401 19.3849 31.401 19.4686L30.7729 21.3527C30.7729 21.4783 30.6473 21.4783 30.6473 21.4783H26.7536C26.628 21.4783 26.628 21.3527 26.628 21.3527L32.4058 4.27053C32.4058 4.14493 32.5314 4.14493 32.5314 4.14493H36.0483C36.132 4.14493 36.1739 4.1868 36.1739 4.27053L41.7005 21.1014C41.7005 21.2271 41.7005 21.3527 41.5749 21.3527ZM61.9227 21.3527H58.2802C58.1546 21.3527 58.1546 21.2271 58.1546 21.2271L57.7778 15.1981C57.7778 15.0725 57.6522 15.0725 57.6522 15.0725C57.5266 15.0725 57.5266 15.1981 57.5266 15.1981L55.5169 21.3527C55.5169 21.4783 55.3913 21.4783 55.3913 21.4783H51.6232C51.5394 21.4783 51.4976 21.4364 51.4976 21.3527L49.2367 14.9469C49.2367 14.8213 49.1111 14.8213 49.1111 14.8213C48.9855 14.8213 48.9855 14.9469 48.9855 14.9469L48.2319 21.1014C48.2319 21.2271 48.1063 21.2271 48.1063 21.2271H44.4638C44.3382 21.2271 44.3382 21.1014 44.3382 21.1014L45.4686 4.01932C45.4686 3.89372 45.5942 3.89372 45.5942 3.89372H49.4879C49.5717 3.89372 49.6135 3.93559 49.6135 4.01932L53.256 14.3188C53.256 14.4444 53.3816 14.4444 53.5072 14.4444L53.6328 14.3188L57.1498 4.01932C57.1498 3.89372 57.2754 3.89372 57.2754 3.89372H61.1691C61.2947 3.89372 61.2947 4.01932 61.2947 4.01932L62.0483 21.1014C62.0483 21.2271 62.0483 21.3527 61.9227 21.3527Z" fill="#FAFAFA"/>
<path d="M59.6622 35.6713C59.411 35.4201 59.0342 35.1689 58.6574 34.9177C58.2806 34.7921 58.0294 34.6665 57.6526 34.6665C57.5688 34.6665 57.4851 34.7084 57.4014 34.7921V41.0723C57.4014 41.1979 57.527 41.1979 57.527 41.1979C57.9038 41.1979 58.2806 41.0723 58.5318 40.9467C58.9086 40.8211 59.2854 40.5699 59.5366 40.1931C59.7878 39.9419 60.039 39.5651 60.1647 39.1882C60.5415 38.4346 60.5415 37.4298 60.1647 36.6762C60.1647 36.2994 59.9134 35.9225 59.6622 35.6713Z" fill="#FAFAFA"/>
<path d="M69.0825 26.7534H1.38202C0.753996 26.7534 0.125977 27.2558 0.125977 28.0095V50.7438C0.125977 51.4974 0.628392 51.9998 1.38202 51.9998H58.155C64.9376 51.9998 70.4641 46.4732 70.4641 39.6906V28.0095C70.3385 27.3814 69.8361 26.7534 69.0825 26.7534ZM15.9521 45.3428C15.0728 46.5988 13.8168 47.4781 12.1839 47.8549C11.8071 47.9805 11.3047 47.9805 10.9279 47.9805C10.4255 47.9805 9.79747 47.8549 9.29506 47.7293C8.79264 47.6037 8.16462 47.3525 7.78781 46.9756C6.90858 46.4732 6.28057 45.7196 5.77815 44.8404C5.27573 43.9611 5.02453 43.0819 5.02453 42.0771C5.02453 41.9515 5.15013 41.9515 5.15013 41.9515H8.91825C9.04385 41.9515 9.04385 42.0771 9.04385 42.0771C9.04385 42.4539 9.16945 42.7051 9.29506 42.9563C9.54627 43.3331 9.79747 43.5843 9.92308 43.7099C10.1743 43.9611 10.5511 43.9611 10.8023 43.9611C11.1791 43.9611 11.4303 43.9611 11.8071 43.7099C12.0583 43.5843 12.1839 43.4587 12.3096 43.3331C12.4352 43.2075 12.5608 43.0819 12.5608 42.9563C12.6864 42.8307 12.6864 42.7051 12.6864 42.5795V41.9515C12.6864 41.8259 12.6864 41.7003 12.5608 41.5747C12.4352 41.4491 12.4352 41.3235 12.3096 41.1979C12.1839 41.0723 11.9327 40.9467 11.8071 40.8211L11.3047 40.5698L10.6767 40.3186L9.42066 39.9418C9.04385 39.8162 8.54143 39.565 8.16462 39.3138C7.66221 38.937 7.15979 38.5602 6.78298 38.0578C6.02936 37.0529 5.65255 35.7969 5.77815 34.5409C5.77815 33.9128 6.02936 33.2848 6.28057 32.6568C6.53177 32.1544 6.90859 31.652 7.2854 31.2752C7.66221 30.8983 8.16462 30.5215 8.66704 30.2703C9.16945 30.0191 9.79747 29.8935 10.2999 29.8935C10.9279 29.8935 11.5559 29.8935 12.1839 30.0191C12.812 30.1447 13.3144 30.3959 13.8168 30.6471C14.3192 30.8983 14.696 31.2752 15.0728 31.7776C15.4496 32.1544 15.7009 32.6568 15.8265 33.1592C15.9521 33.6616 16.0777 34.164 16.0777 34.6665C16.0777 34.7921 15.9521 34.7921 15.9521 34.7921H12.3096C12.3096 35.0433 12.3096 34.9177 12.3096 34.7921C12.3096 34.5409 12.1839 34.2897 11.9327 34.164C11.8071 34.0384 11.5559 33.9128 11.3047 33.9128H10.8023C10.6767 33.9128 10.4255 34.0384 10.2999 34.0384C10.1743 34.164 10.0487 34.2896 9.92308 34.4153C9.79747 34.7921 9.79747 35.0433 9.79747 35.2945C9.92308 35.5457 10.0487 35.7969 10.2999 35.9225C10.5511 36.1737 10.8023 36.1737 11.0535 36.2993L11.9327 36.5505L12.812 36.8017C13.0632 36.9273 13.3144 37.0529 13.6912 37.1785C15.7009 38.0578 17.0825 40.0674 17.0825 42.2027C16.9569 43.3331 16.5801 44.4636 15.9521 45.3428ZM30.3965 34.4153C30.3965 34.5409 30.2709 34.5409 30.2709 34.5409H27.1308V47.7293C27.1308 47.8549 27.0052 47.8549 27.0052 47.8549H23.3627C23.2371 47.8549 23.2371 47.7293 23.2371 47.7293V34.6665H19.8458C19.7202 34.6665 19.7202 34.5409 19.7202 34.5409V30.8983C19.7202 30.7727 19.8458 30.7727 19.8458 30.7727H30.1453C30.2709 30.7727 30.2709 30.8983 30.2709 30.8983V34.4153H30.3965ZM48.9859 42.7051C48.4835 43.7099 47.8554 44.7148 47.1018 45.4684C46.3482 46.222 45.3434 46.9756 44.3385 47.3525C42.2033 48.2317 39.6912 48.2317 37.5559 47.3525C35.4207 46.4732 33.7878 44.8404 32.9086 42.7051C32.0294 40.5698 32.0294 38.0578 32.9086 35.9225C33.7878 33.7872 35.4207 32.1544 37.5559 31.2752C38.6864 30.7727 39.8168 30.5215 40.9472 30.5215C42.0777 30.5215 43.2081 30.7727 44.3385 31.1496C45.3434 31.652 46.3482 32.28 47.1018 33.0336C47.8554 33.7872 48.4835 34.7921 48.9859 35.7969C49.9907 38.0578 49.9907 40.4442 48.9859 42.7051ZM64.0583 40.6954C63.6815 41.5747 63.1791 42.3283 62.5511 42.9563C61.9231 43.5843 61.1695 44.2124 60.2902 44.5892C59.411 44.966 58.5318 45.2172 57.6525 45.2172C57.5269 45.2172 57.5269 45.3428 57.5269 45.3428V47.7293C57.5269 47.8549 57.4013 47.8549 57.4013 47.8549H53.7588C53.6332 47.8549 53.6332 47.7293 53.6332 47.7293V30.7727C53.6332 30.6471 53.7588 30.6471 53.7588 30.6471H57.5269C58.5318 30.6471 59.411 30.8983 60.2902 31.2752C61.1695 31.652 61.9231 32.1544 62.5511 32.908C63.1791 33.536 63.6815 34.4153 64.0583 35.1689C64.4352 36.0481 64.6864 37.0529 64.5608 37.9322C64.6864 38.937 64.4352 39.8162 64.0583 40.6954Z" fill="#FAFAFA"/>
<path d="M42.8312 34.9178C41.7008 34.4154 40.3191 34.4154 39.1887 34.9178C38.0583 35.4202 37.179 36.2995 36.6766 37.4299C36.1742 38.5603 36.1742 39.942 36.6766 41.0724C37.179 42.2029 38.0583 43.0821 39.1887 43.5845C39.8167 43.8357 40.4447 43.9613 41.0728 43.9613C41.7008 43.9613 42.3288 43.8357 42.9568 43.5845C44.0872 43.0821 44.9665 42.2029 45.4689 41.0724C45.9713 39.942 45.9713 38.5603 45.4689 37.4299C44.8409 36.2995 43.9616 35.4202 42.8312 34.9178Z" fill="#FAFAFA"/>
</g>
<defs>
<clipPath id="clip0_796_7289">
<rect width="70.4638" height="52" fill="white"/>
</clipPath>
</defs>
</svg>
