<svg width="45" height="40" viewBox="0 0 45 40" fill="none" xmlns="http://www.w3.org/2000/svg">
<path d="M44.5082 20.0002C44.5082 32.2908 34.5447 42.2543 22.2541 42.2543C9.9635 42.2543 0 32.2908 0 20.0002C0 7.7096 9.9635 -2.25391 22.2541 -2.25391C34.5447 -2.25391 44.5082 7.7096 44.5082 20.0002Z" fill="#FF002A"/>
<path d="M35.7143 9.7011C36.132 9.90994 36.7167 10.2023 37.4686 10.62L33.7512 18.013C31.9969 16.4258 29.825 15.5069 27.653 15.5069C26.5671 15.5069 25.7317 16.1334 25.7317 16.9688C25.7317 17.8459 26.2329 18.1383 28.7808 18.7648C30.7021 19.266 32.2893 19.8925 33.2917 20.6026C35.1713 21.8556 36.3408 24.2782 36.3408 26.826C36.3408 32.423 30.911 36.9757 24.1863 36.9757C21.5967 36.9757 18.4641 36.2239 15.7491 34.9708C15.1644 34.6784 14.2872 34.2608 13.1595 33.6342L16.9186 26.116C18.5894 28.1626 21.2625 29.4157 23.8939 29.4157C25.314 29.4157 26.2329 28.7891 26.2329 27.7867C26.2329 26.826 25.4393 26.2413 23.6015 25.8236C21.6802 25.4477 20.636 25.1135 19.6336 24.5706C17.0022 23.2757 15.6238 20.9367 15.6238 17.7206C15.6238 12.1654 20.7195 7.738 27.0683 7.738C29.9085 7.738 32.9158 8.40629 35.7143 9.7011Z" fill="#0E3E79"/>
<path d="M30.5932 6.28704C31.0109 6.49588 31.5956 6.78826 32.3475 7.20594L28.6301 14.5989C26.8758 13.0117 24.7039 12.0928 22.5319 12.0928C21.446 12.0928 20.6106 12.7193 20.6106 13.5547C20.6106 14.4318 21.1118 14.7242 23.6597 15.3507C25.581 15.8519 27.1682 16.4785 28.1706 17.1885C30.0502 18.4416 31.2197 20.8641 31.2197 23.412C31.2197 29.0089 25.7899 33.5616 19.0652 33.5616C16.4756 33.5616 13.343 32.8098 10.628 31.5568C10.0433 31.2644 9.16615 30.8467 8.03841 30.2202L11.7975 22.7019C13.4683 24.7486 16.1414 26.0016 18.7728 26.0016C20.1929 26.0016 21.1118 25.3751 21.1118 24.3726C21.1118 23.412 20.3182 22.8272 18.4804 22.4095C16.5591 22.0336 15.5149 21.6995 14.5125 21.1565C11.8811 19.8617 10.5027 17.5227 10.5027 14.3065C10.5027 8.75136 15.5984 4.32394 21.9472 4.32394C24.7874 4.32394 27.7947 4.99223 30.5932 6.28704Z" fill="white"/>
</svg>
