<svg width="84" height="84" viewBox="0 0 84 84" fill="none" xmlns="http://www.w3.org/2000/svg">
<path d="M84 42C84 65.196 65.196 84 42 84C18.804 84 0 65.196 0 42C0 18.804 18.804 0 42 0C65.196 0 84 18.804 84 42Z" fill="#7BFF00"/>
<path d="M64.4034 20.225C65.2339 20.5201 66.3965 20.9333 67.9009 21.5428L62.6378 36.2465C58.9867 33.6768 54.7068 32.455 50.6382 32.9546C48.604 33.2044 47.1833 34.5701 47.3754 36.1349C47.5771 37.778 48.5833 38.2104 53.5001 38.798C57.2145 39.295 60.3317 40.1035 62.3728 41.2031C66.1819 43.118 68.9298 47.387 69.5158 52.1597C70.8031 62.644 61.6789 72.4212 49.0821 73.9679C44.2312 74.5635 38.1902 73.8757 32.8163 72.1529C31.6537 71.7397 29.9145 71.159 27.6579 70.2448L32.9704 55.2968C36.5708 58.7463 41.8664 60.4787 46.7956 59.8735C49.4558 59.5469 51.033 58.1619 50.8024 56.2841C50.5815 54.4846 48.9604 53.5717 45.4217 53.212C41.7362 52.9497 39.7033 52.564 37.7006 51.7774C32.4736 49.9572 29.3537 45.8927 28.614 39.8681C27.3363 29.4621 35.8634 19.9965 47.756 18.5362C53.0764 17.883 58.8635 18.4431 64.4034 20.225Z" fill="#373737"/>
<path d="M54.7393 13.7825C55.5698 14.0777 56.7324 14.4909 58.2368 15.1004L52.9737 29.804C49.3226 27.2344 45.0427 26.0126 40.9741 26.5122C38.9399 26.7619 37.5192 28.1277 37.7113 29.6925C37.913 31.3356 38.9192 31.768 43.836 32.3556C47.5504 32.8526 50.6676 33.6611 52.7087 34.7607C56.5178 36.6756 59.2657 40.9446 59.8517 45.7173C61.139 56.2016 52.0148 65.9788 39.418 67.5255C34.5671 68.1211 28.5261 67.4332 23.1522 65.7105C21.9896 65.2973 20.2504 64.7166 17.9938 63.8024L23.3063 48.8544C26.9067 52.3039 32.2023 54.0363 37.1315 53.4311C39.7917 53.1044 41.3689 51.7195 41.1383 49.8417C40.9174 48.0421 39.2963 47.1293 35.7576 46.7696C32.0721 46.5073 30.0392 46.1216 28.0365 45.335C22.8095 43.5147 19.6896 39.4503 18.9499 33.4257C17.6722 23.0196 26.1993 13.554 38.0919 12.0938C43.4123 11.4406 49.1994 12.0007 54.7393 13.7825Z" fill="white"/>
</svg>
