<svg width="241" height="84" viewBox="0 0 241 84" fill="none" xmlns="http://www.w3.org/2000/svg">
<path d="M108.443 42C108.443 65.196 89.6469 84 66.4603 84C43.2737 84 24.4772 65.196 24.4772 42C24.4772 18.804 43.2737 0 66.4603 0C89.6469 0 108.443 18.804 108.443 42Z" fill="#7BFF00"/>
<path d="M87.414 21.9576C88.2441 22.2528 89.4063 22.666 90.9101 23.2754L85.6491 37.9791C81.9994 35.4095 77.7213 34.1877 73.6544 34.6873C71.6209 34.937 70.2008 36.3028 70.3928 37.8676C70.5945 39.5107 71.6002 39.9431 76.5151 40.5307C80.2279 41.0277 83.3439 41.8362 85.3842 42.9358C89.1917 44.8507 91.9386 49.1197 92.5243 53.8924C93.8111 64.3767 84.6906 74.1539 72.0989 75.7005C67.2499 76.2962 61.2113 75.6083 55.8396 73.8855C54.6775 73.4723 52.939 72.8917 50.6833 71.9775L55.9937 57.0294C59.5926 60.479 64.8861 62.2114 69.8133 61.6062C72.4724 61.2795 74.049 59.8946 73.8185 58.0168C73.5976 56.2172 71.9772 55.3044 68.44 54.9447C64.7559 54.6824 62.7238 54.2966 60.722 53.5101C55.4971 51.6898 52.3784 47.6254 51.639 41.6008C50.3618 31.1947 58.8854 21.7291 70.7733 20.2689C76.0915 19.6156 81.8763 20.1758 87.414 21.9576Z" fill="#373737"/>
<path d="M77.7552 15.5152C78.5853 15.8103 79.7475 16.2235 81.2513 16.833L75.9903 31.5367C72.3406 28.967 68.0625 27.7453 63.9956 28.2448C61.9621 28.4946 60.542 29.8604 60.734 31.4252C60.9357 33.0682 61.9414 33.5006 66.8562 34.0882C70.5691 34.5852 73.6851 35.3938 75.7254 36.4933C79.5329 38.4082 82.2798 42.6772 82.8655 47.4499C84.1523 57.9343 75.0318 67.7114 62.4401 69.2581C57.5911 69.8537 51.5525 69.1659 46.1808 67.4431C45.0187 67.0299 43.2802 66.4493 41.0245 65.535L46.3349 50.587C49.9338 54.0366 55.2273 55.769 60.1545 55.1637C62.8136 54.8371 64.3902 53.4521 64.1597 51.5743C63.9388 49.7748 62.3184 48.862 58.7812 48.5022C55.0971 48.24 53.065 47.8542 51.0632 47.0676C45.8383 45.2474 42.7196 41.1829 41.9802 35.1584C40.703 24.7523 49.2266 15.2867 61.1145 13.8265C66.4327 13.1732 72.2175 13.7334 77.7552 15.5152Z" fill="white"/>
<path d="M91.2366 26.4312L96.3009 25.8091L96.2837 51.8461L91.2194 52.4682L91.2366 26.4312Z" fill="#373737"/>
<path d="M108.243 33.9133C110.775 33.6023 113.38 34.1751 115.118 35.5331C116.46 36.5824 117.599 38.2996 117.88 40.5865C118.161 42.8733 117.584 45.4441 116.138 47.3359C114.199 49.8598 111.53 50.5091 109.244 50.7898C107.239 51.0361 104.672 51.0657 102.413 49.2361C101.027 48.1207 99.8748 46.298 99.5898 43.9759C99.3092 41.6891 99.8725 39.2985 101.362 37.4728C102.878 35.5723 105.36 34.2675 108.243 33.9133ZM108.998 46.463C110.264 46.3075 111.224 45.6896 111.814 44.9743C112.59 44.0219 112.852 42.6683 112.705 41.4721C112.558 40.2759 111.985 39.3821 111.318 38.8926C110.572 38.3414 109.403 38.1278 108.454 38.2445C107.504 38.3611 106.492 38.8425 105.774 39.6807C104.928 40.6417 104.631 41.9997 104.778 43.1959C104.911 44.2865 105.45 45.1846 106.126 45.7445C106.683 46.2117 107.627 46.6315 108.998 46.463Z" fill="#373737"/>
<path d="M129.516 35.9787L126.421 36.3588L126.404 48.1462L121.34 48.7683L121.357 36.9809L119.528 37.2055L119.52 33.0639L121.348 32.8392L121.36 27.6952L126.424 27.0731L126.413 32.2172L129.508 31.837L129.516 35.9787Z" fill="#373737"/>
<path d="M144.234 37.3493L144.23 32.957L155.203 31.6092C155.753 37.5415 153.825 40.7425 152.811 42.0812C150.48 45.189 147.485 46.0925 144.566 46.4511C141.576 46.8183 138.36 46.4991 135.544 44.2023C132.806 41.9672 131.863 38.9403 131.557 36.4423C131.013 32.0093 132.259 28.7848 133.912 26.5462C136.486 23.0872 139.762 22.1491 143.068 21.743C145.178 21.4838 147.613 21.5419 149.892 22.6548C151.564 23.485 153.139 24.9702 154.208 26.4102L149.538 29.6623C148.999 28.7642 148.096 27.8038 147.029 27.2563C145.695 26.5631 144.341 26.5865 143.321 26.7118C141.422 26.9451 139.896 27.5968 138.639 29.2868C137.291 31.0953 136.837 33.5081 137.087 35.5486C137.308 37.343 138.222 39.2663 139.639 40.3422C141.298 41.6384 143.223 41.6162 144.665 41.4391C145.755 41.3052 147.206 40.9127 148.263 39.9257C149.034 39.2239 149.709 38.0339 149.896 36.6538L144.234 37.3493Z" fill="#373737"/>
<path d="M170.964 28.6732L170.872 26.7561L175.936 26.134L175.928 42.0631L170.863 42.6852L171.03 40.8433C170.549 41.5809 169.827 42.3839 169.03 42.8746C168.001 43.5011 166.778 43.7226 166.18 43.7961C164.246 44.0337 162.638 43.7312 161.09 42.4572C159.778 41.3683 158.604 39.6555 158.271 36.9464C157.917 34.0614 158.652 31.6141 159.974 29.8803C161.389 28.028 163.281 27.1528 165.461 26.885C166.376 26.7727 167.514 26.74 168.594 27.1072C169.227 27.3153 170.14 27.7745 170.964 28.6732ZM167.087 31.1137C165.821 31.2692 164.919 31.7729 164.24 32.6419C163.623 33.432 163.269 34.6183 163.429 35.9201C163.589 37.2218 164.22 38.0014 164.777 38.4687C165.61 39.152 166.559 39.3211 167.579 39.1958C169.021 39.0187 169.866 38.3435 170.333 37.7861C171.14 36.7942 171.398 35.4055 171.255 34.2444C171.117 33.1186 170.574 32.1853 169.833 31.6693C169.324 31.3032 168.459 30.9452 167.087 31.1137Z" fill="#373737"/>
<path d="M180.03 41.5592L180.039 25.6301L185.103 25.008L185.046 26.8721C185.509 25.9938 186.152 25.4148 186.711 25.0247C187.077 24.8013 187.939 24.2668 189.311 24.0983C190.542 23.9471 191.53 24.1471 192.254 24.5224C192.597 24.6946 193.519 25.2242 194.131 26.4347C194.303 26.0921 194.882 24.9854 195.956 24.1392C196.964 23.3368 198.138 23.014 199.193 22.8844C200.318 22.7462 202.063 22.7104 203.555 23.8128C205.679 25.4091 205.621 27.8447 205.616 29.8452L205.633 38.4143L200.569 39.0363L200.555 31.3597C200.54 30.0759 200.528 29.6846 200.493 29.4031C200.428 28.8754 200.232 28.1495 199.64 27.6865C199.284 27.4088 198.691 27.2316 198.058 27.3094C197.249 27.4087 196.62 27.8074 196.219 28.321C195.756 28.9135 195.35 29.9634 195.35 31.9991L195.364 39.6757L190.299 40.2977L190.299 32.4409C190.292 31.799 190.297 31.2626 190.228 30.6997C190.168 30.2071 190.037 29.4374 189.445 28.9745C189.011 28.635 188.317 28.506 187.754 28.5751C187.156 28.6485 186.444 28.9504 185.919 29.6219C185.09 30.7236 185.092 32.1877 185.089 33.3309L185.094 40.9371L180.03 41.5592Z" fill="#373737"/>
<path d="M214.145 27.2619L220.51 26.48C220.349 25.7498 219.859 24.953 219.24 24.5647C218.621 24.1765 217.72 24.1086 217.087 24.1863C215.856 24.3375 215.182 24.956 214.812 25.43C214.477 25.8997 214.199 26.541 214.145 27.2619ZM225.743 28.98L214.032 30.4185C214.092 31.1968 214.459 32.1517 214.955 32.698C215.735 33.5306 216.706 33.5899 217.515 33.4906C218.113 33.4171 218.882 33.2869 219.463 32.787C219.882 32.4142 220.23 31.7642 220.381 31.2457L225.532 31.0415C225.094 32.7025 224.185 34.3141 223.163 35.2967C221.533 36.854 219.405 37.2582 217.963 37.4353C216.029 37.6729 213.678 37.7118 211.585 36.076C209.887 34.7489 209.201 32.9404 208.942 30.8295C208.519 27.3816 209.645 24.9219 210.795 23.5307C212.474 21.5031 214.783 20.8266 216.752 20.5847C219.425 20.2564 221.533 20.8546 222.871 21.8687C225.236 23.6853 225.725 27.0894 225.743 28.98Z" fill="#373737"/>
<path d="M240.017 19.3341L238.256 22.7289C237.488 22.2876 236.403 21.8851 235.172 22.0363C234.68 22.0968 234.024 22.2844 233.712 22.6442C233.522 22.8461 233.42 23.18 233.455 23.4615C233.489 23.7429 233.634 24.0466 234.051 24.2454C234.165 24.3028 234.424 24.3781 235.334 24.5164L236.533 24.6904C237.333 24.8065 238.431 25.0287 239.422 25.8355C240.331 26.5453 240.799 27.4521 240.95 28.6835C241.187 30.6185 240.534 31.9844 239.948 32.735C238.476 34.7015 236.04 35.215 234.668 35.3834C233.332 35.5476 231.978 35.571 230.494 35.1105C229.567 34.8315 228.689 34.3679 227.868 33.7902L229.595 30.114C230.222 30.5726 231.021 30.9744 231.689 31.1781C231.873 31.2269 232.84 31.5368 233.93 31.4028C234.563 31.3251 235.042 31.1591 235.434 30.8609C235.826 30.5628 236.002 30.2554 235.942 29.7629C235.877 29.2352 235.596 28.9839 235.329 28.8383C234.986 28.666 234.481 28.621 234.042 28.5321L232.873 28.3185C231.999 28.1759 230.892 27.8833 230.063 27.2352C229.624 26.8605 228.848 26.063 228.662 24.5502C228.476 23.0373 228.95 21.6578 229.69 20.7097C231.114 18.9278 233.527 18.5242 234.653 18.3859C235.813 18.2434 237.69 18.12 240.017 19.3341Z" fill="#373737"/>
<path d="M89.395 24.2941L94.4592 23.672L94.442 49.709L89.3777 50.3311L89.395 24.2941Z" fill="white"/>
<path d="M106.402 31.7762C108.934 31.4652 111.539 32.038 113.276 33.396C114.619 34.4453 115.758 36.1625 116.038 38.4494C116.319 40.7363 115.742 43.307 114.296 45.1988C112.357 47.7227 109.688 48.372 107.402 48.6528C105.397 48.899 102.831 48.9286 100.571 47.099C99.1851 45.9836 98.0332 44.1609 97.7482 41.8389C97.4675 39.552 98.0309 37.1614 99.5203 35.3357C101.036 33.4352 103.518 32.1304 106.402 31.7762ZM107.157 44.3259C108.423 44.1704 109.382 43.5526 109.973 42.8372C110.748 41.8848 111.01 40.5312 110.864 39.335C110.717 38.1388 110.143 37.245 109.476 36.7555C108.73 36.2043 107.562 35.9907 106.612 36.1074C105.662 36.224 104.651 36.7054 103.932 37.5436C103.086 38.5047 102.789 39.8626 102.936 41.0588C103.07 42.1494 103.608 43.0475 104.284 43.6074C104.841 44.0746 105.785 44.4944 107.157 44.3259Z" fill="white"/>
<path d="M127.674 33.8416L124.58 34.2218L124.563 46.0092L119.498 46.6312L119.515 34.8438L117.687 35.0685L117.678 30.9268L119.507 30.7021L119.518 25.5581L124.582 24.936L124.571 30.0801L127.666 29.6999L127.674 33.8416Z" fill="white"/>
<path d="M142.392 35.2122L142.389 30.8199L153.361 29.4721C153.911 35.4044 151.983 38.6054 150.97 39.9441C148.638 43.0519 145.643 43.9555 142.724 44.314C139.735 44.6812 136.518 44.362 133.702 42.0652C130.964 39.8301 130.022 36.8032 129.715 34.3052C129.171 29.8722 130.417 26.6478 132.07 24.4091C134.645 20.9501 137.921 20.012 141.227 19.6059C143.337 19.3467 145.771 19.4048 148.05 20.5177C149.723 21.348 151.297 22.8331 152.366 24.2731L147.696 27.5252C147.158 26.6271 146.254 25.6667 145.188 25.1192C143.853 24.426 142.499 24.4494 141.479 24.5747C139.58 24.808 138.054 25.4597 136.798 27.1497C135.449 28.9582 134.995 31.371 135.246 33.4116C135.466 35.2059 136.38 37.1292 137.798 38.2051C139.456 39.5013 141.381 39.4791 142.823 39.302C143.913 39.1681 145.364 38.7756 146.421 37.7886C147.192 37.0869 147.867 35.8968 148.055 34.5167L142.392 35.2122Z" fill="white"/>
<path d="M169.123 26.5361L169.03 24.619L174.094 23.9969L174.086 39.926L169.022 40.5481L169.188 38.7062C168.708 39.4438 167.985 40.2468 167.189 40.7375C166.159 41.364 164.937 41.5856 164.339 41.659C162.404 41.8966 160.797 41.5941 159.248 40.3201C157.936 39.2313 156.762 37.5184 156.43 34.8093C156.076 31.9243 156.81 29.477 158.133 27.7432C159.548 25.8909 161.439 25.0157 163.62 24.7479C164.534 24.6356 165.672 24.6029 166.753 24.9702C167.385 25.1782 168.298 25.6374 169.123 26.5361ZM165.245 28.9766C163.979 29.1321 163.077 29.6358 162.399 30.5048C161.782 31.2949 161.427 32.4812 161.587 33.783C161.747 35.0847 162.378 35.8643 162.935 36.3316C163.769 37.0149 164.718 37.184 165.738 37.0587C167.179 36.8816 168.025 36.2064 168.492 35.649C169.298 34.6572 169.556 33.2684 169.414 32.1073C169.276 30.9815 168.733 30.0482 167.991 29.5322C167.482 29.1662 166.617 28.8081 165.245 28.9766Z" fill="white"/>
<path d="M178.189 39.4221L178.197 23.493L183.261 22.8709L183.204 24.735C183.668 23.8567 184.311 23.2777 184.87 22.8876C185.235 22.6642 186.098 22.1297 187.469 21.9612C188.7 21.81 189.688 22.01 190.413 22.3853C190.755 22.5575 191.677 23.0872 192.29 24.2976C192.462 23.955 193.04 22.8483 194.114 22.0021C195.122 21.1997 196.296 20.8769 197.351 20.7473C198.477 20.6091 200.222 20.5733 201.714 21.6757C203.837 23.272 203.779 25.7076 203.775 27.7081L203.791 36.2772L198.727 36.8993L198.713 29.2227C198.698 27.9388 198.686 27.5475 198.651 27.266C198.587 26.7383 198.39 26.0124 197.798 25.5495C197.443 25.2717 196.85 25.0945 196.217 25.1723C195.408 25.2716 194.778 25.6704 194.377 26.1839C193.915 26.7764 193.508 27.8263 193.508 29.862L193.522 37.5386L188.458 38.1607L188.457 30.3038C188.45 29.6619 188.456 29.1255 188.386 28.5626C188.326 28.07 188.196 27.3003 187.604 26.8374C187.169 26.4979 186.475 26.3689 185.912 26.438C185.314 26.5115 184.602 26.8133 184.077 27.4848C183.249 28.5866 183.25 30.0506 183.247 31.1938L183.253 38.8L178.189 39.4221Z" fill="white"/>
<path d="M212.303 25.1249L218.668 24.343C218.507 23.6128 218.017 22.8159 217.398 22.4276C216.779 22.0394 215.878 21.9715 215.245 22.0492C214.014 22.2004 213.341 22.8189 212.971 23.2929C212.635 23.7626 212.357 24.4039 212.303 25.1249ZM223.902 26.8429L212.191 28.2814C212.25 29.0597 212.617 30.0146 213.113 30.5609C213.893 31.3936 214.864 31.4528 215.673 31.3535C216.271 31.28 217.041 31.1498 217.622 30.6499C218.04 30.2771 218.389 29.6271 218.539 29.1087L223.691 28.9045C223.252 30.5654 222.343 32.177 221.321 33.1596C219.692 34.7169 217.564 35.1211 216.122 35.2983C214.188 35.5359 211.836 35.5747 209.743 33.939C208.046 32.6119 207.359 30.8033 207.1 28.6924C206.677 25.2445 207.803 22.7848 208.953 21.3936C210.632 19.366 212.941 18.6895 214.91 18.4476C217.583 18.1193 219.691 18.7175 221.03 19.7316C223.395 21.5482 223.884 24.9523 223.902 26.8429Z" fill="white"/>
<path d="M238.175 17.197L236.414 20.5918C235.646 20.1505 234.561 19.748 233.33 19.8992C232.838 19.9597 232.183 20.1473 231.87 20.5071C231.68 20.709 231.579 21.0429 231.613 21.3244C231.648 21.6058 231.792 21.9095 232.209 22.1083C232.323 22.1657 232.583 22.241 233.492 22.3793L234.691 22.5534C235.491 22.6694 236.589 22.8916 237.581 23.6984C238.489 24.4082 238.957 25.315 239.108 26.5464C239.346 28.4814 238.692 29.8473 238.106 30.5979C236.634 32.5644 234.198 33.0779 232.827 33.2463C231.49 33.4105 230.137 33.4339 228.652 32.9734C227.725 32.6944 226.847 32.2309 226.027 31.6531L227.753 27.9769C228.381 28.4355 229.18 28.8373 229.847 29.041C230.032 29.0898 230.998 29.3997 232.088 29.2658C232.721 29.188 233.201 29.022 233.592 28.7239C233.984 28.4257 234.161 28.1184 234.1 27.6258C234.035 27.0981 233.755 26.8468 233.487 26.7012C233.144 26.529 232.639 26.4839 232.2 26.395L231.031 26.1814C230.157 26.0388 229.05 25.7462 228.221 25.0981C227.782 24.7234 227.006 23.9259 226.82 22.4131C226.635 20.9002 227.108 19.5207 227.848 18.5726C229.272 16.7907 231.686 16.3871 232.811 16.2488C233.971 16.1063 235.848 15.9829 238.175 17.197Z" fill="white"/>
<path d="M17.3483 38.7255L15.124 42.9986C13.4828 41.8431 12.0329 41.6641 10.9778 41.7937C10.3096 41.8757 9.37301 42.0979 8.83561 42.6639C8.39075 43.1114 8.15627 43.8188 8.234 44.452C8.32036 45.1557 8.69733 45.6094 9.23719 45.9359C9.78137 46.2976 10.4489 46.5013 11.6743 46.8865L13.1236 47.3513C14.3137 47.7408 15.4422 48.2093 16.4948 49.2229C17.4684 50.1747 17.9539 51.2221 18.1396 52.735C18.4418 55.1978 17.7249 57.5001 16.5217 59.0407C14.8515 61.1386 12.4767 61.8589 10.0852 62.1526C8.36194 62.3643 6.96446 62.3217 5.27824 61.6717C4.03996 61.181 2.79797 60.3693 1.84166 59.5582L4.39115 55.3166C4.96556 55.9246 5.82994 56.5684 6.58945 56.9394C7.38412 57.306 8.4077 57.5017 9.42759 57.3764C10.2365 57.2771 11.3316 56.8925 11.9394 56.3179C12.512 55.7476 12.7643 54.8952 12.6564 54.0156C12.5527 53.1713 12.1054 52.7262 11.7895 52.4793C11.5921 52.325 11.0874 51.9941 9.79606 51.6528L8.3554 51.2583C7.95127 51.1651 6.06268 50.6114 4.79479 49.5886C3.5269 48.5658 2.94079 47.2807 2.75943 45.8031C2.46147 43.3755 3.23028 41.4954 4.21749 40.2313C5.88773 38.1333 8.27117 37.4834 10.2758 37.2372C12.2804 36.991 14.649 37.0929 17.3483 38.7255Z" fill="#373737"/>
<path d="M35.3736 34.69L35.3723 39.3329L27.7759 40.266L27.7703 44.8737L34.804 44.0097L34.8026 48.6525L27.7689 49.5165L27.7385 59.4485L22.3225 60.1138L22.3613 36.2884L35.3736 34.69Z" fill="#373737"/>
<path d="M15.5066 36.5886L13.2823 40.8617C11.6411 39.7062 10.1912 39.5272 9.13615 39.6568C8.46795 39.7389 7.53136 39.9611 6.99395 40.5271C6.54909 40.9745 6.31462 41.6819 6.39234 42.3152C6.47871 43.0188 6.85568 43.4725 7.39553 43.799C7.93971 44.1608 8.60729 44.3645 9.83262 44.7497L11.2819 45.2145C12.4721 45.604 13.6005 46.0725 14.6531 47.086C15.6267 48.0378 16.1122 49.0853 16.2979 50.5981C16.6002 53.0609 15.8832 55.3632 14.68 56.9038C13.0098 59.0018 10.635 59.722 8.24354 60.0158C6.52028 60.2274 5.1228 60.1848 3.43658 59.5348C2.1983 59.0441 0.956315 58.2324 0 57.4213L2.54949 53.1797C3.1239 53.7877 3.98828 54.4315 4.74779 54.8025C5.54246 55.1692 6.56604 55.3648 7.58593 55.2396C8.39481 55.1402 9.48997 54.7557 10.0977 54.1811C10.6703 53.6107 10.9227 52.7583 10.8147 51.8788C10.7111 51.0344 10.2638 50.5894 9.94787 50.3424C9.75044 50.1881 9.24575 49.8573 7.9544 49.5159L6.51374 49.1215C6.10961 49.0283 4.22102 48.4746 2.95313 47.4518C1.68524 46.429 1.09913 45.1439 0.917767 43.6662C0.619815 41.2386 1.38863 39.3585 2.37584 38.0944C4.04607 35.9965 6.42952 35.3466 8.43412 35.1003C10.4387 34.8541 12.8073 34.956 15.5066 36.5886Z" fill="white"/>
<path d="M33.532 32.5532L33.5306 37.196L25.9342 38.1291L25.9286 42.7368L32.9623 41.8728L32.961 46.5157L25.9273 47.3797L25.8968 57.3116L20.4809 57.9769L20.5196 34.1515L33.532 32.5532Z" fill="white"/>
</svg>
