<svg width="84" height="84" viewBox="0 0 84 84" fill="none" xmlns="http://www.w3.org/2000/svg">
<path d="M84 42C84 65.196 65.196 84 42 84C18.804 84 0 65.196 0 42C0 18.804 18.804 0 42 0C65.196 0 84 18.804 84 42Z" fill="#FF33FF"/>
<path d="M65.2153 43.6546L65.3511 44.1144C70.9721 44.6155 74.5231 48.3094 75.2532 54.2557C76.3868 63.4882 69.6538 70.748 59.4042 72.0065L30.1421 75.5994L30.1501 22.6248L53.5442 19.7524C61.916 18.7245 67.2212 20.5351 70.4468 25.4602C71.538 27.2324 72.2669 29.2872 72.4686 30.9303C73.2275 37.1113 70.6167 41.7206 65.2153 43.6546ZM50.9345 32.7801L48.2743 33.1068L48.2576 40.7332L49.9007 40.5315C53.9692 40.0319 55.6247 38.6373 55.2692 35.7424C54.981 33.3952 53.4382 32.4727 50.9345 32.7801ZM51.4804 51.4564L48.2725 51.8503L48.2819 60.9825L49.5338 60.8288C55.0889 60.1467 57.3414 58.4405 56.8515 54.4503C56.5441 51.9465 54.923 51.0337 51.4804 51.4564Z" fill="#8E2C8E"/>
<path d="M55.5518 37.2116L55.6877 37.6715C61.3087 38.1726 64.8596 41.8665 65.5897 47.8128C66.7233 57.0453 59.9903 64.305 49.7408 65.5635L20.4786 69.1565L20.4866 16.1819L43.8807 13.3095C52.2525 12.2816 57.5578 14.0922 60.7834 19.0173C61.8746 20.7894 62.6034 22.8443 62.8052 24.4874C63.5641 30.6684 60.9532 35.2777 55.5518 37.2116ZM41.271 26.3372L38.6108 26.6639L38.5942 34.2903L40.2373 34.0885C44.3058 33.589 45.9612 32.1944 45.6058 29.2995C45.3176 26.9523 43.7747 26.0298 41.271 26.3372ZM41.8169 45.0135L38.609 45.4073L38.6185 54.5396L39.8703 54.3859C45.4254 53.7038 47.678 51.9976 47.188 48.0073C46.8806 45.5036 45.2595 44.5908 41.8169 45.0135Z" fill="white"/>
</svg>
