<svg width="204" height="84" viewBox="0 0 204 84" fill="none" xmlns="http://www.w3.org/2000/svg">
<path d="M119.022 42C119.022 65.196 100.247 84 77.0867 84C53.9267 84 35.1518 65.196 35.1518 42C35.1518 18.804 53.9267 0 77.0867 0C100.247 0 119.022 18.804 119.022 42Z" fill="#FF33FF"/>
<path d="M100.195 43.0854L100.331 43.5453C105.943 44.0464 109.488 47.7403 110.217 53.6866C111.349 62.919 104.627 70.1788 94.3928 71.4373L65.176 75.0302L65.184 22.0557L88.5418 19.1833C96.9007 18.1553 102.198 19.966 105.418 24.8911C106.508 26.6632 107.236 28.7181 107.437 30.3611C108.195 36.5422 105.588 41.1515 100.195 43.0854ZM85.9362 32.211L83.2801 32.5376L83.2635 40.164L84.904 39.9623C88.9663 39.4627 90.6191 38.0682 90.2642 35.1733C89.9765 32.826 88.436 31.9036 85.9362 32.211ZM86.4813 50.8872L83.2783 51.2811L83.2877 60.4133L84.5376 60.2596C90.0842 59.5775 92.3332 57.8714 91.844 53.8811C91.5371 51.3774 89.9185 50.4645 86.4813 50.8872Z" fill="#8E2C8E"/>
<path d="M90.5475 36.6429L90.6831 37.1028C96.2954 37.6039 99.8408 41.2978 100.57 47.2441C101.702 56.4765 94.9791 63.7363 84.7454 64.9948L55.5286 68.5877L55.5366 15.6132L78.8944 12.7408C87.2533 11.7128 92.5503 13.5235 95.7709 18.4486C96.8604 20.2207 97.5881 22.2756 97.7896 23.9186C98.5473 30.0997 95.9405 34.709 90.5475 36.6429ZM76.2888 25.7685L73.6327 26.0951L73.6161 33.7215L75.2566 33.5198C79.3189 33.0202 80.9717 31.6257 80.6168 28.7308C80.3291 26.3835 78.7886 25.4611 76.2888 25.7685ZM76.8339 44.4447L73.6309 44.8386L73.6403 53.9708L74.8902 53.8171C80.4368 53.135 82.6858 51.4289 82.1966 47.4386C81.8897 44.9349 80.2711 44.022 76.8339 44.4447Z" fill="white"/>
<path d="M109.233 36.1406L116.306 35.271L116.294 57.541L109.222 58.4107L109.233 36.1406ZM108.431 26.7526C108.148 24.4408 109.742 22.3974 112.05 22.1135C114.359 21.8296 116.399 23.4261 116.682 25.738C116.966 28.0498 115.372 30.0932 113.063 30.3771C110.755 30.661 108.715 29.0645 108.431 26.7526Z" fill="#8E2C8E"/>
<path d="M122.364 34.5259L129.436 33.6562L129.388 36.1087C130.114 35.1206 130.963 34.3172 131.836 33.7106C133.305 32.6811 134.521 32.4318 136.043 32.2445C137.86 32.0211 140.101 31.9952 141.969 33.4131C143.893 34.8741 144.312 37.0695 144.475 38.3975C144.565 39.1354 144.649 40.2235 144.644 42.6208L144.699 54.048L137.626 54.9177L137.641 45.2794C137.659 42.9805 137.544 42.0459 137.502 41.7016C137.399 40.8654 137.125 39.8506 136.292 39.1542C135.41 38.4638 134.311 38.4491 133.575 38.5397C132.347 38.6907 131.303 39.1187 130.527 40.1128C129.413 41.5979 129.378 43.7492 129.375 44.9478L129.425 55.9263L122.353 56.796L122.364 34.5259Z" fill="#8E2C8E"/>
<path d="M166.713 31.7683L166.633 29.0819L173.705 28.2122L173.656 50.5867C173.626 53.1868 173.368 56.3642 171.343 58.9599C168.801 62.2183 164.712 63.0207 162.158 63.3348C159.211 63.6972 156.008 63.5918 153.324 61.6251C151.62 60.3367 150.176 58.3174 149.543 55.9986L157.106 55.0685C157.399 55.8314 157.993 56.6072 158.698 57.0697C159.562 57.6125 160.722 57.7196 161.9 57.5746C164.061 57.3089 165.119 56.1802 165.581 55.4743C166.339 54.3326 166.57 52.5567 166.554 51.2105L166.559 48.8132C164.939 51.8585 162.175 52.4979 160.211 52.7395C158.001 53.0113 155.662 53.0492 153.114 50.966C151.398 49.5792 149.667 47.2457 149.19 43.3599C148.72 39.5232 149.636 36.0153 151.612 33.4257C153.458 31.0017 155.885 29.6547 159.077 29.2621C160.6 29.0749 163.718 28.8912 166.713 31.7683ZM161.157 35.2476C159.193 35.4892 158.055 36.378 157.452 37.1511C156.591 38.2557 156.175 40.1542 156.374 41.7774C156.543 43.1547 157.221 44.6191 158.318 45.4329C159.305 46.1604 160.789 46.4771 162.017 46.3261C163.343 46.163 164.86 45.5271 165.722 44.4225C166.676 43.2567 167.165 41.1494 166.966 39.5262C166.797 38.1489 166.033 36.7949 165.102 36.1106C164.33 35.5065 163.122 35.006 161.157 35.2476Z" fill="#8E2C8E"/>
<path d="M190.447 25.4045C193.983 24.9697 197.62 25.7706 200.047 27.6691C201.921 29.1361 203.512 31.5369 203.904 34.7341C204.296 37.9314 203.49 41.5255 201.471 44.1704C198.763 47.6989 195.036 48.6067 191.844 48.9992C189.044 49.3435 185.46 49.3848 182.305 46.827C180.369 45.2676 178.76 42.7193 178.362 39.4729C177.97 36.2756 178.757 32.9335 180.837 30.3809C182.954 27.7239 186.419 25.8997 190.447 25.4045ZM191.501 42.95C193.269 42.7325 194.609 41.8688 195.433 40.8686C196.516 39.5371 196.883 37.6447 196.678 35.9723C196.472 34.2999 195.671 33.0503 194.74 32.366C193.698 31.5954 192.066 31.2967 190.74 31.4598C189.414 31.6229 188.001 32.2959 186.998 33.4678C185.817 34.8114 185.402 36.7099 185.607 38.3823C185.794 39.9071 186.546 41.1627 187.489 41.9454C188.267 42.5987 189.585 43.1855 191.501 42.95Z" fill="#8E2C8E"/>
<path d="M24.8714 38.4456L21.7651 44.4197C19.4733 42.8042 17.4485 42.5539 15.9751 42.7351C15.042 42.8498 13.7341 43.1605 12.9836 43.9518C12.3624 44.5774 12.0349 45.5663 12.1435 46.4517C12.2641 47.4355 12.7905 48.0697 13.5444 48.5263C14.3043 49.032 15.2366 49.3168 16.9477 49.8553L18.9716 50.5051C20.6337 51.0497 22.2095 51.7047 23.6794 53.1217C25.039 54.4524 25.7171 55.9168 25.9764 58.0319C26.3985 61.4751 25.3972 64.6938 23.717 66.8477C21.3846 69.7808 18.0682 70.7878 14.7286 71.1985C12.3221 71.4944 10.3706 71.4349 8.01582 70.5261C6.28659 69.84 4.55219 68.7052 3.21672 67.5713L6.77702 61.6412C7.57917 62.4912 8.78626 63.3913 9.84689 63.9099C10.9566 64.4226 12.386 64.6961 13.8103 64.521C14.9399 64.3821 16.4692 63.8445 17.3179 63.0411C18.1175 62.2438 18.47 61.0521 18.3192 59.8224C18.1745 58.6418 17.5498 58.0196 17.1087 57.6744C16.833 57.4587 16.1282 56.9961 14.3248 56.5189L12.313 55.9674C11.7486 55.8371 9.11127 55.063 7.34069 53.633C5.57012 52.2031 4.75163 50.4064 4.49836 48.3405C4.08228 44.9465 5.1559 42.318 6.53452 40.5508C8.86696 37.6176 12.1954 36.709 14.9948 36.3648C17.7941 36.0205 21.1019 36.163 24.8714 38.4456Z" fill="#8E2C8E"/>
<path d="M50.0433 32.8036L50.0414 39.2947L39.4333 40.5993L39.4254 47.0412L49.2478 45.8333L49.2459 52.3243L39.4235 53.5322L39.381 67.4179L31.8177 68.348L31.8719 35.0383L50.0433 32.8036Z" fill="#8E2C8E"/>
<path d="M106.018 33.6629L113.09 32.7932L113.078 55.0633L106.006 55.9329L106.018 33.6629ZM105.216 24.2748C104.932 21.963 106.526 19.9196 108.834 19.6357C111.143 19.3519 113.183 20.9484 113.466 23.2602C113.75 25.572 112.156 27.6155 109.848 27.8993C107.539 28.1832 105.499 26.5867 105.216 24.2748Z" fill="white"/>
<path d="M119.149 32.0481L126.221 31.1784L126.172 33.6309C126.899 32.6428 127.747 31.8395 128.62 31.2328C130.089 30.2034 131.305 29.954 132.827 29.7668C134.645 29.5433 136.885 29.5175 138.754 30.9353C140.678 32.3963 141.096 34.5917 141.259 35.9198C141.35 36.6576 141.433 37.7458 141.428 40.143L141.483 51.5702L134.411 52.4399L134.425 42.8016C134.443 40.5027 134.328 39.5682 134.286 39.2238C134.183 38.3876 133.909 37.3728 133.076 36.6764C132.194 35.986 131.096 35.9713 130.359 36.0619C129.131 36.2129 128.087 36.6409 127.311 37.635C126.197 39.1201 126.162 41.2714 126.159 42.4701L126.209 53.4485L119.137 54.3182L119.149 32.0481Z" fill="white"/>
<path d="M163.497 29.2905L163.417 26.6042L170.489 25.7345L170.441 48.109C170.41 50.709 170.152 53.8864 168.127 56.4821C165.585 59.7405 161.496 60.543 158.942 60.857C155.995 61.2194 152.792 61.114 150.108 59.1473C148.405 57.8589 146.961 55.8396 146.327 53.5208L153.891 52.5907C154.184 53.3536 154.777 54.1294 155.482 54.5919C156.346 55.1348 157.506 55.2418 158.685 55.0968C160.845 54.8311 161.904 53.7024 162.365 52.9965C163.123 51.8548 163.354 50.0789 163.338 48.7327L163.343 46.3354C161.723 49.3807 158.96 50.0201 156.995 50.2617C154.785 50.5335 152.447 50.5714 149.898 48.4882C148.183 47.1014 146.451 44.768 145.974 40.8821C145.504 37.0454 146.42 33.5376 148.396 30.9479C150.242 28.5239 152.669 27.1769 155.862 26.7843C157.384 26.5971 160.502 26.4134 163.497 29.2905ZM157.941 32.7698C155.977 33.0114 154.84 33.9002 154.237 34.6734C153.375 35.7779 152.96 37.6764 153.159 39.2996C153.327 40.6769 154.005 42.1413 155.102 42.9551C156.089 43.6826 157.573 43.9993 158.801 43.8483C160.127 43.6853 161.644 43.0493 162.506 41.9447C163.46 40.7789 163.949 38.6716 163.75 37.0484C163.582 35.6711 162.817 34.3172 161.886 33.6328C161.114 33.0287 159.906 32.5282 157.941 32.7698Z" fill="white"/>
<path d="M187.231 22.9267C190.767 22.4919 194.405 23.2928 196.831 25.1913C198.706 26.6584 200.296 29.0591 200.688 32.2563C201.08 35.4536 200.274 39.0477 198.256 41.6926C195.547 45.2212 191.82 46.1289 188.628 46.5215C185.828 46.8657 182.244 46.9071 179.089 44.3492C177.153 42.7898 175.544 40.2415 175.146 36.9951C174.754 33.7979 175.541 30.4557 177.621 27.9031C179.738 25.2462 183.204 23.422 187.231 22.9267ZM188.285 40.4722C190.053 40.2548 191.393 39.391 192.217 38.3909C193.301 37.0593 193.667 35.1669 193.462 33.4945C193.257 31.8221 192.455 30.5726 191.524 29.8882C190.482 29.1176 188.85 28.819 187.524 28.982C186.198 29.1451 184.785 29.8182 183.782 30.99C182.601 32.3336 182.186 34.2321 182.391 35.9045C182.578 37.4293 183.33 38.6849 184.273 39.4676C185.051 40.1209 186.37 40.7077 188.285 40.4722Z" fill="white"/>
<path d="M21.6546 35.9673L18.5484 41.9414C16.2566 40.326 14.2318 40.0757 12.7584 40.2568C11.8253 40.3716 10.5174 40.6822 9.76688 41.4735C9.14564 42.0991 8.81821 43.0881 8.92675 43.9735C9.04735 44.9572 9.57378 45.5915 10.3277 46.048C11.0876 46.5537 12.0199 46.8385 13.731 47.377L15.7549 48.0269C17.417 48.5714 18.9928 49.2265 20.4627 50.6434C21.8223 51.9741 22.5003 53.4386 22.7596 55.5537C23.1818 58.9968 22.1805 62.2156 20.5003 64.3695C18.1679 67.3026 14.8515 68.3096 11.5119 68.7203C9.10541 69.0162 7.15387 68.9566 4.7991 68.0479C3.06987 67.3618 1.33547 66.227 0 65.093L3.5603 59.1629C4.36245 60.013 5.56954 60.913 6.63017 61.4317C7.73992 61.9443 9.16932 62.2179 10.5936 62.0428C11.7231 61.9038 13.2525 61.3663 14.1012 60.5629C14.9008 59.7655 15.2532 58.5738 15.1025 57.3441C14.9578 56.1636 14.3331 55.5414 13.892 55.1962C13.6163 54.9805 12.9115 54.5179 11.1081 54.0407L9.09628 53.4892C8.53192 53.3589 5.89455 52.5848 4.12397 51.1548C2.3534 49.7249 1.53491 47.9282 1.28164 45.8623C0.865557 42.4683 1.93918 39.8398 3.3178 38.0725C5.65024 35.1394 8.97866 34.2308 11.778 33.8865C14.5774 33.5423 17.8851 33.6847 21.6546 35.9673Z" fill="white"/>
<path d="M46.8266 30.3254L46.8247 36.8165L36.2165 38.121L36.2087 44.5629L46.031 43.355L46.0292 49.8461L36.2068 51.054L36.1643 64.9397L28.601 65.8698L28.6552 32.56L46.8266 30.3254Z" fill="white"/>
</svg>
